<?xml version="1.0" encoding="UTF-8"?>
<svg version="1.1" xmlns="http://www.w3.org/2000/svg" width="150" height="93">
<path d="M0 0 C2.66870117 1.47558594 2.66870117 1.47558594 5 4 C5.44541608 7.09358232 5.58638004 9.62192345 5.48828125 12.703125 C5.48120651 13.54091492 5.47413177 14.37870483 5.46684265 15.24188232 C5.43890066 17.91217147 5.37616613 20.58034708 5.3125 23.25 C5.28741671 25.06246967 5.26460359 26.87497228 5.24414062 28.6875 C5.18907504 33.12581171 5.10280667 37.56254781 5 42 C5.66 42 6.32 42 7 42 C6.97905273 41.08186523 6.95810547 40.16373047 6.93652344 39.21777344 C6.86825417 35.80344572 6.81815615 32.38984557 6.78027344 28.97509766 C6.76018699 27.4987441 6.73291199 26.02246981 6.69824219 24.54638672 C6.64958816 22.42135038 6.62700327 20.29736766 6.609375 18.171875 C6.58842773 16.8940918 6.56748047 15.61630859 6.54589844 14.29980469 C7.07646301 10.44436879 7.96392282 9.33620684 11 7 C12.875 6.0625 12.875 6.0625 15 6 C20.40844071 8.05520747 20.40844071 8.05520747 22.15380859 10.84277344 C23.04904425 13.12503029 23.30940824 14.88619219 23.4140625 17.328125 C23.45273438 18.12734375 23.49140625 18.9265625 23.53125 19.75 C23.5621875 20.575 23.593125 21.4 23.625 22.25 C23.66367188 23.09046875 23.70234375 23.9309375 23.7421875 24.796875 C23.83615836 26.86423382 23.91915564 28.93208627 24 31 C24.89912109 30.03900391 24.89912109 30.03900391 25.81640625 29.05859375 C28.58865569 26.44504195 30.21618816 26.07722065 34 26 C38.56521739 28.13043478 38.56521739 28.13043478 40 31 C40.18175781 30.37351562 40.36351563 29.74703125 40.55078125 29.1015625 C40.80214844 28.28429687 41.05351563 27.46703125 41.3125 26.625 C41.55613281 25.81289063 41.79976563 25.00078125 42.05078125 24.1640625 C43 22 43 22 46 20 C49.7084697 19.59543967 52.03410171 19.36746484 55.20703125 21.4453125 C57.88866367 25.26620052 57.43464382 28.70492135 57.25 33.25 C57.23195313 34.09046875 57.21390625 34.9309375 57.1953125 35.796875 C57.14830798 37.86507395 57.07656724 39.93268441 57 42 C57.66 42 58.32 42 59 42 C58.9175 41.2575 58.835 40.515 58.75 39.75 C59 37 59 37 60.5625 34.6875 C63.96565857 32.33146714 65.94203913 32.35926934 70 33 C72.9375 35.5 72.9375 35.5 75 38 C75.01417969 37.11957031 75.02835937 36.23914062 75.04296875 35.33203125 C75.43082342 25.88724584 75.43082342 25.88724584 78.125 21.6875 C81.77927517 19.54259936 83.82840621 19.31737556 88 20 C90.19921875 21.45703125 90.19921875 21.45703125 92 24 C92.48683685 27.09856454 92.37701921 30.1233734 92.25 33.25 C92.23195312 34.09046875 92.21390625 34.9309375 92.1953125 35.796875 C92.14830798 37.86507395 92.07656724 39.93268441 92 42 C92.83144531 41.97679687 93.66289062 41.95359375 94.51953125 41.9296875 C96.14955078 41.90261719 96.14955078 41.90261719 97.8125 41.875 C98.89144531 41.85179687 99.97039062 41.82859375 101.08203125 41.8046875 C104 42 104 42 107 44 C107.375 46.5 107.375 46.5 107 49 C103.47320901 51.35119399 101.97120515 51.21443452 97.8125 51.125 C96.72582031 51.10695312 95.63914063 51.08890625 94.51953125 51.0703125 C93.68808594 51.04710937 92.85664063 51.02390625 92 51 C92.04640625 52.25296875 92.0928125 53.5059375 92.140625 54.796875 C92.17814813 56.44789281 92.21454771 58.09893642 92.25 59.75 C92.28351563 60.575 92.31703125 61.4 92.3515625 62.25 C92.45017991 68.36427956 92.45017991 68.36427956 90.19921875 71.54296875 C86.9286803 73.70977309 84.83483007 73.60549949 81 73 C78.125 71.3125 78.125 71.3125 76 68 C75.29192011 63.66760007 75.07063074 59.38552667 75 55 C74.319375 55.825 73.63875 56.65 72.9375 57.5 C70 60 70 60 66.4375 60.5625 C63 60 63 60 60.5625 58.3125 C58.74046751 55.61589191 58.64569606 54.18873549 59 51 C58.34 51 57.68 51 57 51 C57.04640625 52.25296875 57.0928125 53.5059375 57.140625 54.796875 C57.17814813 56.44789281 57.21454771 58.09893642 57.25 59.75 C57.28351563 60.575 57.31703125 61.4 57.3515625 62.25 C57.45012726 68.361015 57.45012726 68.361015 55.203125 71.55078125 C51.99741768 73.65950007 49.75279218 73.46909902 46 73 C43.6875 72 43.6875 72 42 70 C41.08110022 67.33781606 40.54651146 64.77809992 40 62 C39.46375 62.639375 38.9275 63.27875 38.375 63.9375 C35.46608332 66.46366448 33.83284932 66.92177859 30 67 C25.43478261 64.86956522 25.43478261 64.86956522 24 62 C23.96261719 63.24136719 23.92523438 64.48273438 23.88671875 65.76171875 C23.8210405 67.40367511 23.7545938 69.04560087 23.6875 70.6875 C23.66494141 71.50412109 23.64238281 72.32074219 23.61914062 73.16210938 C23.40989717 77.86057614 23.07526698 81.2110945 20 85 C17.1875 86.5 17.1875 86.5 14 87 C8.45348837 84.90697674 8.45348837 84.90697674 7 82 C6.91413191 79.67583704 6.89288957 77.34916693 6.90234375 75.0234375 C6.9037587 74.33819 6.90517365 73.6529425 6.90663147 72.94692993 C6.91223325 70.75624239 6.92478594 68.5656567 6.9375 66.375 C6.94251478 64.89062648 6.94707772 63.40625135 6.95117188 61.921875 C6.96220323 58.28121685 6.97946901 54.64061836 7 51 C6.34 51 5.68 51 5 51 C5.02618408 52.13018555 5.05236816 53.26037109 5.0793457 54.42480469 C5.16990714 58.62154308 5.22727031 62.81819531 5.2746582 67.015625 C5.299789 68.83152799 5.33389961 70.64732996 5.37719727 72.46289062 C5.43791511 75.07447223 5.46622281 77.68471594 5.48828125 80.296875 C5.51408768 81.10743347 5.5398941 81.91799194 5.56648254 82.75311279 C5.56845158 86.71817806 5.41036013 88.5591873 2.66088867 91.51269531 C-0.58758902 93.3284331 -2.33422571 93.62396158 -6 93 C-8.30275556 91.1329009 -9.67823871 89.64352259 -11 87 C-11.15378852 85.04225931 -11.24971463 83.07982648 -11.31640625 81.1171875 C-11.35830078 79.95058594 -11.40019531 78.78398438 -11.44335938 77.58203125 C-11.48267578 76.35871094 -11.52199219 75.13539062 -11.5625 73.875 C-11.60568359 72.64394531 -11.64886719 71.41289063 -11.69335938 70.14453125 C-11.79968704 67.09647147 -11.90171781 64.0483281 -12 61 C-12.59941406 61.804375 -13.19882812 62.60875 -13.81640625 63.4375 C-16 66 -16 66 -18.9375 67 C-22.57241294 67 -24.14864833 66.19961414 -27 64 C-28.32229189 61.35541621 -28.09677194 59.32238699 -28.0625 56.375 C-28.05347656 55.37210938 -28.04445313 54.36921875 -28.03515625 53.3359375 C-28.02355469 52.56507812 -28.01195312 51.79421875 -28 51 C-28.83144531 51.02320313 -29.66289062 51.04640625 -30.51953125 51.0703125 C-32.14955078 51.09738281 -32.14955078 51.09738281 -33.8125 51.125 C-34.89144531 51.14820313 -35.97039063 51.17140625 -37.08203125 51.1953125 C-40 51 -40 51 -43 49 C-43.375 46.5 -43.375 46.5 -43 44 C-39.47320901 41.64880601 -37.97120515 41.78556548 -33.8125 41.875 C-32.72582031 41.89304688 -31.63914062 41.91109375 -30.51953125 41.9296875 C-29.68808594 41.95289063 -28.85664063 41.97609375 -28 42 C-28.03480469 41.25234375 -28.06960937 40.5046875 -28.10546875 39.734375 C-28.13253906 38.74953125 -28.15960938 37.7646875 -28.1875 36.75 C-28.23970703 35.28820313 -28.23970703 35.28820313 -28.29296875 33.796875 C-27.95442511 30.56491168 -27.27845301 29.28369083 -25 27 C-21.625 26 -21.625 26 -18 26 C-15.19810554 27.76641172 -13.48475089 29.03049822 -12 32 C-11.98541748 31.23856689 -11.97083496 30.47713379 -11.95581055 29.69262695 C-11.88119459 26.23208112 -11.78457741 22.77248555 -11.6875 19.3125 C-11.66494141 18.11431641 -11.64238281 16.91613281 -11.61914062 15.68164062 C-11.58369141 14.52470703 -11.54824219 13.36777344 -11.51171875 12.17578125 C-11.48553467 11.11270752 -11.45935059 10.04963379 -11.43237305 8.9543457 C-10.94554019 5.62788358 -9.97530419 3.69882557 -8 1 C-5.14675563 -0.42662219 -3.16545451 -0.31033868 0 0 Z " fill="#04243A" transform="translate(43,0)"/>
<path d="M0 0 C2.20703125 1.4453125 2.20703125 1.4453125 4 4 C4.48594147 7.09876809 4.37702308 10.12327799 4.25 13.25 C4.23195312 14.09046875 4.21390625 14.9309375 4.1953125 15.796875 C4.14830798 17.86507395 4.07656724 19.93268441 4 22 C4.66 22 5.32 22 6 22 C5.9175 21.2575 5.835 20.515 5.75 19.75 C6 17 6 17 7.5625 14.6875 C10.96565857 12.33146714 12.94203913 12.35926934 17 13 C19.9375 15.5 19.9375 15.5 22 18 C22.01417969 17.11957031 22.02835938 16.23914063 22.04296875 15.33203125 C22.43082342 5.88724584 22.43082342 5.88724584 25.125 1.6875 C28.77927517 -0.45740064 30.82840621 -0.68262444 35 0 C37.19921875 1.45703125 37.19921875 1.45703125 39 4 C39.48683685 7.09856454 39.37701921 10.1233734 39.25 13.25 C39.23195313 14.09046875 39.21390625 14.9309375 39.1953125 15.796875 C39.14830798 17.86507395 39.07656724 19.93268441 39 22 C40.24716797 21.96519531 40.24716797 21.96519531 41.51953125 21.9296875 C42.60621094 21.91164063 43.69289063 21.89359375 44.8125 21.875 C45.89144531 21.85179688 46.97039062 21.82859375 48.08203125 21.8046875 C51 22 51 22 54 24 C54.375 26.5 54.375 26.5 54 29 C50.47320901 31.35119399 48.97120515 31.21443452 44.8125 31.125 C43.72582031 31.10695313 42.63914062 31.08890625 41.51953125 31.0703125 C40.68808594 31.04710938 39.85664063 31.02390625 39 31 C39.04640625 32.25296875 39.0928125 33.5059375 39.140625 34.796875 C39.17814813 36.44789281 39.21454771 38.09893642 39.25 39.75 C39.28351563 40.575 39.31703125 41.4 39.3515625 42.25 C39.45017991 48.36427956 39.45017991 48.36427956 37.19921875 51.54296875 C33.9286803 53.70977309 31.83483007 53.60549949 28 53 C25.125 51.3125 25.125 51.3125 23 48 C22.29192011 43.66760007 22.07063074 39.38552667 22 35 C21.319375 35.825 20.63875 36.65 19.9375 37.5 C17 40 17 40 13.4375 40.5625 C10 40 10 40 7.5625 38.3125 C5.74046751 35.61589191 5.64569606 34.18873549 6 31 C5.34 31 4.68 31 4 31 C4.04640625 32.25296875 4.0928125 33.5059375 4.140625 34.796875 C4.17814813 36.44789281 4.21454771 38.09893642 4.25 39.75 C4.28351563 40.575 4.31703125 41.4 4.3515625 42.25 C4.45012726 48.361015 4.45012726 48.361015 2.203125 51.55078125 C-1.00258232 53.65950007 -3.24720782 53.46909902 -7 53 C-9.3125 52 -9.3125 52 -11 50 C-11.91889978 47.33781606 -12.45348854 44.77809992 -13 42 C-13.53625 42.639375 -14.0725 43.27875 -14.625 43.9375 C-17.53391668 46.46366448 -19.16715068 46.92177859 -23 47 C-27.56521739 44.86956522 -27.56521739 44.86956522 -29 42 C-29.07033769 40.12620395 -29.0843022 38.24998898 -29.0625 36.375 C-29.05347656 35.37210938 -29.04445313 34.36921875 -29.03515625 33.3359375 C-29.01775391 32.17964844 -29.01775391 32.17964844 -29 31 C-29.66 31 -30.32 31 -31 31 C-31 28.03 -31 25.06 -31 22 C-30.34 22 -29.68 22 -29 22 C-29.04640625 21.25234375 -29.0928125 20.5046875 -29.140625 19.734375 C-29.43498099 11.7026616 -29.43498099 11.7026616 -27.375 8.375 C-24.42652201 6.66798643 -22.41702512 6.06973521 -19 6 C-14.43478261 8.13043478 -14.43478261 8.13043478 -13 11 C-12.81824219 10.37351562 -12.63648437 9.74703125 -12.44921875 9.1015625 C-12.19785156 8.28429688 -11.94648437 7.46703125 -11.6875 6.625 C-11.44386719 5.81289063 -11.20023438 5.00078125 -10.94921875 4.1640625 C-8.77602767 -0.79045543 -4.76413983 -0.5014884 0 0 Z " fill="#1081D0" transform="translate(96,20)"/>
<path d="M0 0 C4.17476581 2.20124015 4.17476581 2.20124015 5.4375 5.8125 C5.69819641 8.80345154 5.69819641 8.80345154 5.7121582 12.33764648 C5.7198246 13.30670929 5.7198246 13.30670929 5.72764587 14.29534912 C5.74151335 16.42485899 5.74058733 18.55404417 5.73828125 20.68359375 C5.74216975 22.16805643 5.74650474 23.65251801 5.75126648 25.13697815 C5.75872255 28.24638477 5.75844189 31.35567784 5.75317383 34.46508789 C5.74737986 38.44422146 5.76431098 42.42288946 5.7875185 46.40194607 C5.80227039 49.46721603 5.80312558 52.53237424 5.80000877 55.59767342 C5.80052125 57.06445297 5.80574527 58.5312389 5.81582069 59.99798393 C5.82819666 62.05161423 5.82138768 64.10434247 5.80981445 66.15795898 C5.81044388 67.32503891 5.8110733 68.49211884 5.8117218 69.69456482 C5.39428563 73.1725528 4.54391401 75.03646188 2.4375 77.8125 C-0.375 79.3125 -0.375 79.3125 -3.5625 79.8125 C-9.10901163 77.71947674 -9.10901163 77.71947674 -10.5625 74.8125 C-10.64836809 72.48833704 -10.66961043 70.16166693 -10.66015625 67.8359375 C-10.6587413 67.15069 -10.65732635 66.4654425 -10.65586853 65.75942993 C-10.65026675 63.56874239 -10.63771406 61.3781567 -10.625 59.1875 C-10.61998522 57.70312648 -10.61542228 56.21875135 -10.61132812 54.734375 C-10.60029677 51.09371685 -10.58303099 47.45311836 -10.5625 43.8125 C-11.2225 43.8125 -11.8825 43.8125 -12.5625 43.8125 C-12.5625 40.8425 -12.5625 37.8725 -12.5625 34.8125 C-11.9025 34.8125 -11.2425 34.8125 -10.5625 34.8125 C-10.58344727 33.89436523 -10.60439453 32.97623047 -10.62597656 32.03027344 C-10.69424583 28.61594572 -10.74434385 25.20234557 -10.78222656 21.78759766 C-10.80231301 20.3112441 -10.82958801 18.83496981 -10.86425781 17.35888672 C-10.91291184 15.23385038 -10.93549673 13.10986766 -10.953125 10.984375 C-10.97407227 9.7065918 -10.99501953 8.42880859 -11.01660156 7.11230469 C-10.5625 3.8125 -10.5625 3.8125 -8.72558594 1.42675781 C-5.28215466 -1.14299023 -4.14939806 -1.38313269 0 0 Z " fill="#084168" transform="translate(60.5625,7.1875)"/>
<path d="M0 0 C3.4375 0.5625 3.4375 0.5625 5.63671875 2.01953125 C8.33444329 5.82911623 7.87207667 9.2690742 7.6875 13.8125 C7.66945312 14.65296875 7.65140625 15.4934375 7.6328125 16.359375 C7.58580798 18.42757395 7.51406724 20.49518441 7.4375 22.5625 C8.26894531 22.53929688 9.10039062 22.51609375 9.95703125 22.4921875 C11.04371094 22.47414063 12.13039062 22.45609375 13.25 22.4375 C14.32894531 22.41429688 15.40789062 22.39109375 16.51953125 22.3671875 C19.4375 22.5625 19.4375 22.5625 22.4375 24.5625 C22.8125 27.0625 22.8125 27.0625 22.4375 29.5625 C18.91070901 31.91369399 17.40870515 31.77693452 13.25 31.6875 C11.61998047 31.66042969 11.61998047 31.66042969 9.95703125 31.6328125 C8.70986328 31.59800781 8.70986328 31.59800781 7.4375 31.5625 C7.48390625 32.81546875 7.5303125 34.0684375 7.578125 35.359375 C7.61564813 37.01039281 7.65204771 38.66143642 7.6875 40.3125 C7.72101563 41.1375 7.75453125 41.9625 7.7890625 42.8125 C7.88767991 48.92677956 7.88767991 48.92677956 5.63671875 52.10546875 C2.3661803 54.27227309 0.27233007 54.16799949 -3.5625 53.5625 C-6.36612383 51.54670928 -8.25105853 49.94834743 -9.02984619 46.48291016 C-9.22497629 43.92360951 -9.25545554 41.41037207 -9.2265625 38.84375 C-9.23373795 37.44050476 -9.23373795 37.44050476 -9.24105835 36.00891113 C-9.2444536 34.03538324 -9.23527739 32.06179882 -9.21435547 30.08837891 C-9.18758399 27.07196344 -9.21411536 24.05926883 -9.24609375 21.04296875 C-9.24278958 19.12238764 -9.23638321 17.20180884 -9.2265625 15.28125 C-9.23668365 14.38216919 -9.24680481 13.48308838 -9.25723267 12.5567627 C-9.17411792 8.10393654 -9.00024125 6.14246798 -6.24365234 2.49023438 C-3.5625 0.5625 -3.5625 0.5625 0 0 Z " fill="#084168" transform="translate(127.5625,19.4375)"/>
<path d="M0 0 C2.375 1.9375 2.375 1.9375 4 5 C4.31871184 8.36189589 4.23524595 11.63467604 4 15 C4.66 15 5.32 15 6 15 C6 17.97 6 20.94 6 24 C5.34 24 4.68 24 4 24 C4.04640625 24.66386719 4.0928125 25.32773437 4.140625 26.01171875 C4.31661883 30.31728216 4.42625754 33.19666848 2.375 37.0625 C-0.55714157 39.45451022 -2.22017572 40 -6 40 C-10.56521739 37.86956522 -10.56521739 37.86956522 -12 35 C-12.07033769 33.12620395 -12.0843022 31.24998898 -12.0625 29.375 C-12.05347656 28.37210938 -12.04445313 27.36921875 -12.03515625 26.3359375 C-12.02355469 25.56507812 -12.01195312 24.79421875 -12 24 C-12.83144531 24.02320312 -13.66289062 24.04640625 -14.51953125 24.0703125 C-16.14955078 24.09738281 -16.14955078 24.09738281 -17.8125 24.125 C-18.89144531 24.14820312 -19.97039063 24.17140625 -21.08203125 24.1953125 C-24 24 -24 24 -27 22 C-27.375 19.5 -27.375 19.5 -27 17 C-23.47320901 14.64880601 -21.97120515 14.78556548 -17.8125 14.875 C-16.72582031 14.89304687 -15.63914062 14.91109375 -14.51953125 14.9296875 C-13.27236328 14.96449219 -13.27236328 14.96449219 -12 15 C-12.03480469 14.25234375 -12.06960938 13.5046875 -12.10546875 12.734375 C-12.13253906 11.74953125 -12.15960938 10.7646875 -12.1875 9.75 C-12.22230469 8.77546875 -12.25710938 7.8009375 -12.29296875 6.796875 C-11.95519178 3.57223082 -11.25529239 2.29209203 -9 0 C-5.39297148 -1.20234284 -3.64185324 -1.0405295 0 0 Z " fill="#084067" transform="translate(27,27)"/>
<path d="M0 0 C2.375 1.375 2.375 1.375 4 4 C4.32970971 7.69062162 4.22932208 11.30536654 4 15 C4.66 15 5.32 15 6 15 C6 17.97 6 20.94 6 24 C5.34 24 4.68 24 4 24 C4.04640625 24.74765625 4.0928125 25.4953125 4.140625 26.265625 C4.43498099 34.2973384 4.43498099 34.2973384 2.375 37.625 C-0.57347799 39.33201357 -2.58297488 39.93026479 -6 40 C-10.56521739 37.86956522 -10.56521739 37.86956522 -12 35 C-12.07033769 33.12620395 -12.0843022 31.24998898 -12.0625 29.375 C-12.05347656 28.37210938 -12.04445313 27.36921875 -12.03515625 26.3359375 C-12.01775391 25.17964844 -12.01775391 25.17964844 -12 24 C-12.66 24 -13.32 24 -14 24 C-14 21.03 -14 18.06 -14 15 C-13.34 15 -12.68 15 -12 15 C-12.04640625 14.25234375 -12.0928125 13.5046875 -12.140625 12.734375 C-12.43824701 4.61354582 -12.43824701 4.61354582 -10.125 1.375 C-6.25885346 -1.12662423 -4.52507816 -1.17652032 0 0 Z " fill="#156399" transform="translate(79,27)"/>
<path d="M0 0 C2.9375 2.25 2.9375 2.25 5 5 C5 6.32 5 7.64 5 9 C5.66 9 6.32 9 7 9 C7 11.97 7 14.94 7 18 C6.34 18 5.68 18 5 18 C4.9175 18.928125 4.835 19.85625 4.75 20.8125 C4 24 4 24 2.375 25.875 C-0.97395179 27.46134558 -3.34026746 27.45746657 -7 27 C-9.4375 25.3125 -9.4375 25.3125 -11 23 C-11.25 20.25 -11.25 20.25 -11 18 C-11.66 18 -12.32 18 -13 18 C-13 15.03 -13 12.06 -13 9 C-12.34 9 -11.68 9 -11 9 C-11.0825 8.2575 -11.165 7.515 -11.25 6.75 C-11 4 -11 4 -9.4375 1.6875 C-6.03434143 -0.66853286 -4.05796087 -0.64073066 0 0 Z " fill="#0C5C94" transform="translate(113,33)"/>
<path d="M0 0 C1.93719378 -0.05406122 3.87481921 -0.09282025 5.8125 -0.125 C6.89144531 -0.14820313 7.97039062 -0.17140625 9.08203125 -0.1953125 C12 0 12 0 15 2 C15.375 4.5 15.375 4.5 15 7 C11.47320901 9.35119399 9.97120515 9.21443452 5.8125 9.125 C4.72582031 9.10695313 3.63914063 9.08890625 2.51953125 9.0703125 C1.27236328 9.03550781 1.27236328 9.03550781 0 9 C0 6.03 0 3.06 0 0 Z " fill="#0B5C94" transform="translate(135,42)"/>
<path d="M0 0 C1.08667969 0.01804688 2.17335938 0.03609375 3.29296875 0.0546875 C4.54013672 0.08949219 4.54013672 0.08949219 5.8125 0.125 C5.8125 3.095 5.8125 6.065 5.8125 9.125 C3.87530622 9.17906122 1.93768079 9.21782025 0 9.25 C-1.07894531 9.27320313 -2.15789063 9.29640625 -3.26953125 9.3203125 C-6.1875 9.125 -6.1875 9.125 -9.1875 7.125 C-9.5625 4.625 -9.5625 4.625 -9.1875 2.125 C-5.66070901 -0.22619399 -4.15870515 -0.08943452 0 0 Z " fill="#0B5C94" transform="translate(9.1875,41.875)"/>
<path d="M0 0 C0.99 0.33 1.98 0.66 3 1 C3.33 1.99 3.66 2.98 4 4 C4.33 2.68 4.66 1.36 5 0 C5.66 0 6.32 0 7 0 C7 4.29 7 8.58 7 13 C6.34 13 5.68 13 5 13 C4.34 11.35 3.68 9.7 3 8 C2.67 9.65 2.34 11.3 2 13 C1.34 13 0.68 13 0 13 C0 8.71 0 4.42 0 0 Z " fill="#AAC9DC" transform="translate(54,40)"/>
<path d="M0 0 C2.97 0.495 2.97 0.495 6 1 C5.814375 2.2375 5.62875 3.475 5.4375 4.75 C5.05288777 7.76279577 4.9125406 10.10010827 6 13 C5.34 13 4.68 13 4 13 C3.67 12.01 3.34 11.02 3 10 C2.67 10.99 2.34 11.98 2 13 C1.34 13 0.68 13 0 13 C0 8.71 0 4.42 0 0 Z " fill="#BDDBEE" transform="translate(107,40)"/>
<path d="M0 0 C1.32 0 2.64 0 4 0 C4 0.66 4 1.32 4 2 C3.01 2.33 2.02 2.66 1 3 C1 5.31 1 7.62 1 10 C1.99 10.33 2.98 10.66 4 11 C4 11.66 4 12.32 4 13 C1.5625 12.625 1.5625 12.625 -1 12 C-2.11445498 9.77109005 -2.16480286 8.46944894 -2.1875 6 C-2.20167969 5.29875 -2.21585938 4.5975 -2.23046875 3.875 C-2 2 -2 2 0 0 Z " fill="#ABC9DB" transform="translate(22,40)"/>
<path d="M0 0 C2.0625 0.4375 2.0625 0.4375 4 1 C4 2.32 4 3.64 4 5 C2.68 5 1.36 5 0 5 C0 5.66 0 6.32 0 7 C1.32 6.67 2.64 6.34 4 6 C3.67 6.99 3.34 7.98 3 9 C1.68 8.67 0.36 8.34 -1 8 C-1.04241723 5.66705225 -1.04092937 3.33297433 -1 1 C-0.67 0.67 -0.34 0.34 0 0 Z " fill="#ABD4F2" transform="translate(91,42)"/>
<path d="M0 0 C1.98 0 3.96 0 6 0 C6 0.66 6 1.32 6 2 C5.34 2 4.68 2 4 2 C4 5.63 4 9.26 4 13 C3.34 13 2.68 13 2 13 C2 9.37 2 5.74 2 2 C1.34 2 0.68 2 0 2 C0 1.34 0 0.68 0 0 Z " fill="#B7D4E6" transform="translate(124,40)"/>
<path d="M0 0 C0.99 0 1.98 0 3 0 C3 2.97 3 5.94 3 9 C2.01 9 1.02 9 0 9 C0 6.03 0 3.06 0 0 Z " fill="#0A5588" transform="translate(30,42)"/>
<path d="M0 0 C0.33 0 0.66 0 1 0 C1 1.98 1 3.96 1 6 C3.51083114 4.74458443 3.87125446 3.49936512 5 1 C5 2.98 5 4.96 5 7 C3.125 7.625 3.125 7.625 1 8 C-1 6 -1 6 -1.1875 3.4375 C-1 1 -1 1 0 0 Z " fill="#B8D0DB" transform="translate(38,43)"/>
<path d="M0 0 C1.32 0.33 2.64 0.66 4 1 C3.34 2.98 2.68 4.96 2 7 C1.34 7 0.68 7 0 7 C0 4.69 0 2.38 0 0 Z " fill="#546A7B" transform="translate(39,42)"/>
<path d="M0 0 C0.33 0 0.66 0 1 0 C1 3.96 1 7.92 1 12 C0.34 12 -0.32 12 -1 12 C-1.33 10.35 -1.66 8.7 -2 7 C-1.34 7 -0.68 7 0 7 C0 4.69 0 2.38 0 0 Z " fill="#C3DEED" transform="translate(60,41)"/>
<path d="M0 0 C1.32 0 2.64 0 4 0 C4 1.65 4 3.3 4 5 C3.01 5.33 2.02 5.66 1 6 C0.67 4.02 0.34 2.04 0 0 Z " fill="#6EA0C5" transform="translate(107,40)"/>
<path d="M0 0 C0.2475 0.61875 0.495 1.2375 0.75 1.875 C2.20628639 4.35068687 3.37812506 4.95125002 6 6 C6 6.66 6 7.32 6 8 C4.35 7.67 2.7 7.34 1 7 C0.67 4.69 0.34 2.38 0 0 Z " fill="#BAD5E5" transform="translate(20,45)"/>
</svg>
