<?xml version="1.0" encoding="UTF-8"?>
<svg version="1.1" xmlns="http://www.w3.org/2000/svg" width="158" height="147">
<path d="M0 0 C52.14 0 104.28 0 158 0 C158 48.51 158 97.02 158 147 C105.86 147 53.72 147 0 147 C0 98.49 0 49.98 0 0 Z " fill="#E4E4E4" transform="translate(0,0)"/>
<path d="M0 0 C1.65 0 3.3 0 5 0 C5 1.32 5 2.64 5 4 C5.99 3.67 6.98 3.34 8 3 C8 3.66 8 4.32 8 5 C8.78375 5 9.5675 5 10.375 5 C11.91666667 5 13.45833333 5 15 5 C16.155 4.95875 17.31 4.9175 18.5 4.875 C22 5 22 5 24 7 C24.33 6.34 24.66 5.68 25 5 C28.3 5 31.6 5 35 5 C36.17673198 7.35346396 36.16623866 8.8806033 36.1875 11.5 C36.20167969 12.2940625 36.21585938 13.088125 36.23046875 13.90625 C36 16 36 16 34 18 C31.875 18.625 31.875 18.625 30 19 C30.99 21.31 31.98 23.62 33 26 C33 24.02 33 22.04 33 20 C33.99 20 34.98 20 36 20 C36 24.29 36 28.58 36 33 C36.99 33.495 36.99 33.495 38 34 C28.1 34.495 28.1 34.495 18 35 C17.67 35.66 17.34 36.32 17 37 C15.68 36.34 14.36 35.68 13 35 C13 32.03 13 29.06 13 26 C10.47636012 26.62533375 10.47636012 26.62533375 8 28 C7.10613836 30.54775306 7.10613836 30.54775306 7 33 C7.66 33 8.32 33 9 33 C9 33.66 9 34.32 9 35 C5.37 35 1.74 35 -2 35 C-2 34.34 -2 33.68 -2 33 C-1.34 33 -0.68 33 0 33 C0 30.69 0 28.38 0 26 C-0.66 26 -1.32 26 -2 26 C-2 25.34 -2 24.68 -2 24 C-1.34 23.67 -0.68 23.34 0 23 C0 22.34 0 21.68 0 21 C0.66 21 1.32 21 2 21 C2.33 21.99 2.66 22.98 3 24 C6.96 23.67 10.92 23.34 15 23 C14.34 23 13.68 23 13 23 C13 18.05 13 13.1 13 8 C12.01 8.33 11.02 8.66 10 9 C9.67 11.31 9.34 13.62 9 16 C8.38125 16.103125 7.7625 16.20625 7.125 16.3125 C4.63473516 16.87525373 4.63473516 16.87525373 3 20 C0.69 19.67 -1.62 19.34 -4 19 C-4 17.68 -4 16.36 -4 15 C-3.34 15 -2.68 15 -2 15 C-2.33 11.7 -2.66 8.4 -3 5 C-2.34 5 -1.68 5 -1 5 C-0.67 3.35 -0.34 1.7 0 0 Z " fill="#DFDFDF" transform="translate(47,59)"/>
<path d="M0 0 C0.33 1.98 0.66 3.96 1 6 C1.66 5.34 2.32 4.68 3 4 C6.5 3.75 6.5 3.75 10 4 C12 6 12 6 12 10 C10.35 10 8.7 10 7 10 C7.66 9.67 8.32 9.34 9 9 C8.67 8.34 8.34 7.68 8 7 C7.01 7 6.02 7 5 7 C4.67 7.66 4.34 8.32 4 9 C4.66 9.33 5.32 9.66 6 10 C5.34 10 4.68 10 4 10 C4.33 10.66 4.66 11.32 5 12 C6.98 12 8.96 12 11 12 C9.88233946 15.35298161 8.45275901 16.54724099 6 19 C6 19.66 6 20.32 6 21 C4.35 21.33 2.7 21.66 1 22 C-1 19 -1 19 -1 15 C-3.97 15 -6.94 15 -10 15 C-10 12.03 -10 9.06 -10 6 C-10.66 6 -11.32 6 -12 6 C-12 5.34 -12 4.68 -12 4 C-11.34 4 -10.68 4 -10 4 C-10 3.01 -10 2.02 -10 1 C-6.61981469 -0.04005702 -3.5219721 -0.08004482 0 0 Z M11 19 C11.99 19.33 12.98 19.66 14 20 C14 22.31 14 24.62 14 27 C14.66 27 15.32 27 16 27 C16 25.68 16 24.36 16 23 C17.65 23 19.3 23 21 23 C21 23.66 21 24.32 21 25 C20.01 25 19.02 25 18 25 C18 27.31 18 29.62 18 32 C17.01 31.01 16.02 30.02 15 29 C15 30.65 15 32.3 15 34 C11.21011686 34.94747078 8.47083326 35.01847626 4.75 34 C1.21845733 32.61469888 1.21845733 32.61469888 -1 34 C-2.875 33.94921875 -2.875 33.94921875 -5 33.6875 C-5.70125 33.60886719 -6.4025 33.53023437 -7.125 33.44921875 C-9 33 -9 33 -11 31 C-11.35571424 28.22542896 -11.36405327 26.62103204 -9.9375 24.1875 C-7.0220649 22.40062042 -4.34901036 22.87821781 -1 23 C-0.34 22.67 0.32 22.34 1 22 C1.33 22.66 1.66 23.32 2 24 C3.3921875 23.6596875 3.3921875 23.6596875 4.8125 23.3125 C8 23 8 23 9.875 24.4375 C10.431875 25.2109375 10.431875 25.2109375 11 26 C11.33 24.35 11.66 22.7 12 21 C11.34 20.67 10.68 20.34 10 20 C10.33 19.67 10.66 19.34 11 19 Z " fill="#DCDCDD" transform="translate(96,60)"/>
<path d="M0 0 C2.01822917 0.06510417 4.03645833 0.13020833 6.0546875 0.1953125 C6.3846875 1.5153125 6.7146875 2.8353125 7.0546875 4.1953125 C10.0246875 4.1953125 12.9946875 4.1953125 16.0546875 4.1953125 C18.05481563 7.55552775 19.10894036 9.49002533 18.8046875 13.4453125 C18.0546875 16.1953125 18.0546875 16.1953125 17.0546875 18.1953125 C15.07579789 18.92225154 13.07514192 19.59347501 11.0546875 20.1953125 C11.0546875 22.8353125 11.0546875 25.4753125 11.0546875 28.1953125 C0.86812034 31.8333722 0.86812034 31.8333722 -4.3203125 30.0078125 C-7.49294233 26.60856625 -7.3203125 25.46636602 -7.3203125 20.9453125 C-7.22393762 19.02699345 -7.1078094 17.10916486 -6.9453125 15.1953125 C-3.57433867 13.69710191 -1.74089131 13.1953125 2.0546875 13.1953125 C2.0546875 12.5353125 2.0546875 11.8753125 2.0546875 11.1953125 C0.0746875 11.1953125 -1.9053125 11.1953125 -3.9453125 11.1953125 C-3.99930986 9.73738366 -4.03810427 8.27888538 -4.0703125 6.8203125 C-4.09351563 6.00820313 -4.11671875 5.19609375 -4.140625 4.359375 C-3.87619321 1.42947081 -2.98113708 0.29931095 0 0 Z " fill="#655F47" transform="translate(21.9453125,47.8046875)"/>
<path d="M0 0 C2.64 0 5.28 0 8 0 C8.33 2.31 8.66 4.62 9 7 C9.99 7 10.98 7 12 7 C12 7.66 12 8.32 12 9 C12.99 9 13.98 9 15 9 C13.60804085 6.2160817 11.84424221 6.02101003 9 5 C9.33 3.35 9.66 1.7 10 0 C16.75 -0.125 16.75 -0.125 19 1 C19 1.66 19 2.32 19 3 C16.69 2.67 14.38 2.34 12 2 C12 2.66 12 3.32 12 4 C14.31 4.33 16.62 4.66 19 5 C18.84518205 7.70931419 18.51827919 9.46584039 16.59765625 11.4453125 C15.10228292 12.67679642 13.5537076 13.8429837 12 15 C12.33 16.32 12.66 17.64 13 19 C13.99 19 14.98 19 16 19 C16.33 18.01 16.66 17.02 17 16 C17.66 16.33 18.32 16.66 19 17 C19 17.66 19 18.32 19 19 C20.175625 18.4740625 20.175625 18.4740625 21.375 17.9375 C22.674375 17.4734375 22.674375 17.4734375 24 17 C24.66 17.33 25.32 17.66 26 18 C26.33 17.34 26.66 16.68 27 16 C29.60018816 19.90028225 29.15085514 23.47434569 29 28 C30.32 28 31.64 28 33 28 C33 25.69 33 23.38 33 21 C32.34 21 31.68 21 31 21 C31 20.34 31 19.68 31 19 C32.32 19 33.64 19 35 19 C35.495 24.445 35.495 24.445 36 30 C31.38 30 26.76 30 22 30 C21.67 30.66 21.34 31.32 21 32 C21 31.34 21 30.68 21 30 C19.68 29.67 18.36 29.34 17 29 C17 26.36 17 23.72 17 21 C15.68 21.33 14.36 21.66 13 22 C12.67 24.31 12.34 26.62 12 29 C11.01 28.67 10.02 28.34 9 28 C9.33 24.37 9.66 20.74 10 17 C9.34 17 8.68 17 8 17 C8 15.35 8 13.7 8 12 C7.34 12 6.68 12 6 12 C5.67 11.34 5.34 10.68 5 10 C3.35 10.33 1.7 10.66 0 11 C0 7.37 0 3.74 0 0 Z " fill="#E2E2E2" transform="translate(109,64)"/>
<path d="M0 0 C1.65 0 3.3 0 5 0 C5 1.32 5 2.64 5 4 C5.99 3.67 6.98 3.34 8 3 C8 3.66 8 4.32 8 5 C8.78375 5 9.5675 5 10.375 5 C14.25 5 18.125 5 22 5 C22.33 5.66 22.66 6.32 23 7 C22.34 7 21.68 7 21 7 C20.67 7.66 20.34 8.32 20 9 C19.01 8.67 18.02 8.34 17 8 C17 9.65 17 11.3 17 13 C20.0745356 12.2236068 20.0745356 12.2236068 22 10 C22.5625 11.9375 22.5625 11.9375 23 14 C22 15 22 15 18.5625 15.1875 C15 15 15 15 13 13 C12.875 10.375 12.875 10.375 13 8 C12.01 8.33 11.02 8.66 10 9 C9.67 11.31 9.34 13.62 9 16 C8.38125 16.103125 7.7625 16.20625 7.125 16.3125 C4.63473516 16.87525373 4.63473516 16.87525373 3 20 C0.69 19.67 -1.62 19.34 -4 19 C-4 17.68 -4 16.36 -4 15 C-3.34 15 -2.68 15 -2 15 C-2.33 11.7 -2.66 8.4 -3 5 C-2.34 5 -1.68 5 -1 5 C-0.67 3.35 -0.34 1.7 0 0 Z " fill="#DADADB" transform="translate(47,59)"/>
<path d="M0 0 C0.66 2.31 1.32 4.62 2 7 C3.65 7.33 5.3 7.66 7 8 C7 10.64 7 13.28 7 16 C-3.18656716 19.6380597 -3.18656716 19.6380597 -8.375 17.8125 C-11.54762983 14.41325375 -11.375 13.27105352 -11.375 8.75 C-11.27862512 6.83168095 -11.1624969 4.91385236 -11 3 C-9.54293274 2.49632243 -8.08429904 1.99717444 -6.625 1.5 C-5.81289063 1.2215625 -5.00078125 0.943125 -4.1640625 0.65625 C-2 0 -2 0 0 0 Z " fill="#8DC543" transform="translate(26,60)"/>
<path d="M0 0 C2.64 0 5.28 0 8 0 C8.33 2.31 8.66 4.62 9 7 C9.99 7 10.98 7 12 7 C12 7.66 12 8.32 12 9 C12.99 9 13.98 9 15 9 C13.60804085 6.2160817 11.84424221 6.02101003 9 5 C9.33 3.35 9.66 1.7 10 0 C16.75 -0.125 16.75 -0.125 19 1 C19 1.66 19 2.32 19 3 C16.69 2.67 14.38 2.34 12 2 C12 2.66 12 3.32 12 4 C14.31 4.33 16.62 4.66 19 5 C18.77854028 8.87554506 18.06286207 9.9399318 15.1875 12.6875 C12.79540552 14.4229411 10.70200525 15.85684393 8 17 C8 15.35 8 13.7 8 12 C7.34 12 6.68 12 6 12 C5.67 11.34 5.34 10.68 5 10 C3.35 10.33 1.7 10.66 0 11 C0 7.37 0 3.74 0 0 Z " fill="#E4E4E6" transform="translate(109,64)"/>
<path d="M0 0 C0.99 0 1.98 0 3 0 C3 4.29 3 8.58 3 13 C3.66 13.33 4.32 13.66 5 14 C-0.28 14 -5.56 14 -11 14 C-10.34 13.67 -9.68 13.34 -9 13 C-9.33 9.04 -9.66 5.08 -10 1 C-7.36 1 -4.72 1 -2 1 C-1.34 2.65 -0.68 4.3 0 6 C0 4.02 0 2.04 0 0 Z " fill="#A2A2A2" transform="translate(80,79)"/>
<path d="M0 0 C0.99 0.33 1.98 0.66 3 1 C3 3.31 3 5.62 3 8 C3.66 8 4.32 8 5 8 C5 6.68 5 5.36 5 4 C6.65 4 8.3 4 10 4 C10 4.66 10 5.32 10 6 C9.01 6 8.02 6 7 6 C7 8.31 7 10.62 7 13 C6.01 12.01 5.02 11.02 4 10 C4 11.65 4 13.3 4 15 C0.05318074 15.82607845 -3.14785727 16.39105154 -7 15 C-8.375 13.1875 -8.375 13.1875 -9 11 C-8.625 8.75 -8.625 8.75 -8 7 C-5.69 6.34 -3.38 5.68 -1 5 C-0.67 5.66 -0.34 6.32 0 7 C0.33 5.35 0.66 3.7 1 2 C0.34 1.67 -0.32 1.34 -1 1 C-0.67 0.67 -0.34 0.34 0 0 Z " fill="#D9D9D9" transform="translate(107,79)"/>
<path d="M0 0 C5.66666667 0 11.33333333 0 17 0 C17.33 0.66 17.66 1.32 18 2 C17.34 2 16.68 2 16 2 C15.67 2.66 15.34 3.32 15 4 C14.01 3.67 13.02 3.34 12 3 C12 4.65 12 6.3 12 8 C15.0745356 7.2236068 15.0745356 7.2236068 17 5 C17.5625 6.9375 17.5625 6.9375 18 9 C17 10 17 10 13.5625 10.1875 C10 10 10 10 8 8 C7.875 5.375 7.875 5.375 8 3 C7.01 3.33 6.02 3.66 5 4 C4.67 6.31 4.34 8.62 4 11 C2.68 11 1.36 11 0 11 C0 7.37 0 3.74 0 0 Z " fill="#777779" transform="translate(52,64)"/>
<path d="M0 0 C0.66 0 1.32 0 2 0 C2.33 0.99 2.66 1.98 3 3 C3.71027344 2.98839844 4.42054687 2.97679688 5.15234375 2.96484375 C6.07144531 2.95582031 6.99054687 2.94679688 7.9375 2.9375 C8.85402344 2.92589844 9.77054688 2.91429688 10.71484375 2.90234375 C13 3 13 3 14 4 C14.23192865 5.51469448 14.41215238 7.03754562 14.5625 8.5625 C14.68818359 9.80193359 14.68818359 9.80193359 14.81640625 11.06640625 C14.87699219 11.70449219 14.93757813 12.34257813 15 13 C14.34 13 13.68 13 13 13 C13 10.36 13 7.72 13 5 C10.47636012 5.62533375 10.47636012 5.62533375 8 7 C7.10613836 9.54775306 7.10613836 9.54775306 7 12 C7.66 12 8.32 12 9 12 C9 12.66 9 13.32 9 14 C5.37 14 1.74 14 -2 14 C-2 13.34 -2 12.68 -2 12 C-1.34 12 -0.68 12 0 12 C0 9.69 0 7.38 0 5 C-0.66 5 -1.32 5 -2 5 C-2 4.34 -2 3.68 -2 3 C-1.34 2.67 -0.68 2.34 0 2 C0 1.34 0 0.68 0 0 Z " fill="#BEBEBF" transform="translate(47,80)"/>
<path d="M0 0 C0 2.64 0 5.28 0 8 C-1.98 8.99 -1.98 8.99 -4 10 C-3.67 10.66 -3.34 11.32 -3 12 C-3.99 12.495 -3.99 12.495 -5 13 C-5.34153937 14.66500443 -5.67449498 16.33178677 -6 18 C-6.66 18.66 -7.32 19.32 -8 20 C-8.39764263 21.98821313 -8.73775349 23.98944339 -9 26 C-9.33 26 -9.66 26 -10 26 C-10.16733157 24.5209084 -10.33384686 23.04172444 -10.5 21.5625 C-10.5928125 20.73878906 -10.685625 19.91507813 -10.78125 19.06640625 C-11.23896224 14.74266024 -11 10.34475791 -11 6 C-10.01 6.495 -10.01 6.495 -9 7 C-6.6670134 7.04022391 -4.33293334 7.04320247 -2 7 C-2.33 6.34 -2.66 5.68 -3 5 C-4.32 5.33 -5.64 5.66 -7 6 C-7 4.35 -7 2.7 -7 1 C-4.50935112 0.31292445 -2.62113708 0 0 0 Z " fill="#DBDBDC" transform="translate(71,66)"/>
<path d="M0 0 C2.625 0.375 2.625 0.375 5 1 C5 3.64 5 6.28 5 9 C6.32 9 7.64 9 9 9 C9 6.69 9 4.38 9 2 C8.34 2 7.68 2 7 2 C7 1.34 7 0.68 7 0 C8.32 0 9.64 0 11 0 C11.33 3.63 11.66 7.26 12 11 C9.87506859 11.02693575 7.75004088 11.04636628 5.625 11.0625 C4.44164062 11.07410156 3.25828125 11.08570312 2.0390625 11.09765625 C-1 11 -1 11 -3 10 C-2.67 8.35 -2.34 6.7 -2 5 C-0.35 4.67 1.3 4.34 3 4 C3 3.34 3 2.68 3 2 C1.35 2 -0.3 2 -2 2 C-1.34 1.34 -0.68 0.68 0 0 Z " fill="#ADADAD" transform="translate(133,83)"/>
<path d="M0 0 C3.3 0 6.6 0 10 0 C11.20272819 2.40545638 11.10071472 3.94996953 11.0625 6.625 C11.05347656 7.44226563 11.04445313 8.25953125 11.03515625 9.1015625 C11.02355469 9.72804688 11.01195313 10.35453125 11 11 C9.68 11 8.36 11 7 11 C7 8.36 7 5.72 7 3 C6.01 3 5.02 3 4 3 C4 5.64 4 8.28 4 11 C2.68 11 1.36 11 0 11 C0 7.37 0 3.74 0 0 Z " fill="#767678" transform="translate(72,64)"/>
<path d="M0 0 C1.47906892 -0.02689216 2.95827483 -0.04634621 4.4375 -0.0625 C5.26121094 -0.07410156 6.08492187 -0.08570312 6.93359375 -0.09765625 C9 0 9 0 10 1 C10.14115161 3.67058851 10.04247107 6.32432238 10 9 C10.66 9.33 11.32 9.66 12 10 C10.68 10 9.36 10 8 10 C8 9.01 8 8.02 8 7 C7.01 7.66 6.02 8.32 5 9 C5 9.66 5 10.32 5 11 C3.35 11 1.7 11 0 11 C0 10.34 0 9.68 0 9 C0.66 9 1.32 9 2 9 C2 6.69 2 4.38 2 2 C1.34 2 0.68 2 0 2 C0 1.34 0 0.68 0 0 Z " fill="#D7D7D7" transform="translate(146,83)"/>
<path d="M0 0 C6.75 -0.125 6.75 -0.125 9 1 C9 1.66 9 2.32 9 3 C6.69 2.67 4.38 2.34 2 2 C2 2.66 2 3.32 2 4 C4.31 4.33 6.62 4.66 9 5 C8.125 9.875 8.125 9.875 7 11 C4.66702567 11.04092937 2.33294775 11.04241723 0 11 C-0.33 9.68 -0.66 8.36 -1 7 C-0.01 7 0.98 7 2 7 C2 7.66 2 8.32 2 9 C2.99 9 3.98 9 5 9 C3.60804085 6.2160817 1.84424221 6.02101003 -1 5 C-0.67 3.35 -0.34 1.7 0 0 Z " fill="#737375" transform="translate(119,64)"/>
<path d="M0 0 C2.97 0 5.94 0 9 0 C12 5.75 12 5.75 12 8 C8.7 8 5.4 8 2 8 C0 4 0 4 0 0 Z " fill="#EC972C" transform="translate(29,52)"/>
<path d="M0 0 C3.5 0.25 3.5 0.25 5.5 2.25 C5.5 3.57 5.5 4.89 5.5 6.25 C3.85 6.25 2.2 6.25 0.5 6.25 C1.16 5.92 1.82 5.59 2.5 5.25 C2.17 4.59 1.84 3.93 1.5 3.25 C0.51 3.25 -0.48 3.25 -1.5 3.25 C-1.83 3.91 -2.16 4.57 -2.5 5.25 C-1.84 5.58 -1.18 5.91 -0.5 6.25 C-1.16 6.25 -1.82 6.25 -2.5 6.25 C-2.17 6.91 -1.84 7.57 -1.5 8.25 C0.48 8.25 2.46 8.25 4.5 8.25 C4.17 9.24 3.84 10.23 3.5 11.25 C-3.25 11.375 -3.25 11.375 -5.5 10.25 C-5.6953125 4.1953125 -5.6953125 4.1953125 -5.5 2.25 C-3.5 0.25 -3.5 0.25 0 0 Z " fill="#717173" transform="translate(102.5,63.75)"/>
<path d="M0 0 C0.66 2.31 1.32 4.62 2 7 C3.65 7.33 5.3 7.66 7 8 C7 10.64 7 13.28 7 16 C-0.61760925 11.9222365 -0.61760925 11.9222365 -2.0625 8.4375 C-2.00289402 6.11286665 -1.73421931 4.20265792 -1 2 C-1.99 1.67 -2.98 1.34 -4 1 C-2 0 -2 0 0 0 Z M4 16 C6 17 6 17 6 17 Z " fill="#C7C666" transform="translate(26,60)"/>
<path d="M0 0 C2.05918032 1.29434192 3.51053746 2.6355718 5.1875 4.375 C-2.7654703 7.59777228 -2.7654703 7.59777228 -6.75 6.75 C-8.8125 5.375 -8.8125 5.375 -10.8125 2.375 C-3.825 -0.85 -3.825 -0.85 0 0 Z " fill="#205373" transform="translate(26.8125,71.625)"/>
<path d="M0 0 C0.99 0.33 1.98 0.66 3 1 C2.67 1.33 2.34 1.66 2 2 C2 3.155 2 4.31 2 5.5 C2 6.655 2 7.81 2 9 C1.67 9.33 1.34 9.66 1 10 C1.061875 11.2065625 1.061875 11.2065625 1.125 12.4375 C1.08375 13.283125 1.0425 14.12875 1 15 C-2 17 -2 17 -6 17 C-6 16.01 -6 15.02 -6 14 C-4.68212715 12.97971135 -3.34789347 11.98028616 -2 11 C-1.67 10.01 -1.34 9.02 -1 8 C-2.98 8 -4.96 8 -7 8 C-7.33 7.34 -7.66 6.68 -8 6 C-4.535 5.505 -4.535 5.505 -1 5 C-0.67 3.35 -0.34 1.7 0 0 Z " fill="#E1E7EC" transform="translate(40,61)"/>
<path d="M0 0 C3.3 0 6.6 0 10 0 C9.34 1.98 8.68 3.96 8 6 C3.545 6.495 3.545 6.495 -1 7 C-0.67 4.69 -0.34 2.38 0 0 Z " fill="#3895AE" transform="translate(31,60)"/>
<path d="M0 0 C2.64 0 5.28 0 8 0 C8 0.99 8 1.98 8 3 C7.01 3.33 6.02 3.66 5 4 C4.67 6.31 4.34 8.62 4 11 C2.68 11 1.36 11 0 11 C0 7.37 0 3.74 0 0 Z " fill="#78787A" transform="translate(109,64)"/>
<path d="M0 0 C0.99 0 1.98 0 3 0 C3.33 0.99 3.66 1.98 4 3 C4.804375 3.144375 5.60875 3.28875 6.4375 3.4375 C9 4 9 4 10 5 C10.45459858 7.65463121 10.70243238 10.32189138 11 13 C10.01 13 9.02 13 8 13 C8 10.36 8 7.72 8 5 C6.68 5.33 5.36 5.66 4 6 C3.67 8.31 3.34 10.62 3 13 C2.01 12.67 1.02 12.34 0 12 C0 8.04 0 4.08 0 0 Z " fill="#9C9C9C" transform="translate(118,80)"/>
<path d="M0 0 C0.99 0 1.98 0 3 0 C3 0.99 3 1.98 3 3 C3.66 3 4.32 3 5 3 C5 3.66 5 4.32 5 5 C4.34 5 3.68 5 3 5 C3 6.98 3 8.96 3 11 C3.66 11 4.32 11 5 11 C5 11.99 5 12.98 5 14 C3.35 14 1.7 14 0 14 C0 11.03 0 8.06 0 5 C-0.66 5 -1.32 5 -2 5 C-2 4.34 -2 3.68 -2 3 C-1.34 3 -0.68 3 0 3 C0 2.01 0 1.02 0 0 Z " fill="#6B6B6D" transform="translate(86,61)"/>
<path d="M0 0 C0.99 0.33 1.98 0.66 3 1 C3 3.31 3 5.62 3 8 C3.66 8 4.32 8 5 8 C5 6.68 5 5.36 5 4 C6.65 4 8.3 4 10 4 C10 4.66 10 5.32 10 6 C9.01 6 8.02 6 7 6 C7 8.31 7 10.62 7 13 C6.01 12.01 5.02 11.02 4 10 C4 11.32 4 12.64 4 14 C2.68 13.67 1.36 13.34 0 13 C0.33 9.37 0.66 5.74 1 2 C0.34 1.67 -0.32 1.34 -1 1 C-0.67 0.67 -0.34 0.34 0 0 Z " fill="#9D9D9D" transform="translate(107,79)"/>
<path d="M0 0 C0 0.66 0 1.32 0 2 C-0.66 2 -1.32 2 -2 2 C-2 2.66 -2 3.32 -2 4 C-1.34 4 -0.68 4 0 4 C0 4.66 0 5.32 0 6 C-0.66 6 -1.32 6 -2 6 C-2 8.97 -2 11.94 -2 15 C-2.99 15 -3.98 15 -5 15 C-5 12.03 -5 9.06 -5 6 C-5.66 6 -6.32 6 -7 6 C-7 5.34 -7 4.68 -7 4 C-6.34 4 -5.68 4 -5 4 C-5 3.01 -5 2.02 -5 1 C-3 0 -3 0 0 0 Z " fill="#6C6B6E" transform="translate(51,60)"/>
<path d="M0 0 C2.97 0.495 2.97 0.495 6 1 C5.67 1.99 5.34 2.98 5 4 C6.97536745 3.65213292 6.97536745 3.65213292 9 3 C9.33 2.34 9.66 1.68 10 1 C10.144375 1.61875 10.28875 2.2375 10.4375 2.875 C10.93152225 5.03258322 10.93152225 5.03258322 12 7 C10.63875 6.938125 10.63875 6.938125 9.25 6.875 C6.09931762 6.99618009 4.54596259 7.2083967 2 9 C1.67 9.99 1.34 10.98 1 12 C0.67 8.04 0.34 4.08 0 0 Z " fill="#DEDEDF" transform="translate(82,77)"/>
<path d="M0 0 C1.98 0 3.96 0 6 0 C6 1.32 6 2.64 6 4 C4.68 4 3.36 4 2 4 C2 7.63 2 11.26 2 15 C1.67 14.01 1.34 13.02 1 12 C0.34 12 -0.32 12 -1 12 C-1 10.02 -1 8.04 -1 6 C-0.34 6 0.32 6 1 6 C1 5.34 1 4.68 1 4 C0.34 4 -0.32 4 -1 4 C-0.67 2.68 -0.34 1.36 0 0 Z " fill="#C7C7C8" transform="translate(90,60)"/>
<path d="M0 0 C1.32 0 2.64 0 4 0 C3.67 1.32 3.34 2.64 3 4 C2.01 4 1.02 4 0 4 C0 4.66 0 5.32 0 6 C0.66 6 1.32 6 2 6 C2 8.31 2 10.62 2 13 C0.68 13 -0.64 13 -2 13 C-2.05416188 11.39620659 -2.09286638 9.79188594 -2.125 8.1875 C-2.14820313 7.29417969 -2.17140625 6.40085937 -2.1953125 5.48046875 C-2 3 -2 3 0 0 Z " fill="#D8D8D8" transform="translate(140,79)"/>
<path d="M0 0 C2.475 0.99 2.475 0.99 5 2 C4.67 3.65 4.34 5.3 4 7 C2.34385343 7.38218767 0.67542976 7.71395102 -1 8 C-2 7 -2 7 -2.1875 4.5625 C-2 2 -2 2 0 0 Z " fill="#E4E4E4" transform="translate(89,84)"/>
<path d="M0 0 C0.09765625 6.15234375 0.09765625 6.15234375 0 8 C-1 9 -1 9 -2.84765625 9.09765625 C-4.8984375 9.06510417 -6.94921875 9.03255208 -9 9 C-9 8.67 -9 8.34 -9 8 C-5.535 7.505 -5.535 7.505 -2 7 C-2.33 6.34 -2.66 5.68 -3 5 C-4.32 5.33 -5.64 5.66 -7 6 C-7 4.35 -7 2.7 -7 1 C-4.50935112 0.31292445 -2.62113708 0 0 0 Z " fill="#828284" transform="translate(71,66)"/>
<path d="M0 0 C1.32 0 2.64 0 4 0 C4 3.63 4 7.26 4 11 C2.68 11 1.36 11 0 11 C0 7.37 0 3.74 0 0 Z " fill="#78787A" transform="translate(92,64)"/>
<path d="M0 0 C2.875 0.75 2.875 0.75 3.875 1.75 C4 5.25 4 5.25 3.875 8.75 C2.875 9.75 2.875 9.75 -0.5625 9.9375 C-4.125 9.75 -4.125 9.75 -6.125 7.75 C-6.4883156 4.91613833 -6.4818671 3.34477849 -5 0.875 C-3.125 -0.25 -3.125 -0.25 0 0 Z M-2.125 0.75 C-4.41228734 2.58883881 -4.41228734 2.58883881 -4.25 5.375 C-4.20875 6.15875 -4.1675 6.9425 -4.125 7.75 C-1.72780568 8.42958603 -1.72780568 8.42958603 0.875 8.75 C1.535 8.09 2.195 7.43 2.875 6.75 C2.55458603 4.14719432 2.55458603 4.14719432 1.875 1.75 C-0.01679203 1.0685177 -0.01679203 1.0685177 -2.125 0.75 Z " fill="#989898" transform="translate(91.125,83.25)"/>
<path d="M0 0 C2 2 2 2 2.1953125 4.1640625 C2.17210938 4.97617188 2.14890625 5.78828125 2.125 6.625 C2.10695313 7.44226563 2.08890625 8.25953125 2.0703125 9.1015625 C2.03550781 10.04128906 2.03550781 10.04128906 2 11 C0.68 11 -0.64 11 -2 11 C-2 8.36 -2 5.72 -2 3 C-2.99 2.67 -3.98 2.34 -5 2 C-3.35 2 -1.7 2 0 2 C0 1.34 0 0.68 0 0 Z " fill="#868688" transform="translate(81,64)"/>
<path d="M0 0 C1.47906892 -0.02689216 2.95827483 -0.04634621 4.4375 -0.0625 C5.26121094 -0.07410156 6.08492187 -0.08570312 6.93359375 -0.09765625 C9 0 9 0 10 1 C10.14115161 3.67058851 10.04247107 6.32432238 10 9 C10.66 9.33 11.32 9.66 12 10 C11.01 10 10.02 10 9 10 C9 7.36 9 4.72 9 2 C7.02 2.33 5.04 2.66 3 3 C3 5.31 3 7.62 3 10 C2.34 9.67 1.68 9.34 1 9 C1.33 6.69 1.66 4.38 2 2 C1.34 2 0.68 2 0 2 C0 1.34 0 0.68 0 0 Z " fill="#939393" transform="translate(146,83)"/>
<path d="M0 0 C2.97 0.495 2.97 0.495 6 1 C6 2.98 6 4.96 6 7 C4.02 7 2.04 7 0 7 C0 4.69 0 2.38 0 0 Z " fill="#C22D33" transform="translate(18,52)"/>
<path d="M0 0 C0.33 2.97 0.66 5.94 1 9 C0.34 9 -0.32 9 -1 9 C-1 6.36 -1 3.72 -1 1 C-2.65 1.66 -4.3 2.32 -6 3 C-6 4.98 -6 6.96 -6 9 C-6.99 8.67 -7.98 8.34 -9 8 C-9 5.36 -9 2.72 -9 0 C-5.67465243 -1.10844919 -3.37817425 -0.84454356 0 0 Z " fill="#919191" transform="translate(61,84)"/>
<path d="M0 0 C1.98 0.495 1.98 0.495 4 1 C4 1.66 4 2.32 4 3 C4.99 3.33 5.98 3.66 7 4 C6.67 5.32 6.34 6.64 6 8 C6 7.34 6 6.68 6 6 C4.02 6.33 2.04 6.66 0 7 C-0.93423645 3.98968256 -1.04449911 3.13349732 0 0 Z " fill="#BABABC" transform="translate(101,66)"/>
<path d="M0 0 C2.625 0.375 2.625 0.375 5 1 C4.25 6.75 4.25 6.75 2 9 C1.01 9 0.02 9 -1 9 C-0.67 7.35 -0.34 5.7 0 4 C0.99 4 1.98 4 3 4 C3 3.34 3 2.68 3 2 C1.35 2 -0.3 2 -2 2 C-1.34 1.34 -0.68 0.68 0 0 Z " fill="#BABABA" transform="translate(133,83)"/>
<path d="M0 0 C1.32 0 2.64 0 4 0 C3.67 2.97 3.34 5.94 3 9 C2.34 9 1.68 9 1 9 C-1.09230769 4.56923077 -1.09230769 4.56923077 -0.625 1.6875 C-0.41875 1.130625 -0.2125 0.57375 0 0 Z " fill="#614262" transform="translate(27,58)"/>
<path d="M0 0 C2.64 0 5.28 0 8 0 C8.33 0.66 8.66 1.32 9 2 C8.01 2 7.02 2 6 2 C6 2.66 6 3.32 6 4 C3.36 4 0.72 4 -2 4 C-1.34 2.68 -0.68 1.36 0 0 Z " fill="#48B2AA" transform="translate(20,48)"/>
<path d="M0 0 C0.763125 0.20625 1.52625 0.4125 2.3125 0.625 C1.9825 1.285 1.6525 1.945 1.3125 2.625 C-1.25 3.25 -1.25 3.25 -3.6875 3.625 C-3.3575 4.945 -3.0275 6.265 -2.6875 7.625 C-1.0375 7.955 0.6125 8.285 2.3125 8.625 C2.3125 8.955 2.3125 9.285 2.3125 9.625 C-0.02044775 9.66741723 -2.35452567 9.66592937 -4.6875 9.625 C-5.6875 8.625 -5.6875 8.625 -5.9375 5.1875 C-5.855 4.011875 -5.7725 2.83625 -5.6875 1.625 C-2.6875 -0.375 -2.6875 -0.375 0 0 Z " fill="#979797" transform="translate(102.6875,83.375)"/>
<path d="M0 0 C0 0.66 0 1.32 0 2 C-2.31 1.67 -4.62 1.34 -7 1 C-3.375 -1.125 -3.375 -1.125 0 0 Z M-8 2 C-7.01 2 -6.02 2 -5 2 C-5 2.99 -5 3.98 -5 5 C-4.34 5 -3.68 5 -3 5 C-3 5.66 -3 6.32 -3 7 C-4.32 7.33 -5.64 7.66 -7 8 C-7.33 6.02 -7.66 4.04 -8 2 Z " fill="#E9E9EB" transform="translate(128,76)"/>
<path d="M0 0 C0.33 0 0.66 0 1 0 C1.33 1.98 1.66 3.96 2 6 C-4.75 7.125 -4.75 7.125 -7 6 C-6.67 4.35 -6.34 2.7 -6 1 C-5.34 1.33 -4.68 1.66 -4 2 C-4.33 2.99 -4.66 3.98 -5 5 C-3.00016466 4.20882096 -3.00016466 4.20882096 -1 3 C-0.67 2.01 -0.34 1.02 0 0 Z " fill="#989898" transform="translate(137,87)"/>
<path d="M0 0 C1.65 0 3.3 0 5 0 C5.5625 1.9375 5.5625 1.9375 6 4 C5 5 5 5 2.4375 5.0625 C1.2309375 5.0315625 1.2309375 5.0315625 0 5 C0 3.35 0 1.7 0 0 Z " fill="#E2E2E2" transform="translate(72,87)"/>
<path d="M0 0 C0.99 0 1.98 0 3 0 C3 2.31 3 4.62 3 7 C1.68 7 0.36 7 -1 7 C-1.04254356 5.00045254 -1.04080783 2.99958364 -1 1 C-0.67 0.67 -0.34 0.34 0 0 Z " fill="#E3E3E3" transform="translate(50,85)"/>
<path d="M0 0 C0.66 0.33 1.32 0.66 2 1 C2 1.66 2 2.32 2 3 C2.78375 2.649375 3.5675 2.29875 4.375 1.9375 C5.24125 1.628125 6.1075 1.31875 7 1 C7.66 1.33 8.32 1.66 9 2 C9.33 1.34 9.66 0.68 10 0 C10.33 1.32 10.66 2.64 11 4 C7.7 4.33 4.4 4.66 1 5 C0.34 3.68 -0.32 2.36 -1 1 C-0.67 0.67 -0.34 0.34 0 0 Z " fill="#DCDCDC" transform="translate(126,80)"/>
<path d="M0 0 C0.99 0 1.98 0 3 0 C3 2.97 3 5.94 3 9 C2.01 9 1.02 9 0 9 C0 6.03 0 3.06 0 0 Z " fill="#E6E6E8" transform="translate(76,67)"/>
<path d="M0 0 C0.99 0.33 1.98 0.66 3 1 C1.75023244 4.65316671 1.32901247 5.78065836 -2 8 C-4.6875 8.125 -4.6875 8.125 -7 8 C-7.33 7.34 -7.66 6.68 -8 6 C-4.535 5.505 -4.535 5.505 -1 5 C-0.67 3.35 -0.34 1.7 0 0 Z " fill="#C2EBF1" transform="translate(40,61)"/>
<path d="M0 0 C0.33 0 0.66 0 1 0 C1 2.64 1 5.28 1 8 C3.64 8 6.28 8 9 8 C9 8.66 9 9.32 9 10 C5.37 10 1.74 10 -2 10 C-2 9.34 -2 8.68 -2 8 C-1.34 8 -0.68 8 0 8 C0 5.36 0 2.72 0 0 Z " fill="#ABABAB" transform="translate(47,84)"/>
<path d="M0 0 C0.33 0 0.66 0 1 0 C1 2.64 1 5.28 1 8 C3.64 8 6.28 8 9 8 C6.01353231 9.99097846 3.40312738 10.94124926 0 12 C0 8.04 0 4.08 0 0 Z " fill="#8FB377" transform="translate(15,63)"/>
<path d="M0 0 C2.31 0.33 4.62 0.66 7 1 C5.875 2.5625 5.875 2.5625 4 4 C0.8125 3.6875 0.8125 3.6875 -2 3 C-1.34 2.01 -0.68 1.02 0 0 Z " fill="#064CA3" transform="translate(21,73)"/>
<path d="M0 0 C0.33 0.99 0.66 1.98 1 3 C0.34 3 -0.32 3 -1 3 C-1.33 4.98 -1.66 6.96 -2 9 C-4 7 -4 7 -4.125 4.375 C-4.08375 3.59125 -4.0425 2.8075 -4 2 C-2.68 1.34 -1.36 0.68 0 0 Z M-5 9 C-3 10 -3 10 -3 10 Z " fill="#E0DED7" transform="translate(45,61)"/>
<path d="M0 0 C3.63 0 7.26 0 11 0 C11.33 1.98 11.66 3.96 12 6 C11.01 6.495 11.01 6.495 10 7 C9.34 5.02 8.68 3.04 8 1 C5.36 1 2.72 1 0 1 C0 0.67 0 0.34 0 0 Z " fill="#F3D7B0" transform="translate(30,51)"/>
<path d="M0 0 C1.98 0 3.96 0 6 0 C2.55384615 4.8 2.55384615 4.8 -0.25 5.8125 C-1.11625 5.9053125 -1.11625 5.9053125 -2 6 C-2 4.68 -2 3.36 -2 2 C-1.34 2 -0.68 2 0 2 C0 1.34 0 0.68 0 0 Z " fill="#D9D9DB" transform="translate(119,75)"/>
<path d="M0 0 C3.3 0 6.6 0 10 0 C9.67 0.99 9.34 1.98 9 3 C2.25 3.125 2.25 3.125 0 2 C0 1.34 0 0.68 0 0 Z " fill="#7C7C7E" transform="translate(97,72)"/>
<path d="M0 0 C3.0625 0.125 3.0625 0.125 5.0625 1.125 C5.0625 1.785 5.0625 2.445 5.0625 3.125 C4.0725 3.125 3.0825 3.125 2.0625 3.125 C1.7325 3.785 1.4025 4.445 1.0625 5.125 C0.7325 4.465 0.4025 3.805 0.0625 3.125 C-1.95419827 1.99149466 -1.95419827 1.99149466 -3.9375 1.125 C-2.9375 0.125 -2.9375 0.125 0 0 Z " fill="#79797B" transform="translate(122.9375,67.875)"/>
<path d="M0 0 C1.98 0 3.96 0 6 0 C6 0.66 6 1.32 6 2 C5.34 2 4.68 2 4 2 C4 2.66 4 3.32 4 4 C2.68 4.33 1.36 4.66 0 5 C0 3.35 0 1.7 0 0 Z " fill="#D8E8F6" transform="translate(42,50)"/>
<path d="M0 0 C0.66 0.33 1.32 0.66 2 1 C2.1875 3.375 2.1875 3.375 2 6 C1.01 6.66 0.02 7.32 -1 8 C-2 7 -2 7 -2.1875 4.5625 C-2 2 -2 2 0 0 Z " fill="#DEDEDE" transform="translate(89,84)"/>
<path d="M0 0 C0.66 0 1.32 0 2 0 C2 1.98 2 3.96 2 6 C0.68 6 -0.64 6 -2 6 C-1.125 1.125 -1.125 1.125 0 0 Z " fill="#E7E7E7" transform="translate(140,86)"/>
<path d="M0 0 C1.32 0 2.64 0 4 0 C4 0.66 4 1.32 4 2 C4.66 2 5.32 2 6 2 C6 2.99 6 3.98 6 5 C4.35 4.67 2.7 4.34 1 4 C0.67 2.68 0.34 1.36 0 0 Z " fill="#E7E7E7" transform="translate(100,85)"/>
<path d="M0 0 C2.31 0 4.62 0 7 0 C7.33 0.66 7.66 1.32 8 2 C7.34 2 6.68 2 6 2 C5.67 2.66 5.34 3.32 5 4 C3.02 3.34 1.04 2.68 -1 2 C-0.67 1.34 -0.34 0.68 0 0 Z " fill="#7C7C7E" transform="translate(62,64)"/>
<path d="M0 0 C1.65 0 3.3 0 5 0 C5 1.32 5 2.64 5 4 C5.99 3.67 6.98 3.34 8 3 C8 3.66 8 4.32 8 5 C7.01 5 6.02 5 5 5 C4.67 5.66 4.34 6.32 4 7 C4 6.34 4 5.68 4 5 C3.34 5 2.68 5 2 5 C2 4.34 2 3.68 2 3 C2.66 3 3.32 3 4 3 C4 2.34 4 1.68 4 1 C2.35 1.33 0.7 1.66 -1 2 C-0.67 1.34 -0.34 0.68 0 0 Z " fill="#C2C3C4" transform="translate(47,59)"/>
<path d="M0 0 C2 1 2 1 4 3 C6.58354218 3.16687448 6.58354218 3.16687448 9 3 C8.67 3.66 8.34 4.32 8 5 C5.36 5 2.72 5 0 5 C0 3.35 0 1.7 0 0 Z " fill="#C4C4C4" transform="translate(114,89)"/>
<path d="M0 0 C1.65 0 3.3 0 5 0 C5 1.32 5 2.64 5 4 C3.35 4 1.7 4 0 4 C0 2.68 0 1.36 0 0 Z " fill="#E7E7E7" transform="translate(72,81)"/>
<path d="M0 0 C0.33 0.66 0.66 1.32 1 2 C3.01669827 3.13350534 3.01669827 3.13350534 5 4 C4.67 4.99 4.34 5.98 4 7 C2.02 6.34 0.04 5.68 -2 5 C-1.34 4.67 -0.68 4.34 0 4 C0 2.68 0 1.36 0 0 Z " fill="#EAEAEA" transform="translate(92,77)"/>
<path d="M0 0 C2.475 0.99 2.475 0.99 5 2 C5 2.99 5 3.98 5 5 C3.35 5 1.7 5 0 5 C0 3.35 0 1.7 0 0 Z " fill="#747476" transform="translate(86,70)"/>
<path d="M0 0 C0.99 1.485 0.99 1.485 2 3 C4.55183404 4.20450304 4.55183404 4.20450304 7 5 C7 5.66 7 6.32 7 7 C6.01 7 5.02 7 4 7 C4 6.34 4 5.68 4 5 C3.01 5 2.02 5 1 5 C0.67 5.66 0.34 6.32 0 7 C0 4.69 0 2.38 0 0 Z " fill="#CECED0" transform="translate(117,66)"/>
<path d="M0 0 C1.98 0.66 3.96 1.32 6 2 C6 2.99 6 3.98 6 5 C4.02 4.34 2.04 3.68 0 3 C0 2.01 0 1.02 0 0 Z " fill="#E8D023" transform="translate(26,68)"/>
<path d="M0 0 C1.32 0.33 2.64 0.66 4 1 C3.67 2.32 3.34 3.64 3 5 C2.01 5 1.02 5 0 5 C0 3.35 0 1.7 0 0 Z " fill="#E0E0E2" transform="translate(64,67)"/>
<path d="M0 0 C0.99 0.33 1.98 0.66 3 1 C3 3.31 3 5.62 3 8 C2.34 7.67 1.68 7.34 1 7 C1 5.35 1 3.7 1 2 C0.34 1.67 -0.32 1.34 -1 1 C-0.67 0.67 -0.34 0.34 0 0 Z " fill="#A5A5A5" transform="translate(107,79)"/>
<path d="M0 0 C0.33 0 0.66 0 1 0 C1 2.31 1 4.62 1 7 C0.01 7 -0.98 7 -2 7 C-2 5.35 -2 3.7 -2 2 C-1.34 2 -0.68 2 0 2 C0 1.34 0 0.68 0 0 Z " fill="#6E6E70" transform="translate(82,68)"/>
<path d="M0 0 C1.32 0.99 2.64 1.98 4 3 C3.34 3 2.68 3 2 3 C2 3.99 2 4.98 2 6 C1.01 5.67 0.02 5.34 -1 5 C-0.67 3.35 -0.34 1.7 0 0 Z " fill="#68686A" transform="translate(98,67)"/>
<path d="M0 0 C2.15377564 2.62198774 3.40072174 4.64404172 4 8 C2.35 8 0.7 8 -1 8 C-0.34 7.67 0.32 7.34 1 7 C0.67 4.69 0.34 2.38 0 0 Z " fill="#D19848" transform="translate(37,52)"/>
<path d="M0 0 C0.99 0 1.98 0 3 0 C2.67 2.31 2.34 4.62 2 7 C1.34 7 0.68 7 0 7 C-1.125 2.25 -1.125 2.25 0 0 Z " fill="#217F58" transform="translate(26,50)"/>
<path d="M0 0 C1.32 0 2.64 0 4 0 C4 0.66 4 1.32 4 2 C5.65 2 7.3 2 9 2 C9 2.33 9 2.66 9 3 C2.9453125 3.1953125 2.9453125 3.1953125 1 3 C0.34 2.34 -0.32 1.68 -1 1 C-0.67 0.67 -0.34 0.34 0 0 Z " fill="#EDE3D8" transform="translate(31,48)"/>
</svg>
