<?xml version="1.0" encoding="UTF-8"?>
<svg version="1.1" xmlns="http://www.w3.org/2000/svg" width="250" height="76">
<path d="M0 0 C14.85 0 29.7 0 45 0 C45 14.85 45 29.7 45 45 C30.15 45 15.3 45 0 45 C0 30.15 0 15.3 0 0 Z M2 2 C2 15.53 2 29.06 2 43 C15.53 43 29.06 43 43 43 C43 29.47 43 15.94 43 2 C29.47 2 15.94 2 2 2 Z " fill="#FFFFFF" transform="translate(19,16)"/>
<path d="M0 0 C0.99 0.99 1.98 1.98 3 3 C3.33 2.67 3.66 2.34 4 2 C5.85287502 1.92773498 7.70833878 1.9161878 9.5625 1.9375 C10.57441406 1.94652344 11.58632812 1.95554688 12.62890625 1.96484375 C13.80259766 1.98224609 13.80259766 1.98224609 15 2 C15 1.34 15 0.68 15 0 C16.65 0 18.3 0 20 0 C20.33 0.66 20.66 1.32 21 2 C26.4389165 2.21755666 30.87080814 2.10428384 36 0 C36.495 0.99 36.495 0.99 37 2 C41.95 2 46.9 2 52 2 C52 3.65 52 5.3 52 7 C47.65567901 7.99298765 43.87900112 8.42277525 39.5 7.4375 C36.69129869 6.94597727 34.74918304 7.3312798 32 8 C25.33333333 8 18.66666667 8 12 8 C12 8.66 12 9.32 12 10 C11.34 10 10.68 10 10 10 C9.67 9.01 9.34 8.02 9 7 C8.01 7.33 7.02 7.66 6 8 C6 8.66 6 9.32 6 10 C5.34 10 4.68 10 4 10 C4 9.34 4 8.68 4 8 C3.34 8 2.68 8 2 8 C2 7.34 2 6.68 2 6 C1.01 6 0.02 6 -1 6 C-1 6.66 -1 7.32 -1 8 C-1.66 8 -2.32 8 -3 8 C-2.45276317 4.62537285 -1.9451 2.91765 0 0 Z M6 4 C6.33 4.66 6.66 5.32 7 6 C7.33 5.34 7.66 4.68 8 4 C7.34 4 6.68 4 6 4 Z M12 4 C12.33 4.66 12.66 5.32 13 6 C13.33 5.34 13.66 4.68 14 4 C13.34 4 12.68 4 12 4 Z M22 4 C22 4.66 22 5.32 22 6 C22.99 5.67 23.98 5.34 25 5 C24.01 4.67 23.02 4.34 22 4 Z M33 4 C34 6 34 6 34 6 Z M38 4 C38 4.66 38 5.32 38 6 C38.66 6 39.32 6 40 6 C40 5.34 40 4.68 40 4 C39.34 4 38.68 4 38 4 Z " fill="#FFFFFF" transform="translate(180,53)"/>
<path d="M0 0 C0.66 0 1.32 0 2 0 C2.495 1.485 2.495 1.485 3 3 C4.051875 2.7215625 4.051875 2.7215625 5.125 2.4375 C8.34208401 1.94794374 10.81385148 2.44588721 14 3 C14.99 2.67 15.98 2.34 17 2 C17.66 2.33 18.32 2.66 19 3 C19 2.34 19 1.68 19 1 C19.66 1 20.32 1 21 1 C21 3.31 21 5.62 21 8 C18.03 8 15.06 8 12 8 C12 7.01 12 6.02 12 5 C11.34 5 10.68 5 10 5 C10 5.99 10 6.98 10 8 C3.07 8 -3.86 8 -11 8 C-11.33 7.01 -11.66 6.02 -12 5 C-12.33 5.99 -12.66 6.98 -13 8 C-19.6 8 -26.2 8 -33 8 C-33 6.02 -33 4.04 -33 2 C-31.824375 2.0309375 -31.824375 2.0309375 -30.625 2.0625 C-28.01885039 2.18684063 -28.01885039 2.18684063 -26 1 C-24.906875 1.33 -23.81375 1.66 -22.6875 2 C-18.86043652 3.03784772 -17.71178648 2.86320616 -14 2 C-11.39866167 1.95870892 -8.80783184 2.00011198 -6.20703125 2.0625 C-3.95660804 2.15401886 -3.95660804 2.15401886 -2 1 C-1.34 1.33 -0.68 1.66 0 2 C0 1.34 0 0.68 0 0 Z M-25 4 C-24 6 -24 6 -24 6 Z M-1 4 C0 6 0 6 0 6 Z M5 4 C4.67 4.66 4.34 5.32 4 6 C4.66 6 5.32 6 6 6 C5.67 5.34 5.34 4.68 5 4 Z " fill="#FFFFFF" transform="translate(112,41)"/>
<path d="M0 0 C12.69515012 -0.27598152 12.69515012 -0.27598152 16 2 C16.99367708 5.14664407 17 7.66598626 17 11 C17.061875 12.03125 17.12375 13.0625 17.1875 14.125 C17.0946875 15.548125 17.0946875 15.548125 17 17 C13.2632157 19.49118953 11.25548181 19.2065226 6.8125 19.125 C4.564375 19.08375 2.31625 19.0425 0 19 C0 12.73 0 6.46 0 0 Z M5 4 C5.33 5.32 5.66 6.64 6 8 C7.65 7.67 9.3 7.34 11 7 C10.67 6.01 10.34 5.02 10 4 C8.35 4 6.7 4 5 4 Z M5 12 C5 12.99 5 13.98 5 15 C7.31 15 9.62 15 12 15 C12 14.01 12 13.02 12 12 C9.69 12 7.38 12 5 12 Z " fill="#FFFFFF" transform="translate(147,16)"/>
<path d="M0 0 C5.625 1.125 5.625 1.125 8.3125 4.5625 C8.82425781 5.20316406 9.33601563 5.84382813 9.86328125 6.50390625 C10.23839844 6.99761719 10.61351563 7.49132812 11 8 C11.33 5.36 11.66 2.72 12 0 C13.98 0 15.96 0 18 0 C18 6.27 18 12.54 18 19 C13 19 13 19 10.98046875 17.25 C10.09294922 16.13625 10.09294922 16.13625 9.1875 15 C8.58292969 14.2575 7.97835937 13.515 7.35546875 12.75 C6.90816406 12.1725 6.46085937 11.595 6 11 C5.67 13.64 5.34 16.28 5 19 C3.35 19 1.7 19 0 19 C0 12.73 0 6.46 0 0 Z " fill="#FFFFFF" transform="translate(86,16)"/>
<path d="M0 0 C0.66 0 1.32 0 2 0 C2.33 0.66 2.66 1.32 3 2 C3.94875 1.814375 4.8975 1.62875 5.875 1.4375 C9 1 9 1 11 2 C11 1.34 11 0.68 11 0 C11.66 0 12.32 0 13 0 C13.495 1.485 13.495 1.485 14 3 C15.051875 2.7215625 15.051875 2.7215625 16.125 2.4375 C19.33888698 1.94843024 21.83560336 2.33768442 25 3 C25 4.65 25 6.3 25 8 C24.34 8 23.68 8 23 8 C22.505 6.515 22.505 6.515 22 5 C21.67 5.99 21.34 6.98 21 8 C5.16 8 -10.68 8 -27 8 C-25 3 -25 3 -24 1 C-23.13375 1.5259375 -23.13375 1.5259375 -22.25 2.0625 C-19.54959652 3.18766812 -18.73348774 2.82832962 -16 2 C-13.32736679 1.86294189 -11.11524964 1.97406883 -8.5 2.5625 C-5.66728922 3.05822439 -3.741014 2.83753205 -1 2 C-0.67 1.34 -0.34 0.68 0 0 Z M-9 4 C-9 4.66 -9 5.32 -9 6 C-8.34 5.67 -7.68 5.34 -7 5 C-7.66 4.67 -8.32 4.34 -9 4 Z M-3 4 C-3.33 4.66 -3.66 5.32 -4 6 C-2.68 5.67 -1.36 5.34 0 5 C-0.99 4.67 -1.98 4.34 -3 4 Z M10 4 C11 6 11 6 11 6 Z M16 4 C15.67 4.66 15.34 5.32 15 6 C15.66 6 16.32 6 17 6 C16.67 5.34 16.34 4.68 16 4 Z " fill="#FFFFFF" transform="translate(162,41)"/>
<path d="M0 0 C0.78375 0.165 1.5675 0.33 2.375 0.5 C5.09522679 1.23945377 5.09522679 1.23945377 8 0 C8.33 0.66 8.66 1.32 9 2 C11.97 2 14.94 2 18 2 C18 1.34 18 0.68 18 0 C18.99 0 19.98 0 21 0 C21.33 0.66 21.66 1.32 22 2 C24.31 2 26.62 2 29 2 C29 1.34 29 0.68 29 0 C29.66 0 30.32 0 31 0 C31 0.66 31 1.32 31 2 C33.64 2 36.28 2 39 2 C39 3.98 39 5.96 39 8 C25.66666667 8 12.33333333 8 -1 8 C-1.04241723 5.66705225 -1.04092937 3.33297433 -1 1 C-0.67 0.67 -0.34 0.34 0 0 Z M10 4 C10.33 4.66 10.66 5.32 11 6 C11.33 5.34 11.66 4.68 12 4 C11.34 4 10.68 4 10 4 Z M15 4 C15.66 4.66 16.32 5.32 17 6 C17.33 5.34 17.66 4.68 18 4 C17.01 4 16.02 4 15 4 Z M25 4 C25.66 4.66 26.32 5.32 27 6 C27.66 5.34 28.32 4.68 29 4 C27.68 4 26.36 4 25 4 Z " fill="#FFFFFF" transform="translate(127,53)"/>
<path d="M0 0 C1.65 0 3.3 0 5 0 C6.14973839 2.581658 7.29490359 5.16518307 8.4375 7.75 C8.76298828 8.47960938 9.08847656 9.20921875 9.42382812 9.9609375 C9.73642578 10.66992188 10.04902344 11.37890625 10.37109375 12.109375 C10.65911865 12.75874023 10.94714355 13.40810547 11.24389648 14.07714844 C12.01208157 16.03072471 12.53642793 17.95471205 13 20 C10.0625 19.625 10.0625 19.625 7 19 C6.67 18.34 6.34 17.68 6 17 C3.36 17 0.72 17 -2 17 C-2.33 17.66 -2.66 18.32 -3 19 C-6.0625 19.625 -6.0625 19.625 -9 20 C-7.55676531 15.26210835 -5.62773267 11.01141849 -3.375 6.625 C-2.88773438 5.66400391 -2.88773438 5.66400391 -2.390625 4.68359375 C-1.59742593 3.12052499 -0.79922969 1.55999378 0 0 Z M2 7 C1.34 8.32 0.68 9.64 0 11 C1.32 10.67 2.64 10.34 4 10 C3.34 9.01 2.68 8.02 2 7 Z " fill="#FFFFFF" transform="translate(174,16)"/>
<path d="M0 0 C1.2065625 0.0309375 1.2065625 0.0309375 2.4375 0.0625 C3.80771794 2.82567623 5.15580176 5.59908478 6.5 8.375 C6.88994141 9.16068359 7.27988281 9.94636719 7.68164062 10.75585938 C8.04580078 11.51318359 8.40996094 12.27050781 8.78515625 13.05078125 C9.12554932 13.74727783 9.46594238 14.44377441 9.81665039 15.16137695 C10.4375 17.0625 10.4375 17.0625 9.4375 20.0625 C7.7875 19.7325 6.1375 19.4025 4.4375 19.0625 C4.4375 18.0725 4.4375 17.0825 4.4375 16.0625 C1.4675 16.0625 -1.5025 16.0625 -4.5625 16.0625 C-4.8925 17.0525 -5.2225 18.0425 -5.5625 19.0625 C-7.2125 19.3925 -8.8625 19.7225 -10.5625 20.0625 C-9.8941356 15.68471316 -8.33339558 11.83878147 -6.5625 7.8125 C-6.28921875 7.17570312 -6.0159375 6.53890625 -5.734375 5.8828125 C-3.21501954 0.07841511 -3.21501954 0.07841511 0 0 Z M-0.5625 6.0625 C-1.2225 7.7125 -1.8825 9.3625 -2.5625 11.0625 C-1.2425 11.0625 0.0775 11.0625 1.4375 11.0625 C1.1075 9.4125 0.7775 7.7625 0.4375 6.0625 C0.1075 6.0625 -0.2225 6.0625 -0.5625 6.0625 Z " fill="#FFFFFF" transform="translate(116.5625,15.9375)"/>
<path d="M0 0 C1.98 0 3.96 0 6 0 C6 0.66 6 1.32 6 2 C11.1562896 2.10312579 15.90354622 1.87012625 21 1 C21.66 1.33 22.32 1.66 23 2 C24.37342831 2.0689472 25.75002102 2.08467708 27.125 2.0625 C29.043125 2.0315625 29.043125 2.0315625 31 2 C31 1.34 31 0.68 31 0 C31.99 0 32.98 0 34 0 C34 2.64 34 5.28 34 8 C26 8 18 8 10 8 C9.67 6.68 9.34 5.36 9 4 C8.67 5.32 8.34 6.64 8 8 C6.02 8 4.04 8 2 8 C2 6.35 2 4.7 2 3 C1.34 3 0.68 3 0 3 C0 2.01 0 1.02 0 0 Z M21 4 C22 6 22 6 22 6 Z M30 4 C31 6 31 6 31 6 Z " fill="#FFFFFF" transform="translate(90,53)"/>
<path d="M0 0 C5.61 0 11.22 0 17 0 C17 1.65 17 3.3 17 5 C15.02 5 13.04 5 11 5 C11 9.62 11 14.24 11 19 C9.35 19 7.7 19 6 19 C6 14.38 6 9.76 6 5 C4.02 5 2.04 5 0 5 C0 3.35 0 1.7 0 0 Z " fill="#FFFFFF" transform="translate(127,16)"/>
<path d="M0 0 C1.65 0 3.3 0 5 0 C5 6.27 5 12.54 5 19 C3.35 19 1.7 19 0 19 C0 12.73 0 6.46 0 0 Z " fill="#FFFFFF" transform="translate(76,16)"/>
<path d="M0 0 C0.99 0 1.98 0 3 0 C3 0.66 3 1.32 3 2 C4.1446875 1.7215625 4.1446875 1.7215625 5.3125 1.4375 C8 1 8 1 11 2 C10.67 3.98 10.34 5.96 10 8 C6.33333333 8 2.66666667 8 -1 8 C-1.625 5.125 -1.625 5.125 -2 2 C-1.34 1.34 -0.68 0.68 0 0 Z M4 4 C4.33 4.66 4.66 5.32 5 6 C5.33 5.34 5.66 4.68 6 4 C5.34 4 4.68 4 4 4 Z " fill="#FFFFFF" transform="translate(77,53)"/>
<path d="M0 0 C0.66 0 1.32 0 2 0 C2 0.66 2 1.32 2 2 C2.804375 1.979375 3.60875 1.95875 4.4375 1.9375 C7 2 7 2 8 3 C8.04063832 4.66617115 8.042721 6.33388095 8 8 C7.34 8 6.68 8 6 8 C6 6.68 6 5.36 6 4 C5.34 4 4.68 4 4 4 C4 5.32 4 6.64 4 8 C2.68 8 1.36 8 0 8 C0 5.36 0 2.72 0 0 Z " fill="#FFFFFF" transform="translate(167,53)"/>
<path d="M0 0 C2.31 0.33 4.62 0.66 7 1 C7 2.98 7 4.96 7 7 C4.69 7 2.38 7 0 7 C0 4.69 0 2.38 0 0 Z " fill="#FFFFFF" transform="translate(38,20)"/>
<path d="M0 0 C1.65 0 3.3 0 5 0 C5 1.65 5 3.3 5 5 C3.35 5.33 1.7 5.66 0 6 C0 4.02 0 2.04 0 0 Z " fill="#FFFFFF" transform="translate(25,49)"/>
<path d="M0 0 C1.65 0 3.3 0 5 0 C5.33 0.99 5.66 1.98 6 3 C5.34 3 4.68 3 4 3 C4 4.32 4 5.64 4 7 C3.01 7 2.02 7 1 7 C1 6.01 1 5.02 1 4 C0.34 3.67 -0.32 3.34 -1 3 C-0.67 2.01 -0.34 1.02 0 0 Z " fill="#FFFFFF" transform="translate(53,34)"/>
<path d="M0 0 C2.50037734 2.17424117 3.43628586 3.73045798 4 7 C1.69 7 -0.62 7 -3 7 C-1.125 1.125 -1.125 1.125 0 0 Z " fill="#FFFFFF" transform="translate(41,49)"/>
<path d="M0 0 C0.99 0 1.98 0 3 0 C3.66 1.98 4.32 3.96 5 6 C2.69 6 0.38 6 -2 6 C-1.34 4.02 -0.68 2.04 0 0 Z " fill="#FFFFFF" transform="translate(40,35)"/>
<path d="M0 0 C2.86697492 1.28519565 4.97607712 2.57129254 7 5 C7 5.66 7 6.32 7 7 C4.13302508 5.71480435 2.02392288 4.42870746 0 2 C0 1.34 0 0.68 0 0 Z " fill="#FFFFFF" transform="translate(52,49)"/>
<path d="M0 0 C2.97 0 5.94 0 9 0 C9 0.66 9 1.32 9 2 C6.03 2 3.06 2 0 2 C0 1.34 0 0.68 0 0 Z " fill="#FFFFFF" transform="translate(23,37)"/>
<path d="M0 0 C0.99 0 1.98 0 3 0 C3 1.98 3 3.96 3 6 C2.01 6 1.02 6 0 6 C0 4.02 0 2.04 0 0 Z " fill="#FFFFFF" transform="translate(26,21)"/>
<path d="M0 0 C0.33 0.99 0.66 1.98 1 3 C-3.75 7 -3.75 7 -6 7 C-6 6.34 -6 5.68 -6 5 C-4.04072937 3.2856382 -2.04119788 1.61594832 0 0 Z " fill="#FFFFFF" transform="translate(58,20)"/>
<path d="M0 0 C0.66 0 1.32 0 2 0 C2 2.31 2 4.62 2 7 C1.34 7 0.68 7 0 7 C0 4.69 0 2.38 0 0 Z " fill="#FFFFFF" transform="translate(76,42)"/>
</svg>
