<svg version="1.1" id="Layer_1" xmlns="http://www.w3.org/2000/svg" xmlns:xlink="http://www.w3.org/1999/xlink" x="0px" y="0px"
	 width="100%" viewBox="0 0 400 400" enable-background="new 0 0 400 400" xml:space="preserve">
<path fill="#174082" opacity="1.000000" stroke="none" 
	d="
M219.000000,401.000000 
	C146.022659,401.000000 73.545303,401.000000 1.033979,401.000000 
	C1.033979,267.730988 1.033979,134.461960 1.033979,1.096468 
	C134.227310,1.096468 267.454712,1.096468 400.841064,1.096468 
	C400.841064,134.333176 400.841064,267.666565 400.841064,401.000000 
	C340.462036,401.000000 279.981018,401.000000 219.000000,401.000000 
M185.947540,336.944855 
	C185.947540,336.944855 185.874191,336.952057 186.314011,336.536407 
	C186.503510,335.974579 186.693008,335.412720 186.938492,334.936859 
	C186.938492,334.936859 186.846039,334.892395 187.705505,334.885712 
	C188.685776,334.704132 189.665939,334.366150 190.646332,334.365540 
	C198.966385,334.360199 207.562469,331.962799 215.801727,337.560516 
	C218.359283,338.359467 220.916840,339.158417 223.474396,339.957367 
	C223.763916,339.471069 224.053436,338.984741 224.342972,338.498444 
	C218.038208,325.029114 211.817642,311.518829 205.311279,298.147583 
	C204.582077,296.649078 202.176956,295.011261 200.650467,295.104218 
	C198.858643,295.213287 196.372757,296.745361 195.578659,298.348999 
	C190.209076,309.192413 185.199600,320.214447 180.093002,331.187683 
	C178.936859,333.672058 177.856934,336.191895 176.070374,340.203217 
	C180.087784,339.218628 182.644684,338.591980 185.499756,337.639069 
	C185.675171,337.400269 185.820908,337.144562 185.947540,336.944855 
M83.794701,100.845947 
	C83.918587,102.295959 84.042473,103.745964 84.223885,105.869308 
	C86.744705,105.531448 88.918655,105.240074 91.531555,104.260109 
	C91.639992,103.946899 91.837517,103.635529 91.844032,103.320213 
	C92.114822,90.210304 92.394600,77.100327 92.539429,63.988876 
	C92.545975,63.396118 91.312668,62.789665 89.918648,62.394081 
	C87.713539,63.010368 84.436272,60.907665 82.926872,65.496414 
	C82.644379,66.258682 82.121307,67.019257 82.115929,67.783470 
	C82.048294,77.391304 82.003319,87.000252 82.110794,96.607147 
	C82.123924,97.780937 83.057693,98.944427 83.794701,100.845947 
M220.155457,67.029846 
	C220.825241,60.973591 216.795776,62.521912 212.858307,62.620453 
	C212.858307,72.713326 212.858307,82.541061 212.858307,93.613724 
	C204.653137,83.568665 197.119888,74.743629 190.092102,65.532928 
	C187.536774,62.183884 184.944443,62.018608 181.393646,62.927700 
	C181.393646,77.104500 181.393646,91.144554 181.393646,105.239326 
	C183.759171,105.239326 185.794525,105.239326 188.446320,105.239326 
	C188.446320,95.199203 188.446320,85.576477 188.446320,74.974976 
	C196.441986,84.762123 203.883606,93.483940 210.837921,102.578369 
	C213.535370,106.105927 216.269943,106.138680 220.156281,104.992699 
	C220.156281,92.523872 220.156281,80.224113 220.155457,67.029846 
M101.987503,315.744781 
	C100.746559,313.882263 99.505608,312.019775 98.270317,310.153809 
	C106.314392,303.174591 102.782280,290.600830 93.328232,289.253296 
	C86.402344,288.266113 79.222610,289.059937 72.277512,289.059937 
	C72.277512,303.636078 72.277512,317.694366 72.277512,331.990723 
	C77.800659,331.990723 82.950760,332.002106 88.100792,331.988342 
	C98.720047,331.959930 103.200996,327.047272 101.987503,315.744781 
M222.114594,215.003448 
	C216.516235,203.002090 211.003906,190.958954 205.220398,179.047501 
	C204.415771,177.390350 202.128036,175.192123 200.788055,175.357758 
	C198.875610,175.594131 196.435593,177.404709 195.554794,179.198074 
	C189.798859,190.917206 184.395615,202.809753 178.900269,214.656357 
	C178.335693,215.873444 177.923706,217.161285 177.435501,218.430374 
	C182.379028,219.679520 185.719803,219.084686 187.170059,214.015610 
	C187.452805,213.027344 189.661270,212.045792 191.012970,212.000519 
	C197.325378,211.789017 203.655411,211.753525 209.963211,212.025040 
	C211.366425,212.085434 213.554123,213.373657 213.926407,214.554871 
	C215.514755,219.594818 219.013718,219.262421 223.273087,218.553192 
	C222.970581,217.439514 222.725052,216.535660 222.114594,215.003448 
M293.498840,178.760239 
	C293.093842,181.805557 293.924622,183.397308 297.496368,183.113434 
	C301.540924,182.791962 305.630646,183.039276 310.154541,183.039276 
	C310.154541,195.494141 310.154541,207.063721 310.154541,218.597275 
	C312.580322,218.597275 314.520355,218.597275 317.213379,218.597275 
	C317.213379,206.670029 317.213379,194.983353 317.213379,182.902313 
	C322.889465,182.902313 327.816528,182.902313 332.787872,182.902313 
	C332.787872,180.258759 332.787872,178.053375 332.787872,175.652176 
	C320.388977,175.652176 308.415649,175.598953 296.444946,175.750687 
	C295.460358,175.763168 294.493439,177.168533 293.498840,178.760239 
M314.798096,311.663086 
	C310.325745,307.215393 305.978455,302.629486 301.306091,298.402893 
	C299.875061,297.108398 296.506104,295.631439 295.822327,296.244202 
	C293.082245,298.699585 296.227264,300.218384 297.693604,301.687927 
	C309.199402,313.218933 320.741333,324.715179 332.412476,336.077942 
	C333.530365,337.166290 336.339386,338.241760 337.103882,337.662109 
	C339.985077,335.477539 336.977203,333.904297 335.706512,332.600342 
	C328.988403,325.706482 322.109436,318.969360 314.798096,311.663086 
M319.177826,75.677811 
	C311.205811,83.666389 303.187103,91.609505 295.317108,99.697350 
	C294.255524,100.788315 293.941895,102.607124 293.281921,104.088913 
	C294.970459,103.636360 297.179230,103.715103 298.267517,102.649506 
	C309.887756,91.271393 321.364929,79.745743 332.752563,68.134247 
	C333.602509,67.267578 333.462311,65.429863 333.782440,64.043556 
	C332.383728,64.486038 330.646027,64.548744 329.647736,65.439827 
	C326.185425,68.530205 322.979980,71.908409 319.177826,75.677811 
M85.500038,195.306915 
	C78.339752,195.303497 71.176422,195.188965 64.021599,195.384995 
	C62.482269,195.427170 60.973663,196.590805 59.450893,197.237854 
	C60.871853,198.043442 62.285595,199.534637 63.714878,199.549683 
	C79.865227,199.719727 96.018425,199.714050 112.169167,199.567947 
	C113.407135,199.556747 114.632256,198.125381 115.863342,197.354111 
	C114.568008,196.672119 113.284508,195.427017 111.975426,195.399551 
	C103.486740,195.221298 94.992485,195.308136 85.500038,195.306915 
z"/>
<path fill="#EDF4F8" opacity="1.000000" stroke="none" 
	d="
M220.155869,67.477097 
	C220.156281,80.224113 220.156281,92.523872 220.156281,104.992699 
	C216.269943,106.138680 213.535370,106.105927 210.837921,102.578369 
	C203.883606,93.483940 196.441986,84.762123 188.446320,74.974976 
	C188.446320,85.576477 188.446320,95.199203 188.446320,105.239326 
	C185.794525,105.239326 183.759171,105.239326 181.393646,105.239326 
	C181.393646,91.144554 181.393646,77.104500 181.393646,62.927700 
	C184.944443,62.018608 187.536774,62.183884 190.092102,65.532928 
	C197.119888,74.743629 204.653137,83.568665 212.858307,93.613724 
	C212.858307,82.541061 212.858307,72.713326 212.858307,62.620453 
	C216.795776,62.521912 220.825241,60.973591 220.155869,67.477097 
z"/>
<path fill="#EFF5F9" opacity="1.000000" stroke="none" 
	d="
M102.129066,316.108948 
	C103.200996,327.047272 98.720047,331.959930 88.100792,331.988342 
	C82.950760,332.002106 77.800659,331.990723 72.277512,331.990723 
	C72.277512,317.694366 72.277512,303.636078 72.277512,289.059937 
	C79.222610,289.059937 86.402344,288.266113 93.328232,289.253296 
	C102.782280,290.600830 106.314392,303.174591 98.267487,310.155518 
	C99.505608,312.019775 100.746559,313.882263 102.129066,316.108948 
M86.393143,307.004303 
	C87.391808,307.004120 88.390472,307.001678 89.389130,307.004120 
	C93.131035,307.013214 95.589409,305.040100 95.741692,301.466766 
	C95.903717,297.664703 93.208008,295.901001 89.560577,295.797180 
	C86.312546,295.704712 83.059807,295.777740 79.682213,295.777740 
	C79.682213,299.931427 79.682213,303.336517 79.682213,307.005005 
	C81.839432,307.005005 83.658676,307.005005 86.393143,307.004303 
M90.001541,313.828583 
	C86.592354,313.828583 83.183159,313.828583 79.763107,313.828583 
	C79.763107,317.778412 79.763107,321.109344 79.763107,324.709930 
	C83.174507,324.709930 86.134445,324.758453 89.092079,324.696686 
	C92.252594,324.630707 95.261192,323.890503 95.728104,320.200012 
	C96.160034,316.786072 94.274796,314.608002 90.001541,313.828583 
z"/>
<path fill="#EEF5F9" opacity="1.000000" stroke="none" 
	d="
M185.201569,337.965332 
	C182.644684,338.591980 180.087784,339.218628 176.070374,340.203217 
	C177.856934,336.191895 178.936859,333.672058 180.093002,331.187683 
	C185.199600,320.214447 190.209076,309.192413 195.578659,298.348999 
	C196.372757,296.745361 198.858643,295.213287 200.650467,295.104218 
	C202.176956,295.011261 204.582077,296.649078 205.311279,298.147583 
	C211.817642,311.518829 218.038208,325.029114 224.342972,338.498444 
	C224.053436,338.984741 223.763916,339.471069 223.474396,339.957367 
	C220.916840,339.158417 218.359283,338.359467 215.475708,336.934387 
	C214.505127,332.721680 212.338943,331.744202 208.817825,331.915131 
	C202.889557,332.202911 196.927429,331.810394 191.001938,332.125397 
	C189.571640,332.201416 188.228989,333.925934 186.846039,334.892395 
	C186.846039,334.892395 186.938492,334.936859 186.638977,335.047424 
	C186.184372,335.756042 186.029282,336.354034 185.874191,336.952057 
	C185.874191,336.952057 185.947540,336.944855 185.713226,337.008850 
	C185.386459,337.370331 185.294006,337.667816 185.201569,337.965332 
M192.313522,323.898376 
	C197.818604,323.898376 203.323685,323.898376 209.441010,323.898376 
	C206.432159,317.470184 203.666748,311.562103 200.454712,304.699829 
	C197.387650,311.432892 194.735855,317.254333 192.313522,323.898376 
z"/>
<path fill="#EDF3F8" opacity="1.000000" stroke="none" 
	d="
M222.297058,215.317627 
	C222.725052,216.535660 222.970581,217.439514 223.273087,218.553192 
	C219.013718,219.262421 215.514755,219.594818 213.926407,214.554871 
	C213.554123,213.373657 211.366425,212.085434 209.963211,212.025040 
	C203.655411,211.753525 197.325378,211.789017 191.012970,212.000519 
	C189.661270,212.045792 187.452805,213.027344 187.170059,214.015610 
	C185.719803,219.084686 182.379028,219.679520 177.435501,218.430374 
	C177.923706,217.161285 178.335693,215.873444 178.900269,214.656357 
	C184.395615,202.809753 189.798859,190.917206 195.554794,179.198074 
	C196.435593,177.404709 198.875610,175.594131 200.788055,175.357758 
	C202.128036,175.192123 204.415771,177.390350 205.220398,179.047501 
	C211.003906,190.958954 216.516235,203.002090 222.297058,215.317627 
M204.825592,194.680313 
	C203.461472,191.807877 202.097366,188.935455 200.330261,185.214462 
	C197.256683,191.965958 194.620010,197.757706 191.837265,203.870331 
	C197.815063,203.870331 203.237747,203.870331 209.094131,203.870331 
	C207.617813,200.711792 206.369003,198.040024 204.825592,194.680313 
z"/>
<path fill="#F1F8FB" opacity="1.000000" stroke="none" 
	d="
M293.508575,178.343475 
	C294.493439,177.168533 295.460358,175.763168 296.444946,175.750687 
	C308.415649,175.598953 320.388977,175.652176 332.787872,175.652176 
	C332.787872,178.053375 332.787872,180.258759 332.787872,182.902313 
	C327.816528,182.902313 322.889465,182.902313 317.213379,182.902313 
	C317.213379,194.983353 317.213379,206.670029 317.213379,218.597275 
	C314.520355,218.597275 312.580322,218.597275 310.154541,218.597275 
	C310.154541,207.063721 310.154541,195.494141 310.154541,183.039276 
	C305.630646,183.039276 301.540924,182.791962 297.496368,183.113434 
	C293.924622,183.397308 293.093842,181.805557 293.508575,178.343475 
z"/>
<path fill="#EFF5F9" opacity="1.000000" stroke="none" 
	d="
M91.092613,104.948700 
	C88.918655,105.240074 86.744705,105.531448 84.223885,105.869308 
	C84.042473,103.745964 83.918587,102.295959 83.792053,100.014359 
	C83.713799,87.755318 83.638191,76.327866 83.562576,64.900421 
	C84.436272,60.907665 87.713539,63.010368 90.386620,62.735737 
	C90.933929,77.034492 91.013275,90.991592 91.092613,104.948700 
z"/>
<path fill="#1796C6" opacity="1.000000" stroke="none" 
	d="
M315.042175,311.920471 
	C322.109436,318.969360 328.988403,325.706482 335.706512,332.600342 
	C336.977203,333.904297 339.985077,335.477539 337.103882,337.662109 
	C336.339386,338.241760 333.530365,337.166290 332.412476,336.077942 
	C320.741333,324.715179 309.199402,313.218933 297.693604,301.687927 
	C296.227264,300.218384 293.082245,298.699585 295.822327,296.244202 
	C296.506104,295.631439 299.875061,297.108398 301.306091,298.402893 
	C305.978455,302.629486 310.325745,307.215393 315.042175,311.920471 
z"/>
<path fill="#179ACB" opacity="1.000000" stroke="none" 
	d="
M319.427338,75.427460 
	C322.979980,71.908409 326.185425,68.530205 329.647736,65.439827 
	C330.646027,64.548744 332.383728,64.486038 333.782440,64.043564 
	C333.462311,65.429863 333.602509,67.267578 332.752563,68.134247 
	C321.364929,79.745743 309.887756,91.271393 298.267517,102.649506 
	C297.179230,103.715103 294.970459,103.636360 293.281921,104.088913 
	C293.941895,102.607124 294.255524,100.788315 295.317108,99.697350 
	C303.187103,91.609505 311.205811,83.666389 319.427338,75.427460 
z"/>
<path fill="#179ACB" opacity="1.000000" stroke="none" 
	d="
M86.000046,195.307526 
	C94.992485,195.308136 103.486740,195.221298 111.975426,195.399551 
	C113.284508,195.427017 114.568008,196.672119 115.863342,197.354126 
	C114.632256,198.125381 113.407135,199.556747 112.169167,199.567947 
	C96.018425,199.714050 79.865227,199.719727 63.714878,199.549683 
	C62.285595,199.534637 60.871853,198.043442 59.450897,197.237854 
	C60.973663,196.590805 62.482269,195.427170 64.021599,195.384995 
	C71.176422,195.188965 78.339752,195.303497 86.000046,195.307526 
z"/>
<path fill="#223B69" opacity="1.000000" stroke="none" 
	d="
M187.275772,334.889038 
	C188.228989,333.925934 189.571640,332.201416 191.001938,332.125397 
	C196.927429,331.810394 202.889557,332.202911 208.817825,331.915131 
	C212.338943,331.744202 214.505127,332.721680 215.228485,336.711578 
	C207.562469,331.962799 198.966385,334.360199 190.646332,334.365540 
	C189.665939,334.366150 188.685776,334.704132 187.275772,334.889038 
z"/>
<path fill="#223B69" opacity="1.000000" stroke="none" 
	d="
M91.312088,104.604401 
	C91.013275,90.991592 90.933929,77.034492 90.755722,62.633492 
	C91.312668,62.789665 92.545975,63.396118 92.539429,63.988876 
	C92.394600,77.100327 92.114822,90.210304 91.844032,103.320213 
	C91.837517,103.635529 91.639992,103.946899 91.312088,104.604401 
z"/>
<path fill="#223B69" opacity="1.000000" stroke="none" 
	d="
M83.244720,65.198418 
	C83.638191,76.327866 83.713799,87.755318 83.677109,99.647720 
	C83.057693,98.944427 82.123924,97.780937 82.110794,96.607147 
	C82.003319,87.000252 82.048294,77.391304 82.115929,67.783470 
	C82.121307,67.019257 82.644379,66.258682 83.244720,65.198418 
z"/>
<path fill="#223B69" opacity="1.000000" stroke="none" 
	d="
M186.094101,336.744232 
	C186.029282,336.354034 186.184372,335.756042 186.610992,335.004456 
	C186.693008,335.412720 186.503510,335.974579 186.094101,336.744232 
z"/>
<path fill="#223B69" opacity="1.000000" stroke="none" 
	d="
M185.350662,337.802185 
	C185.294006,337.667816 185.386459,337.370331 185.707916,336.972351 
	C185.820908,337.144562 185.675171,337.400269 185.350662,337.802185 
z"/>
<path fill="#25477D" opacity="1.000000" stroke="none" 
	d="
M85.935532,307.004639 
	C83.658676,307.005005 81.839432,307.005005 79.682213,307.005005 
	C79.682213,303.336517 79.682213,299.931427 79.682213,295.777740 
	C83.059807,295.777740 86.312546,295.704712 89.560577,295.797180 
	C93.208008,295.901001 95.903717,297.664703 95.741692,301.466766 
	C95.589409,305.040100 93.131035,307.013214 89.389130,307.004120 
	C88.390472,307.001678 87.391808,307.004120 85.935532,307.004639 
z"/>
<path fill="#2A4B80" opacity="1.000000" stroke="none" 
	d="
M90.435875,313.843262 
	C94.274796,314.608002 96.160034,316.786072 95.728104,320.200012 
	C95.261192,323.890503 92.252594,324.630707 89.092079,324.696686 
	C86.134445,324.758453 83.174507,324.709930 79.763107,324.709930 
	C79.763107,321.109344 79.763107,317.778412 79.763107,313.828583 
	C83.183159,313.828583 86.592354,313.828583 90.435875,313.843262 
z"/>
<path fill="#25477D" opacity="1.000000" stroke="none" 
	d="
M192.198792,323.487061 
	C194.735855,317.254333 197.387650,311.432892 200.454712,304.699829 
	C203.666748,311.562103 206.432159,317.470184 209.441010,323.898376 
	C203.323685,323.898376 197.818604,323.898376 192.198792,323.487061 
z"/>
<path fill="#25477D" opacity="1.000000" stroke="none" 
	d="
M204.972900,195.024277 
	C206.369003,198.040024 207.617813,200.711792 209.094131,203.870331 
	C203.237747,203.870331 197.815063,203.870331 191.837265,203.870331 
	C194.620010,197.757706 197.256683,191.965958 200.330261,185.214462 
	C202.097366,188.935455 203.461472,191.807877 204.972900,195.024277 
z"/>
</svg>