<?xml version="1.0" encoding="UTF-8"?>
<svg version="1.1" xmlns="http://www.w3.org/2000/svg" width="4701" height="2127">
<path d="M0 0 C2.53482704 0.94401058 4.78370883 2.13139084 7.14160156 3.4597168 C8.13281006 4.0158667 9.12401855 4.5720166 10.14526367 5.14501953 C11.21139893 5.75031494 12.27753418 6.35561035 13.37597656 6.97924805 C14.4891626 7.60710205 15.60234863 8.23495605 16.74926758 8.88183594 C26.22858327 14.24477201 35.64026114 19.72169235 45.03613281 25.22924805 C51.34168075 28.92388115 57.66892093 32.58027486 64.00097656 36.22924805 C65.08113037 36.85178467 66.16128418 37.47432129 67.27416992 38.11572266 C69.4639399 39.37751631 71.65380011 40.63915339 73.84375 41.90063477 C79.27257599 45.02854953 84.69916937 48.16033253 90.12597656 51.29174805 C92.29263239 52.54176684 94.45929906 53.79176683 96.62597656 55.04174805 C100.9593099 57.54174805 105.29264323 60.04174805 109.62597656 62.54174805 C111.23496826 63.4699939 111.23496826 63.4699939 112.87646484 64.41699219 C115.04154727 65.66610323 117.20658638 66.91528934 119.37158203 68.16455078 C124.81213362 71.30377114 130.25344872 74.44165367 135.69628906 77.5769043 C146.14803856 83.59922133 156.58897204 89.63844142 167.00097656 95.72924805 C175.67859898 100.80449928 184.39203224 105.81433571 193.12597656 110.79174805 C202.84713273 116.33176534 212.53492314 121.92549613 222.19287109 127.57519531 C232.71682281 133.72941546 243.27977794 139.81544801 253.84375 145.90063477 C259.27257599 149.02854953 264.69916937 152.16033253 270.12597656 155.29174805 C272.29263239 156.54176684 274.45929906 157.79176683 276.62597656 159.04174805 C387.12597656 222.79174805 387.12597656 222.79174805 497.62597656 286.54174805 C498.6986377 287.16057861 499.77129883 287.77940918 500.87646484 288.41699219 C503.04154727 289.66610323 505.20658638 290.91528934 507.37158203 292.16455078 C512.81213362 295.30377114 518.25344872 298.44165367 523.69628906 301.5769043 C534.14803856 307.59922133 544.58897204 313.63844142 555.00097656 319.72924805 C563.67859898 324.80449928 572.39203224 329.81433571 581.12597656 334.79174805 C590.84713273 340.33176534 600.53492314 345.92549613 610.19287109 351.57519531 C620.69189148 357.71483606 631.22995788 363.78616389 641.76904297 369.85668945 C645.25790359 371.86779558 648.74492484 373.882058 652.23144531 375.8972168 C653.40802868 376.5770059 654.58462361 377.25677499 655.76123047 377.93652344 C657.97866034 379.21772971 660.19580215 380.49943472 662.41259766 381.78173828 C668.28694733 385.17431812 674.18210084 388.5223822 680.12597656 391.79174805 C678.85769931 395.59657981 677.69476487 395.90159622 674.25488281 397.83862305 C673.21912109 398.42836914 672.18335938 399.01811523 671.11621094 399.62573242 C669.41948242 400.57416016 669.41948242 400.57416016 667.68847656 401.54174805 C666.50759015 402.21070371 665.32725958 402.88064144 664.14746094 403.55151367 C661.693387 404.94596698 659.23696253 406.33614118 656.77880859 407.72338867 C651.20518157 410.87341967 645.66740483 414.08553617 640.12597656 417.29174805 C637.95948093 418.54204446 635.79281361 419.79204342 633.62597656 421.04174805 C632.55347656 421.66049805 631.48097656 422.27924805 630.37597656 422.91674805 C568.62597656 458.54174805 568.62597656 458.54174805 565.37548828 460.41699219 C563.21040586 461.66610323 561.04536674 462.91528934 558.88037109 464.16455078 C553.4398195 467.30377114 547.99850441 470.44165367 542.55566406 473.5769043 C532.10391457 479.59922133 521.66298108 485.63844142 511.25097656 491.72924805 C501.98097879 497.15095982 492.66765904 502.4937972 483.33752441 507.81097412 C474.21314816 513.01219934 465.12464882 518.27202682 456.05908203 523.57519531 C445.53513032 529.72941546 434.97217519 535.81544801 424.40820312 541.90063477 C418.97937714 545.02854953 413.55278375 548.16033253 408.12597656 551.29174805 C405.95932074 552.54176684 403.79265407 553.79176683 401.62597656 555.04174805 C400.01722656 555.96987305 400.01722656 555.96987305 398.37597656 556.91674805 C206.62597656 667.54174805 206.62597656 667.54174805 203.37548828 669.41699219 C201.21040586 670.66610323 199.04536674 671.91528934 196.88037109 673.16455078 C191.4398195 676.30377114 185.99850441 679.44165367 180.55566406 682.5769043 C170.10391457 688.59922133 159.66298108 694.63844142 149.25097656 700.72924805 C139.98097879 706.15095982 130.66765904 711.4937972 121.33752441 716.81097412 C112.21314816 722.01219934 103.12464882 727.27202682 94.05908203 732.57519531 C83.53513032 738.72941546 72.97217519 744.81544801 62.40820312 750.90063477 C58.06016072 753.40583683 53.71356991 755.91355017 49.3671875 758.42163086 C47.21701336 759.66224052 45.06662483 760.90247867 42.91601562 762.14233398 C37.87076144 765.05135073 32.8272495 767.9632621 27.78997803 770.88607788 C26.00917655 771.91917744 24.22781798 772.95130976 22.44628906 773.9831543 C20.21340574 775.27680892 17.98156746 776.57226969 15.75097656 777.86987305 C13.7637784 779.02022313 11.76841743 780.1566334 9.76367188 781.27612305 C7.16320838 782.71860641 7.16320838 782.71860641 4.98046875 784.29174805 C2.9454058 785.61499985 1.52563097 786.40539262 -0.87402344 786.79174805 C-4.77981046 785.66146241 -7.96672649 783.5960478 -11.37402344 781.41674805 C-12.37667236 780.81258057 -13.37932129 780.20841309 -14.41235352 779.5859375 C-16.52635295 778.31122101 -18.6327924 777.0238924 -20.73193359 775.72485352 C-25.62133339 772.71675191 -30.59446165 769.85652967 -35.56152344 766.97924805 C-37.56569816 765.80652967 -39.56959926 764.63334355 -41.57324219 763.4597168 C-48.3139118 759.52420359 -55.09215143 755.65557776 -61.87402344 751.79174805 C-71.59536442 746.25205905 -81.28297436 740.65799742 -90.94091797 735.00830078 C-101.46486968 728.85408063 -112.02782481 722.76804809 -122.59179688 716.68286133 C-128.02062286 713.55494656 -133.44721625 710.42316357 -138.87402344 707.29174805 C-141.04067926 706.04172926 -143.20734593 704.79172926 -145.37402344 703.54174805 C-210.37402344 666.04174805 -275.37402344 628.54174805 -340.37402344 591.04174805 C-341.44668457 590.42291748 -342.5193457 589.80408691 -343.62451172 589.16650391 C-345.78959414 587.91739287 -347.95463326 586.66820675 -350.11962891 585.41894531 C-355.5601805 582.27972495 -361.00149559 579.14184242 -366.44433594 576.0065918 C-376.89608543 569.98427476 -387.33701892 563.94505467 -397.74902344 557.85424805 C-406.42664585 552.77899681 -415.14007912 547.76916038 -423.87402344 542.79174805 C-433.5951796 537.25173075 -443.28297002 531.65799996 -452.94091797 526.00830078 C-463.46486968 519.85408063 -474.02782481 513.76804809 -484.59179688 507.68286133 C-490.02062286 504.55494656 -495.44721625 501.42316357 -500.87402344 498.29174805 C-503.04067926 497.04172926 -505.20734593 495.79172926 -507.37402344 494.54174805 C-546.37402344 472.04174805 -585.37402344 449.54174805 -624.37402344 427.04174805 C-625.44765137 426.42235352 -626.5212793 425.80295898 -627.62744141 425.16479492 C-629.78273654 423.92134295 -631.93801017 422.67785369 -634.09326172 421.43432617 C-639.09740018 418.5471193 -644.10172864 415.66024374 -649.10687256 412.77478027 C-650.85743584 411.76555701 -652.60792754 410.75620968 -654.35839844 409.74682617 C-656.53794509 408.49007145 -658.71762176 407.23354219 -660.89746094 405.97729492 C-667.90263627 401.93758363 -674.8926085 397.87237965 -681.87402344 393.79174805 C-679.38017552 390.99611029 -676.62187263 389.359214 -673.37011719 387.52612305 C-672.25024414 386.89109863 -671.13037109 386.25607422 -669.9765625 385.60180664 C-669.38008911 385.26654968 -668.78361572 384.93129272 -668.16906738 384.58587646 C-666.28273437 383.52556566 -664.3997326 382.45955438 -662.51757812 381.3918457 C-660.56689198 380.28528911 -658.61604186 379.17903708 -656.66421509 378.07449341 C-650.29833205 374.47161306 -643.95810837 370.82527385 -637.62402344 367.16674805 C-636.55450439 366.54952881 -635.48498535 365.93230957 -634.38305664 365.29638672 C-627.24201679 361.17116247 -620.11782555 357.01769728 -612.99902344 352.85424805 C-603.72896829 347.43263309 -594.41570694 342.08969948 -585.08557129 336.77252197 C-575.96119504 331.57129676 -566.8726957 326.31146927 -557.80712891 321.00830078 C-547.28317719 314.85408063 -536.72022206 308.76804809 -526.15625 302.68286133 C-520.72742401 299.55494656 -515.30083063 296.42316357 -509.87402344 293.29174805 C-507.70736761 292.04172926 -505.54070094 290.79172926 -503.37402344 289.54174805 C-502.30152344 288.92299805 -501.22902344 288.30424805 -500.12402344 287.66674805 C-282.37402344 162.04174805 -282.37402344 162.04174805 -279.12353516 160.16650391 C-276.95845273 158.91739287 -274.79341362 157.66820675 -272.62841797 156.41894531 C-267.18786638 153.27972495 -261.74655128 150.14184242 -256.30371094 147.0065918 C-245.85196144 140.98427476 -235.41102796 134.94505467 -224.99902344 128.85424805 C-215.72902566 123.43253627 -206.41570592 118.08969889 -197.08557129 112.77252197 C-187.96119504 107.57129676 -178.8726957 102.31146927 -169.80712891 97.00830078 C-159.28317719 90.85408063 -148.72022206 84.76804809 -138.15625 78.68286133 C-132.72742401 75.55494656 -127.30083063 72.42316357 -121.87402344 69.29174805 C-119.70736761 68.04172926 -117.54070094 66.79172926 -115.37402344 65.54174805 C-114.30152344 64.92299805 -113.22902344 64.30424805 -112.12402344 63.66674805 C-50.37402343 28.04174804 -50.37402343 28.04174804 -47.1184082 26.16357422 C-44.97038298 24.92428538 -42.82243269 23.68486664 -40.67456055 22.4453125 C-35.58746794 19.50972237 -30.49960497 16.57549133 -25.40908813 13.64584351 C-22.99858596 12.2584671 -20.58850968 10.87035181 -18.1784668 9.48217773 C-16.47258376 8.5000099 -14.76608358 7.5189142 -13.05957031 6.5378418 C-11.5155957 5.64838867 -11.5155957 5.64838867 -9.94042969 4.7409668 C-9.03236572 4.21849365 -8.12430176 3.69602051 -7.1887207 3.15771484 C-1.54658518 -0.17186518 -1.54658518 -0.17186518 0 0 Z " fill="#000000" transform="translate(866.8740234375,886.208251953125)"/>
<path d="M0 0 C1.32708733 0.00539291 1.32708733 0.00539291 2.6809845 0.01089478 C4.07108734 0.01067574 4.07108734 0.01067574 5.48927307 0.01045227 C8.56809285 0.01115178 11.64685295 0.01894595 14.72566223 0.02676392 C16.85415616 0.02862796 18.98265051 0.03005193 21.11114502 0.03105164 C26.72537919 0.03487789 32.33958766 0.04470909 37.95381165 0.05575562 C43.67788851 0.06596743 49.40196951 0.07054876 55.12605286 0.07559204 C66.36629855 0.08633126 77.60652513 0.10340896 88.84675598 0.12442017 C90.24020139 4.1266712 91.35861139 8.08053319 92.25741577 12.22094727 C92.51955872 13.420858 92.78170166 14.62076874 93.05178833 15.85704041 C93.33580666 17.1732032 93.61975514 18.48938108 93.90364075 19.80557251 C94.20745229 21.20238647 94.51154706 22.59913885 94.81590271 23.99583435 C95.639203 27.77827899 96.4582869 31.561625 97.27641416 35.34519148 C97.96093603 38.50887312 98.64760022 41.67208812 99.33428425 44.83530104 C100.95492984 52.30082565 102.57224381 59.76706648 104.18733215 67.23379517 C105.85096877 74.92475184 107.51954015 82.61462556 109.1906696 90.30395734 C110.62769099 96.91675339 112.06196623 103.53014077 113.49398655 110.14402163 C114.34821907 114.08931941 115.2033976 118.03440555 116.06108284 121.97895432 C116.8678258 125.68992537 117.67110771 129.40162939 118.47179031 133.11391258 C118.76525114 134.47181968 119.05989002 135.82947284 119.35582924 137.18684196 C120.80100791 143.81873559 122.16210943 150.36771629 122.84675598 157.12442017 C123.86171143 157.27606377 123.86171143 157.27606377 124.89717102 157.43077087 C133.00732338 158.70623408 140.97146744 160.44928304 148.95697021 162.32958031 C151.243178 162.86727693 153.53065358 163.39924274 155.81855774 163.92967224 C162.31330302 165.4360757 168.8063407 166.9496621 175.29695129 168.4737854 C179.29011351 169.41103967 183.28524699 170.33944419 187.2817688 171.26226234 C188.79761195 171.61413678 190.31267196 171.96940304 191.8269043 172.32814598 C193.93519908 172.82740696 196.04581082 173.31540179 198.15730286 173.80093384 C199.35576843 174.08136032 200.55423401 174.3617868 201.78901672 174.65071106 C204.66060162 175.09558088 206.20624414 175.25757213 208.84675598 174.12442017 C210.61755597 172.18254289 212.16417784 170.2889475 213.72175598 168.18692017 C214.70208058 166.90165396 215.68255663 165.61650325 216.66316223 164.33145142 C217.18023743 163.64647583 217.69731262 162.96150024 218.23005676 162.25576782 C221.00300643 158.60009724 223.83605244 154.99131752 226.65925598 151.37442017 C227.84978779 149.84350263 229.03988744 148.31224893 230.22956848 146.78067017 C230.82543762 146.01367798 231.42130676 145.24668579 232.03523254 144.45645142 C232.93193665 143.30209595 232.93193665 143.30209595 233.84675598 142.12442017 C240.76789997 133.21461325 247.69216231 124.3079025 254.67048645 115.44277954 C260.76337797 107.69664067 266.80097859 99.90734006 272.84675598 92.12442017 C294.83814685 63.81420917 294.83814685 63.81420917 305.84675598 50.12442017 C310.88667369 50.75362494 315.008139 52.97586172 319.49519348 55.21035767 C320.75693893 55.82981766 320.75693893 55.82981766 322.04417419 56.46179199 C324.77260061 57.8025235 327.49709841 59.15104869 330.22175598 60.49942017 C333.03057349 61.88124411 335.84042126 63.26095813 338.65028381 64.64065552 C340.50051469 65.54939418 342.35041087 66.45881464 344.19996643 67.368927 C351.06280762 70.74543303 357.94226515 74.08374582 364.84675598 77.37442017 C365.72323792 77.79231812 366.59971985 78.21021606 367.50276184 78.64077759 C375.60472198 82.49554745 383.72185962 86.31826066 391.84675598 90.12442017 C391.32434765 97.12516193 390.17095836 103.74538894 388.48933411 110.55484009 C388.25005188 111.54704056 388.01076965 112.53924103 387.76423645 113.56150818 C386.97502798 116.82750602 386.17647861 120.09114482 385.37800598 123.35488892 C384.81742564 125.66839776 384.2575019 127.9820658 383.69819641 130.29588318 C382.22124132 136.39949864 380.73666519 142.50123327 379.25007629 148.60250854 C376.90418096 158.23573754 374.5691323 167.87160537 372.23451233 177.50757217 C371.66460323 179.85959704 371.09441387 182.21155403 370.52394104 184.56344223 C365.47587297 205.38188379 360.59114094 226.23476448 355.84675598 247.12442017 C364.63973044 254.42126628 373.44653914 261.65168666 382.54206848 268.56973267 C387.04496883 272.02150005 391.42075935 275.63011501 395.81330872 279.22036743 C400.87886315 283.3549022 405.99536048 287.4184282 411.15510559 291.4347229 C415.69406152 294.974377 415.69406152 294.974377 417.36531067 296.61660767 C419.01965658 298.28192961 419.01965658 298.28192961 421.84675598 300.12442017 C425.9384647 299.10101987 429.63920124 297.37186802 433.42732239 295.54116821 C434.51781891 295.01529617 435.60831543 294.48942413 436.7318573 293.94761658 C437.91703949 293.37045395 439.10222168 292.79329132 440.32331848 292.19863892 C441.59948854 291.57970905 442.87566256 290.96078737 444.15184021 290.34187317 C461.25223904 282.02972694 478.23000683 273.4681457 495.22175598 264.93692017 C501.81160877 261.62834786 508.40226223 258.32138582 514.99519348 255.01895142 C515.78348289 254.62404636 516.57177231 254.22914131 517.38394928 253.82226944 C529.35164334 247.83090727 541.37275188 241.97157497 553.47938538 236.26513672 C556.95387802 234.59095387 560.38158862 232.82626451 563.80754089 231.05516052 C565.84675598 230.12442017 565.84675598 230.12442017 567.84675598 230.12442017 C569.53142706 232.08833545 571.10189722 234.06247606 572.65925598 236.12442017 C573.65270402 237.41581949 574.64755221 238.70614263 575.64363098 239.99551392 C576.16634583 240.67339966 576.68906067 241.3512854 577.22761536 242.04971313 C579.899767 245.47370962 582.65659727 248.82757792 585.40925598 252.18692017 C590.13725519 257.97365373 594.72518143 263.84264738 599.25691223 269.78457642 C602.19395637 273.60238974 605.2384845 277.33069412 608.28425598 281.06192017 C609.37933247 282.40955659 610.47438462 283.75721278 611.56941223 285.10488892 C613.75020514 287.78649022 615.94836858 290.45263577 618.15534973 293.11270142 C619.17803647 294.36615805 620.20019605 295.62004502 621.22175598 296.87442017 C621.70442932 297.44668335 622.18710266 298.01894653 622.68440247 298.60855103 C625.81696494 302.49260176 625.81696494 302.49260176 625.94050598 305.11270142 C624.27044783 308.18441552 622.16620408 310.856927 619.97175598 313.56192017 C619.47997864 314.17809204 618.98820129 314.79426392 618.48152161 315.42910767 C614.73110353 320.10160305 610.87037848 324.67660285 606.97419739 329.22769165 C603.65977799 333.11487938 600.48093851 337.09094095 597.34675598 341.12442017 C593.34531492 346.27400199 589.21188475 351.27982294 584.96955872 356.23208618 C581.67563042 360.09612868 578.52072707 364.0499947 575.40925598 368.06192017 C571.20671124 373.47719925 566.82270174 378.69638351 562.32966614 383.87197876 C558.37567434 388.44981408 554.62882649 393.16273962 550.923172 397.9425354 C547.80757266 401.94558472 544.58649466 405.83682858 541.28425598 409.68692017 C535.88922493 415.97950759 530.83802161 422.50909847 525.84675598 429.12442017 C530.68880744 440.2098403 535.77632405 451.13395087 541.22175598 461.93692017 C545.53132479 470.49213262 549.81005325 479.05860484 553.97175598 487.68692017 C554.42083313 488.60771362 554.86991028 489.52850708 555.33259583 490.47720337 C555.96222229 491.78950928 555.96222229 491.78950928 556.60456848 493.12832642 C557.14815002 494.25476563 557.14815002 494.25476563 557.70271301 495.40396118 C559.31398779 499.23546669 560.57329173 503.16985635 561.84675598 507.12442017 C563.14335899 507.10562805 563.14335899 507.10562805 564.46615601 507.0864563 C575.78041074 506.92386484 587.09477872 506.77070662 598.40925598 506.62442017 C599.78653555 506.60660429 599.78653555 506.60660429 601.19163895 506.5884285 C630.63983085 506.2106111 660.08367189 506.03285111 689.53425598 506.06192017 C690.84468306 506.06320419 690.84468306 506.06320419 692.1815834 506.06451416 C702.73666423 506.07564803 713.29170875 506.09531854 723.84675598 506.12442017 C726.46080233 517.51038863 729.0690157 528.89767588 731.66978455 540.28668499 C732.87759948 545.57497448 734.08742112 550.86278811 735.30183411 556.14956665 C736.47366513 561.25130891 737.64021778 566.35423177 738.80311584 571.45801735 C739.24777837 573.40529191 739.69434324 575.35213307 740.14283752 577.29852867 C740.77053494 580.02411999 741.39145979 582.75117179 742.01081848 585.47866821 C742.19783325 586.28355682 742.38484802 587.08844543 742.57752991 587.91772461 C743.43523012 591.72663727 744.07711102 595.1904034 743.84675598 599.12442017 C732.88068987 604.66565559 721.8408843 610.02278751 710.72175598 615.24942017 C709.13984033 615.9946814 707.55797276 616.74004468 705.97615051 617.48550415 C695.02337251 622.64405306 684.05612331 627.77138261 673.08113098 632.88247681 C666.51773541 635.93982099 659.95960314 639.00795564 653.40925598 642.09317017 C652.68577972 642.43392075 651.96230347 642.77467133 651.21690369 643.12574768 C647.76719521 644.75098174 644.31806487 646.37742989 640.8697052 648.00552368 C627.22309563 654.43985147 613.53224569 660.7704428 599.84675598 667.12442017 C599.51675598 695.83442017 599.18675598 724.54442017 598.84675598 754.12442017 C601.81675598 755.11442017 604.78675598 756.10442017 607.84675598 757.12442017 C609.80029803 757.97313485 611.73681883 758.86293907 613.64753723 759.80410767 C615.21386902 760.56848145 615.21386902 760.56848145 616.81184387 761.34829712 C618.46881287 762.16560303 618.46881287 762.16560303 620.15925598 762.99942017 C622.58034311 764.17946666 625.00202672 765.35817372 627.42488098 766.53457642 C628.04218582 766.83476181 628.65949066 767.1349472 629.29550171 767.44422913 C635.63116697 770.51865068 642.01572693 773.48492911 648.40925598 776.43692017 C658.90918905 781.28942575 669.38467315 786.19088221 679.84675598 791.12442017 C691.62005467 796.67537565 703.41172929 802.18418716 715.22273254 807.65444946 C724.79057716 812.08903157 734.32713186 816.58735793 743.84675598 821.12442017 C743.22979245 831.06148466 740.86614166 840.55242549 738.62800598 850.22207642 C738.20541619 852.06617044 737.78326339 853.91036466 737.36152649 855.75465393 C736.48103798 859.59909739 735.59641006 863.4425561 734.70857239 867.28530884 C733.56857591 872.22027878 732.43735323 877.15720929 731.30895233 882.09484196 C730.44022781 885.89316454 729.56780776 889.6906303 728.69415283 893.48782158 C728.27535478 895.30935396 727.85751678 897.13110733 727.44064331 898.95308113 C726.86025063 901.48639155 726.27510757 904.01855585 725.68855286 906.55044556 C725.51605515 907.30725113 725.34355743 908.0640567 725.16583252 908.84379578 C723.96117061 914.01000553 723.96117061 914.01000553 722.84675598 915.12442017 C719.77117549 915.1898111 716.71915568 915.1892016 713.6443634 915.14614868 C712.18935677 915.13173737 712.18935677 915.13173737 710.70495605 915.11703491 C707.45397887 915.08374589 704.2031248 915.04339946 700.95222473 915.00332642 C698.65684543 914.9789602 696.3614605 914.95512019 694.06607056 914.93177795 C687.95879526 914.8686098 681.85159637 914.7998727 675.74440002 914.72952271 C665.00124227 914.60616205 654.25800846 914.49013576 643.51472473 914.37832642 C642.33967251 914.36592548 641.16462029 914.35352455 639.95396042 914.34074783 C614.25147002 914.07405422 588.55032652 914.06507075 562.84675598 914.12442017 C561.08080093 917.64993043 559.31586345 921.17594917 557.55110168 924.70205688 C557.05384834 925.69473068 556.556595 926.68740448 556.04427338 927.7101593 C552.63500097 934.52375636 549.28896516 941.36053188 546.03425598 948.24942017 C542.38916386 955.91874602 538.70296658 963.55843735 534.84675598 971.12442017 C531.06156866 969.70836956 527.64926277 967.97020951 524.14753723 965.95645142 C522.47739563 964.99908081 522.47739563 964.99908081 520.77351379 964.02236938 C519.56870684 963.32731384 518.36395569 962.63216156 517.15925598 961.93692017 C515.90386926 961.21547267 514.64833306 960.49428523 513.39265442 959.77334595 C510.16555306 957.91939076 506.94079185 956.06140552 503.71669006 954.20223999 C501.93754673 953.17675146 500.15771549 952.15247145 498.3775177 951.1288147 C485.91253523 943.96112856 473.47478753 936.74858016 461.0650177 929.48574829 C455.50394479 926.23757407 449.9268739 923.01939861 444.33113098 919.83145142 C443.69670074 919.46989456 443.06227051 919.10833771 442.40861511 918.73582458 C439.31072871 916.97126671 436.21108637 915.20988745 433.10896301 913.45278931 C431.98860657 912.81591187 430.86825012 912.17903442 429.71394348 911.52285767 C428.72507141 910.96259888 427.73619934 910.40234009 426.71736145 909.82510376 C423.67888632 908.02496617 420.76815442 906.10759089 417.84675598 904.12442017 C419.2541422 899.36157076 421.2529023 895.01277457 423.37458801 890.54019165 C441.13611209 853.01458856 452.60455318 813.71894465 459.09675598 772.74942017 C459.3235907 771.32762451 459.3235907 771.32762451 459.55500793 769.87710571 C462.49657611 750.13986423 463.2204781 730.49332756 463.15925598 710.56192017 C463.15743317 709.32807587 463.15561035 708.09423157 463.1537323 706.82299805 C463.10874423 688.72885669 462.66460579 671.02621453 459.84675598 653.12442017 C459.66983215 651.94605591 459.49290833 650.76769165 459.31062317 649.55361938 C452.95605349 607.80991341 441.06241849 567.25814356 422.84675598 529.12442017 C422.39429504 528.17567017 421.94183411 527.22692017 421.47566223 526.24942017 C414.66457537 512.07349954 407.26741065 498.4090334 398.84675598 485.12442017 C398.42716614 484.46184204 398.00757629 483.79926392 397.57527161 483.11660767 C387.99714166 468.1247521 377.36216255 453.68255972 365.84675598 440.12442017 C364.96243878 439.06599567 364.07833655 438.00739154 363.19441223 436.94863892 C348.18940968 419.0914034 332.00683043 401.94836494 313.71784973 387.40957642 C311.5596815 385.69185068 309.43387288 383.95306308 307.31941223 382.18301392 C242.02321083 327.77367121 159.17431531 296.29998573 74.84675598 289.12442017 C73.59765442 289.01227173 72.34855286 288.90012329 71.06159973 288.78457642 C-24.91997756 281.65674819 -123.91841705 309.00699806 -202.15324402 365.12442017 C-202.91524109 365.66856567 -203.67723816 366.21271118 -204.46232605 366.77334595 C-215.13116259 374.42046063 -225.36441657 382.3790066 -235.15324402 391.12442017 C-236.03109558 391.90301392 -236.90894714 392.68160767 -237.81340027 393.48379517 C-240.27363834 395.68280352 -242.71560124 397.90040493 -245.15324402 400.12442017 C-246.13164246 401.0100061 -247.11004089 401.89559204 -248.11808777 402.80801392 C-256.25741644 410.194297 -264.19848571 417.69386517 -271.35636902 426.05020142 C-273.32786832 428.32599734 -275.36458797 430.53364684 -277.40324402 432.74942017 C-282.98636294 438.95393175 -288.10090527 445.48803589 -293.15324402 452.12442017 C-293.70174011 452.84307251 -294.25023621 453.56172485 -294.81535339 454.30215454 C-311.58820178 476.38166682 -326.17264719 500.08750488 -338.17472839 525.09805298 C-339.20802976 527.23787368 -340.26579845 529.36455922 -341.32511902 531.49160767 C-386.28313416 622.77177364 -391.78262178 731.42454565 -358.99581909 845.83216858 C-352.77707255 864.02817068 -345.64389437 882.40105103 -336.41886902 899.3019104 C-335.15324402 902.12442017 -335.15324402 902.12442017 -336.15324402 905.12442017 C-338.42448425 906.69570923 -338.42448425 906.69570923 -341.46183777 908.39004517 C-343.15107361 909.34246094 -343.15107361 909.34246094 -344.87443542 910.31411743 C-346.1131873 911.00091686 -347.35195731 911.68768356 -348.59074402 912.37442017 C-349.86655673 913.09074605 -351.14177745 913.80812725 -352.41642761 914.52651978 C-355.04387732 916.00685405 -357.67335528 917.48348752 -360.30412292 918.95791626 C-365.99068619 922.15136534 -371.63417137 925.41913949 -377.27824402 928.68692017 C-379.426597 929.92795191 -381.57503462 931.16883714 -383.72355652 932.40957642 C-384.78348816 933.02204224 -385.8434198 933.63450806 -386.93547058 934.26553345 C-391.25701399 936.76206088 -395.58005396 939.25598971 -399.90324402 941.74966431 C-402.05704118 942.9920778 -404.21068886 944.23475044 -406.36418152 945.47769165 C-411.40385925 948.386286 -416.4445764 951.29302966 -421.48924255 954.19296265 C-423.2707398 955.21717681 -425.05188724 956.24199668 -426.83293152 957.26699829 C-429.06401027 958.55075392 -431.29573975 959.83337956 -433.52824402 961.11465454 C-434.54144714 961.69795532 -435.55465027 962.2812561 -436.59855652 962.88223267 C-437.55149597 963.43040649 -438.50443542 963.97858032 -439.48625183 964.54336548 C-441.9451031 966.00102941 -444.32432448 967.54019391 -446.70793152 969.11660767 C-448.41336121 970.11047485 -448.41336121 970.11047485 -450.15324402 971.12442017 C-453.15324402 970.12442017 -453.15324402 970.12442017 -455.11100769 966.70059204 C-455.85826121 965.16987498 -456.59417802 963.63359316 -457.32121277 962.09317017 C-457.71971939 961.26925781 -458.11822601 960.44534546 -458.52880859 959.59646606 C-459.80901977 956.94359988 -461.07493547 954.28418381 -462.34074402 951.62442017 C-463.17381471 949.89351137 -464.00778977 948.16303753 -464.84269714 946.43301392 C-470.01329032 935.69508952 -475.0835124 924.91021238 -480.15324402 914.12442017 C-515.56989011 914.05352225 -550.97887203 914.22330523 -586.39360046 914.58798218 C-592.49770735 914.6502477 -598.60184416 914.70943822 -604.70597839 914.76895142 C-616.52176327 914.88457251 -628.33751365 915.00336443 -640.15324402 915.12442017 C-642.13151489 909.45059367 -643.82166032 903.80575145 -645.14616394 897.94595337 C-645.41016747 896.80264053 -645.41016747 896.80264053 -645.67950439 895.63623047 C-646.25216955 893.15024983 -646.81826513 890.66283284 -647.38371277 888.17520142 C-647.78278498 886.431192 -648.18206522 884.68723017 -648.58154297 882.9433136 C-649.41407687 879.3037685 -650.24317441 875.66346129 -651.06999207 872.02261353 C-652.12838396 867.36393488 -653.19679976 862.70762005 -654.26795483 858.05186176 C-655.09349591 854.45748913 -655.91300608 850.86176162 -656.73078346 847.26561546 C-657.12227586 845.54800526 -657.51579727 843.83085618 -657.91141319 842.11419106 C-658.46335326 839.71573178 -659.00695467 837.31552614 -659.54850769 834.91470337 C-659.71210785 834.21170609 -659.87570801 833.5087088 -660.04426575 832.78440857 C-660.92668132 828.82599688 -661.31499344 825.1773592 -661.15324402 821.12442017 C-645.83637334 813.67337971 -630.48974456 806.30473718 -615.02677917 799.16055298 C-605.75786477 794.87665499 -596.51443436 790.54082879 -587.27824402 786.18692017 C-567.35497216 776.79962376 -547.42568303 767.42388103 -527.40324402 758.24942017 C-526.48575378 757.82612427 -525.56826355 757.40282837 -524.62297058 756.96670532 C-523.79249207 756.58820435 -522.96201355 756.20970337 -522.10636902 755.81973267 C-521.38610535 755.4898938 -520.66584167 755.16005493 -519.92375183 754.82022095 C-518.15324402 754.12442017 -518.15324402 754.12442017 -516.15324402 754.12442017 C-516.48324402 725.41442017 -516.81324402 696.70442017 -517.15324402 667.12442017 C-546.52408353 653.20455709 -546.52408353 653.20455709 -575.97355652 639.46426392 C-585.16026254 635.20261708 -594.310456 630.86369052 -603.46366882 626.53070068 C-613.79708119 621.63968939 -624.1500012 616.79452923 -634.52824402 611.99942017 C-643.48414476 607.86013299 -652.38791214 603.65537179 -661.15324402 599.12442017 C-660.54068092 589.17138763 -658.15318811 579.67295387 -655.89933777 569.99160767 C-655.52251829 568.35379651 -655.14625528 566.71585723 -654.77055359 565.07778931 C-653.38400562 559.05011607 -651.98674371 553.02491141 -650.59074402 546.99942017 C-645.91918152 526.76629517 -645.91918152 526.76629517 -641.15324402 506.12442017 C-588.02324402 506.12442017 -534.89324402 506.12442017 -480.15324402 506.12442017 C-469.9712301 485.79257467 -469.9712301 485.79257467 -460.12590027 465.30410767 C-458.23002092 461.30952478 -456.26323433 457.360872 -454.23551941 453.43229675 C-452.87895623 450.79841512 -451.54334077 448.15415092 -450.20884705 445.5090332 C-449.55091789 444.21907396 -448.88307477 442.93411972 -448.20506287 441.65460205 C-447.2577306 439.86463896 -446.3472309 438.05532969 -445.43840027 436.24551392 C-444.63221252 434.68981689 -444.63221252 434.68981689 -443.80973816 433.10269165 C-442.78804673 429.99580311 -442.78804673 429.99580311 -444.81437683 426.98672485 C-445.586203 426.04216431 -446.35802917 425.09760376 -447.15324402 424.12442017 C-447.68006775 423.4422644 -448.20689148 422.76010864 -448.74967957 422.05728149 C-449.51211975 421.14112061 -449.51211975 421.14112061 -450.28996277 420.20645142 C-450.86238708 419.51543335 -451.4348114 418.82441528 -452.02458191 418.11245728 C-452.62391541 417.39453003 -453.2232489 416.67660278 -453.84074402 415.93692017 C-455.10388018 414.41357828 -456.3669012 412.89014093 -457.62980652 411.36660767 C-458.23856628 410.6340979 -458.84732605 409.90158813 -459.47453308 409.1468811 C-465.82963448 401.49044423 -472.08471355 393.75110531 -478.35661316 386.02651978 C-481.4481583 382.2197698 -484.54536515 378.41786055 -487.65324402 374.62442017 C-491.90278572 369.43747955 -496.12980175 364.23242131 -500.35636902 359.02676392 C-503.44803735 355.21996669 -506.54529265 351.41794905 -509.65324402 347.62442017 C-513.8985061 342.44270322 -518.12192077 337.24341121 -522.34318542 332.04214478 C-525.55961203 328.08044859 -528.78812177 324.12925321 -532.02824402 320.18692017 C-532.72433777 319.33098267 -533.42043152 318.47504517 -534.13761902 317.59317017 C-535.50829402 315.91435893 -536.89438117 314.24803901 -538.29386902 312.59317017 C-538.94871277 311.79910767 -539.60355652 311.00504517 -540.27824402 310.18692017 C-541.14836121 309.15244751 -541.14836121 309.15244751 -542.03605652 308.09707642 C-543.15324402 306.12442017 -543.15324402 306.12442017 -542.88493347 304.21572876 C-542.0819878 301.92075624 -541.12277614 300.54808137 -539.56340027 298.69082642 C-538.76579285 297.72789673 -538.76579285 297.72789673 -537.95207214 296.74551392 C-537.09258972 295.72651001 -537.09258972 295.72651001 -536.21574402 294.68692017 C-535.01773825 293.24145747 -533.82113783 291.79482895 -532.62590027 290.34707642 C-532.03309265 289.6305188 -531.44028503 288.91396118 -530.82951355 288.1756897 C-528.53836957 285.37199152 -526.34365083 282.50767394 -524.15324402 279.62442017 C-520.42663704 274.73815591 -516.60287796 269.94631674 -512.71574402 265.18692017 C-503.30979229 253.66782791 -494.19449162 241.93099512 -485.15324402 230.12442017 C-480.64760007 231.51159322 -476.57809476 233.3014913 -472.37590027 235.43301392 C-471.72866501 235.75923233 -471.08142975 236.08545074 -470.4145813 236.42155457 C-468.34634013 237.46451352 -466.28083615 238.51274167 -464.21574402 239.56192017 C-456.11559791 243.66927503 -448.00425505 247.73804506 -439.79495239 251.62371826 C-428.14313916 257.13938737 -416.60823059 262.86997282 -405.09074402 268.65957642 C-403.37849977 269.51967959 -401.6662551 270.37978192 -399.95401001 271.23988342 C-392.88147111 274.79389482 -385.8103344 278.35066665 -378.74308777 281.91519165 C-374.3619735 284.12458989 -369.97793958 286.32809802 -365.59199524 288.52789116 C-363.93874271 289.35852267 -362.28659992 290.19136706 -360.63563538 291.02653694 C-358.3408644 292.18719662 -356.04244878 293.34031842 -353.74308777 294.49185181 C-353.07503113 294.83205856 -352.40697449 295.17226532 -351.71867371 295.52278137 C-347.60041717 297.57319118 -343.67467292 299.1977976 -339.15324402 300.12442017 C-336.67334644 298.63392831 -335.10518675 297.41778352 -333.09074402 295.43692017 C-331.95240439 294.39665339 -330.81170274 293.35896648 -329.66886902 292.32363892 C-329.08814636 291.78787231 -328.50742371 291.25210571 -327.90910339 290.70010376 C-325.16477188 288.23737912 -322.26149331 285.99733103 -319.34074402 283.74942017 C-314.22456666 279.77176233 -309.17289049 275.72317453 -304.15324402 271.62442017 C-295.34849948 264.44121077 -286.41153756 257.43550381 -277.44206238 250.45986938 C-276.63723923 249.8339389 -275.83241608 249.20800842 -275.00320435 248.56311035 C-274.08747398 247.85095871 -274.08747398 247.85095871 -273.15324402 247.12442017 C-274.26509279 242.4475538 -275.37706361 237.7707168 -276.49015808 233.09414673 C-277.90753736 227.13911437 -279.32389109 221.18385034 -280.73522758 215.22738266 C-284.63520878 198.77176795 -288.58201784 182.32864096 -292.60273743 165.90206909 C-294.40623975 158.5327852 -296.19782892 151.16061771 -297.98704338 143.78785324 C-299.25891615 138.55070314 -300.5376598 133.31541027 -301.83103943 128.08352661 C-303.062272 123.10280045 -304.27719567 118.1183737 -305.4801178 113.1307373 C-305.93147303 111.27266197 -306.3890068 109.41607585 -306.85292053 107.56109619 C-307.48891745 105.01452728 -308.10320677 102.46366193 -308.71232605 99.91055298 C-309.00177691 98.78459906 -309.00177691 98.78459906 -309.29707527 97.63589859 C-309.77973938 95.55392456 -309.77973938 95.55392456 -310.15324402 92.12442017 C-307.83006493 88.49589761 -303.37441347 87.09024219 -299.57511902 85.28067017 C-298.44284882 84.73231506 -298.44284882 84.73231506 -297.28770447 84.17288208 C-294.82907556 82.98403229 -292.36626635 81.80413714 -289.90324402 80.62442017 C-288.20573162 79.80592135 -286.5084669 78.98690865 -284.81144714 78.16738892 C-280.66366915 76.16628889 -276.51246641 74.17243371 -272.35954285 72.18203735 C-270.40415887 71.24469937 -268.44939096 70.30609891 -266.49504089 69.36660767 C-261.78580846 67.1033906 -257.07316258 64.84799437 -252.35246277 62.60879517 C-248.62969302 60.84003593 -244.92904905 59.03106257 -241.23527527 57.20254517 C-239.78314636 56.49098267 -239.78314636 56.49098267 -238.30168152 55.76504517 C-236.46234493 54.86311152 -234.62738631 53.95217265 -232.79777527 53.03067017 C-231.57574402 52.43512329 -231.57574402 52.43512329 -230.32902527 51.82754517 C-229.61657654 51.47337524 -228.90412781 51.11920532 -228.17008972 50.75430298 C-225.69436142 49.98110615 -224.53841802 50.13673504 -222.15324402 51.12442017 C-220.14015303 53.33232641 -218.33181274 55.50598314 -216.52824402 57.87442017 C-216.00045349 58.55109741 -215.47266296 59.22777466 -214.92887878 59.92495728 C-213.32684243 61.98382337 -211.73876817 64.05282291 -210.15324402 66.12442017 C-209.2800253 67.25630043 -208.40636142 68.38783748 -207.53215027 69.51895142 C-205.89560257 71.64253572 -204.26265294 73.76847554 -202.63371277 75.89785767 C-200.08403611 79.22404971 -197.49699039 82.5200378 -194.90324402 85.81192017 C-190.69727464 91.15182249 -186.51235032 96.507627 -182.34074402 101.87442017 C-181.46083801 103.00641846 -181.46083801 103.00641846 -180.56315613 104.1612854 C-178.15559166 107.25934841 -175.7486695 110.35791017 -173.34172058 113.45645142 C-167.02620179 121.58567517 -160.70431267 129.7092353 -154.33610535 137.79727173 C-149.99286496 143.31797765 -145.68467361 148.86575208 -141.37541199 154.41299438 C-135.99388998 161.33720942 -130.58006692 168.23567763 -125.15324402 175.12442017 C-116.34152717 173.80176044 -107.68490484 171.96777511 -99.01246452 169.94982529 C-96.72212129 169.4169591 -94.43075481 168.88870265 -92.13909912 168.36151123 C-87.28871485 167.24483371 -82.43966334 166.12243906 -77.59074402 164.99942017 C-71.93571553 163.69008058 -66.28015485 162.38311771 -60.62335396 161.08145523 C-58.3675808 160.56119804 -56.11275218 160.03698006 -53.85794067 159.51257324 C-52.48172768 159.19533816 -51.10547361 158.87828121 -49.72917175 158.56143188 C-47.92814247 158.14412308 -47.92814247 158.14412308 -46.09072876 157.71838379 C-43.15324402 157.12442017 -43.15324402 157.12442017 -40.15324402 157.12442017 C-40.03562714 156.03230225 -39.91801025 154.94018433 -39.79682922 153.81497192 C-39.12912344 148.50005313 -37.9958575 143.30617535 -36.85588074 138.07559204 C-36.50676888 136.4538205 -36.50676888 136.4538205 -36.15060425 134.79928589 C-35.38135385 131.22985787 -34.60717938 127.66151722 -33.83293152 124.09317017 C-33.29033402 121.58057814 -32.74803167 119.06792237 -32.20600891 116.5552063 C-31.06646047 111.27574556 -29.92482073 105.99674444 -28.78117371 100.71817017 C-27.19420206 93.39339774 -25.61149987 86.06770816 -24.02980566 78.74179459 C-21.45589851 66.8208797 -18.87568387 54.90134467 -16.29003525 42.98297119 C-14.97564889 36.923221 -13.66465395 30.86276749 -12.3599453 24.80092621 C-11.69375546 21.707785 -11.02483513 18.61523968 -10.35506058 15.52287292 C-9.92565693 13.53573599 -9.49994132 11.5478032 -9.07435608 9.55984497 C-8.82855804 8.42808838 -8.58276001 7.29633179 -8.32951355 6.13027954 C-8.12343475 5.17359375 -7.91735596 4.21690796 -7.70503235 3.23123169 C-6.57974372 -1.06529096 -3.98789226 0.00684636 0 0 Z " fill="#000000" transform="translate(825.1532440185547,151.87557983398438)"/>
<path d="M0 0 C1.53500153 -0.00101212 1.53500153 -0.00101212 3.10101318 -0.00204468 C19.59146396 0.01518622 35.67932417 0.70532511 52 3.25 C53.69334473 3.50740967 53.69334473 3.50740967 55.42089844 3.77001953 C101.02655545 10.87170756 144.50094482 25.19268066 186 45.25 C186.95986816 45.70874512 187.91973633 46.16749023 188.90869141 46.64013672 C218.96652038 61.04403509 247.28661898 78.78834436 272 101.25 C272.62197266 101.81460938 273.24394531 102.37921875 273.88476562 102.9609375 C275.75695083 104.68204749 277.60113424 106.42828615 279.4375 108.1875 C280.01201904 108.71915771 280.58653809 109.25081543 281.1784668 109.79858398 C282.74609375 111.33984375 282.74609375 111.33984375 285 114.25 C284.77237101 118.75008669 282.62592908 121.68546091 280.1171875 125.32421875 C279.71546326 125.91212189 279.31373901 126.50002502 278.89984131 127.10574341 C277.56563519 129.05486134 276.22023374 130.99598056 274.875 132.9375 C273.92537304 134.32124391 272.97666021 135.70561556 272.02880859 137.09057617 C270.03344108 140.0049566 268.03446322 142.91681163 266.03320312 145.82714844 C261.67096064 152.17872692 257.36133851 158.56579762 253.05010986 164.95205688 C250.64235955 168.51769081 248.23110614 172.08095462 245.8203125 175.64453125 C244.8492668 177.08022935 243.87823815 178.51593898 242.90722656 179.95166016 C240.49788783 183.51393709 238.08837312 187.07609493 235.67871094 190.63815308 C234.72033327 192.05489148 233.762 193.47165991 232.80371094 194.88845825 C230.42520329 198.40486649 228.04592998 201.92075179 225.66503906 205.43554688 C221.17161163 212.07074742 216.68639269 218.71112383 212.22613525 225.36868286 C210.11965771 228.51193795 208.00908712 231.65243414 205.89819336 234.79272461 C204.89337473 236.29004771 203.89056193 237.7887191 202.88989258 239.28881836 C201.50197281 241.36917127 200.10719781 243.44477046 198.7109375 245.51953125 C198.30672577 246.12940384 197.90251404 246.73927643 197.48605347 247.36763 C194.956505 251.10814373 192.26681934 254.17013501 189 257.25 C188.23429687 256.19425781 188.23429687 256.19425781 187.453125 255.1171875 C157.97739317 215.08454462 117.83209515 183.07762005 67.74853516 174.70654297 C28.27127593 168.86472077 -10.9772627 173.3608646 -44 197.25 C-68.25177432 215.76027192 -85.76103507 242.35269624 -90.3125 272.8125 C-93.09483912 298.36186408 -88.20910485 324.06812518 -71.9375 344.625 C-70.63178715 346.17241924 -69.31989886 347.71466311 -68 349.25 C-67.52046875 349.86230469 -67.0409375 350.47460938 -66.546875 351.10546875 C-62.10973183 356.67739853 -56.57783073 360.87255295 -51 365.25 C-50.0203125 366.04535156 -49.040625 366.84070313 -48.03125 367.66015625 C-15.01448072 393.96518329 25.58208798 409.76933212 64.48999023 425.03271484 C86.30030425 433.61150582 107.75492105 442.95594573 128.8125 453.25 C129.4979187 453.58383698 130.1833374 453.91767395 130.88952637 454.2616272 C155.69523604 466.35991425 179.87121305 479.67372385 202 496.25 C202.81041748 496.85424805 202.81041748 496.85424805 203.63720703 497.47070312 C216.76884547 507.29122325 229.10677771 517.96822362 241 529.25 C241.825 530.03246094 242.65 530.81492187 243.5 531.62109375 C248.28935473 536.28572571 252.58105231 541.22382109 256.75390625 546.4453125 C258.21686491 548.27210262 259.70296955 550.08066949 261.21484375 551.8671875 C314.63132095 615.14083537 324.78298089 700.46930811 318.359375 780.15283203 C315.83731797 809.77736929 310.07397248 838.9452004 301 867.25 C300.55599854 868.65161377 300.55599854 868.65161377 300.10302734 870.08154297 C286.20259093 913.46502279 263.91571956 954.1799486 233.14453125 987.88671875 C231.26548887 989.9574303 229.43985594 992.06078337 227.625 994.1875 C220.62839953 1002.18361482 213.08784396 1009.42926624 204.765625 1016.03125 C202.97211476 1017.47011132 201.20882565 1018.94780595 199.484375 1020.46875 C184.11886898 1033.94726405 166.17538971 1044.97358305 148 1054.25 C147.08734375 1054.71857422 146.1746875 1055.18714844 145.234375 1055.66992188 C113.41683659 1071.85225457 80.16584304 1082.37312248 45 1088.25 C44.07687012 1088.40452637 43.15374023 1088.55905273 42.20263672 1088.71826172 C-26.42487395 1099.85347927 -101.91333567 1093.95399401 -165 1063.25 C-166.62103922 1062.48425956 -168.24213535 1061.71863958 -169.86328125 1060.953125 C-201.65726805 1045.71364157 -229.6937864 1023.65917209 -255.39941406 999.73291016 C-257.1304258 998.12916316 -258.8730624 996.53869009 -260.6171875 994.94921875 C-271.46170337 985.03345595 -271.46170337 985.03345595 -276.10546875 979.4609375 C-278.21949999 976.99384125 -280.42819551 974.63453331 -282.65380859 972.26831055 C-288.72785464 965.807421 -294.49919367 959.21111811 -300 952.25 C-300.98656022 951.04002287 -301.97357159 949.83041351 -302.9609375 948.62109375 C-310.6491635 939.08622537 -317.59676886 929.12836202 -324.375 918.9375 C-324.79520416 918.30637299 -325.21540833 917.67524597 -325.64834595 917.0249939 C-328.06937853 913.38050323 -330.46354056 909.71993999 -332.83483887 906.04290771 C-334.02486725 904.21173517 -335.23690282 902.39638613 -336.45019531 900.58056641 C-337.20989288 899.41497966 -337.9687202 898.24882511 -338.7265625 897.08203125 C-339.40541504 896.05440674 -340.08426758 895.02678223 -340.78369141 893.96801758 C-342 891.25 -342 891.25 -341.29492188 888.99023438 C-339.92373321 887.14750572 -338.5208938 885.54128954 -336.875 883.9375 C-336.33617188 883.40511719 -335.79734375 882.87273438 -335.2421875 882.32421875 C-333.33616709 880.56098384 -331.3945311 878.87094701 -329.42431641 877.1809082 C-324.7329746 873.08006296 -320.34996506 868.70867994 -315.96875 864.28125 C-315.13339722 863.4421106 -314.29804443 862.60297119 -313.43737793 861.73840332 C-310.78912914 859.078031 -308.14415594 856.41443987 -305.5 853.75 C-302.01337399 850.23662727 -298.52335074 846.72668029 -295.03125 843.21875 C-293.85121399 842.02626648 -293.85121399 842.02626648 -292.64733887 840.80969238 C-288.56865668 836.71315085 -284.40255734 832.81825496 -280.02258301 829.04772949 C-276.17434594 825.62730658 -272.58890928 821.93959622 -268.96875 818.28125 C-268.13339722 817.4421106 -267.29804443 816.60297119 -266.43737793 815.73840332 C-263.78912914 813.078031 -261.14415594 810.41443987 -258.5 807.75 C-255.01337399 804.23662727 -251.52335074 800.72668029 -248.03125 797.21875 C-246.85121399 796.02626648 -246.85121399 796.02626648 -245.64733887 794.80969238 C-241.48747211 790.63161079 -237.24069079 786.64024819 -232.77185059 782.79476929 C-230.43779565 780.75984806 -228.24407528 778.60688136 -226.0625 776.41015625 C-225.23105469 775.57548828 -224.39960938 774.74082031 -223.54296875 773.88085938 C-222.28419922 772.60952148 -222.28419922 772.60952148 -221 771.3125 C-219.69482422 770.00055664 -219.69482422 770.00055664 -218.36328125 768.66210938 C-216.23986451 766.52702551 -214.11883622 764.38962795 -212 762.25 C-209 763.25 -209 763.25 -208.08374023 764.88208008 C-207.82794189 765.58743896 -207.57214355 766.29279785 -207.30859375 767.01953125 C-207.00920898 767.81560791 -206.70982422 768.61168457 -206.40136719 769.43188477 C-206.08329102 770.29998779 -205.76521484 771.16809082 -205.4375 772.0625 C-196.41938093 795.50245235 -184.12516251 816.97547863 -168 836.25 C-167.50467773 836.84683594 -167.00935547 837.44367187 -166.49902344 838.05859375 C-133.83713467 877.29433568 -89.0697766 906.41773214 -37.53857422 911.73461914 C-6.33287093 914.56376374 25.57861304 908.22230354 51 889.25 C51.81210937 888.65960937 52.62421875 888.06921875 53.4609375 887.4609375 C65.96386067 877.95224189 76.615997 866.50950241 85 853.25 C85.38494629 852.64494629 85.76989258 852.03989258 86.16650391 851.41650391 C108.36040967 815.8895186 114.54608817 769.21414364 105.25 728.5625 C100.80427226 710.43437154 93.30701087 694.40540224 81 680.25 C79.95199219 679.00283203 79.95199219 679.00283203 78.8828125 677.73046875 C73.46811847 671.45828759 67.52958933 666.32662441 61 661.25 C59.58847656 660.09757812 59.58847656 660.09757812 58.1484375 658.921875 C31.11202492 637.26480032 -1.09041598 623.07527533 -33 610.25 C-39.25097112 607.73157532 -45.5008555 605.21045349 -51.75 602.6875 C-52.53682159 602.37007843 -53.32364319 602.05265686 -54.13430786 601.72561646 C-68.57644329 595.89349792 -82.83844677 589.73839388 -97 583.25 C-98.19641113 582.70520996 -99.39282227 582.16041992 -100.62548828 581.59912109 C-138.30450797 564.42699631 -175.80944598 545.65151705 -208 519.25 C-208.52561523 518.81913086 -209.05123047 518.38826172 -209.59277344 517.94433594 C-233.54504094 498.21810498 -254.45722481 476.30249495 -270 449.25 C-270.35271973 448.64027344 -270.70543945 448.03054688 -271.06884766 447.40234375 C-308.78517344 381.51939267 -310.13166621 294.07376021 -290.71484375 222.171875 C-285.21353425 202.76006517 -277.8738181 184.35108754 -269 166.25 C-268.56993652 165.36006348 -268.13987305 164.47012695 -267.69677734 163.55322266 C-256.35500224 140.25040028 -241.59002631 118.5407076 -224.03515625 99.46875 C-222.2045558 97.47300901 -220.44163517 95.43769389 -218.6875 93.375 C-211.45194559 85.07935273 -203.48311448 77.26095887 -195 70.25 C-194.27731934 69.64067627 -194.27731934 69.64067627 -193.54003906 69.01904297 C-178.50420247 56.38081275 -162.13746111 45.50088127 -144.82373047 36.23828125 C-143.07643233 35.29141875 -141.35195517 34.3028039 -139.62890625 33.3125 C-107.46280321 15.20309352 -70.50994342 5.36760923 -34 1.25 C-32.75935791 1.10643066 -32.75935791 1.10643066 -31.49365234 0.95996094 C-21.02800473 -0.08379802 -10.50686067 0.00623108 0 0 Z " fill="#000000" transform="translate(4218,516.75)"/>
<path d="M0 0 C1.2711969 0.00215515 2.5423938 0.0043103 3.85211182 0.00653076 C23.23282804 0.05913048 42.23351308 0.55408189 61.4375 3.3125 C62.84211641 3.50785556 64.24673904 3.70316635 65.65136719 3.8984375 C124.87631851 12.265755 180.96281199 31.6899429 233.4375 60.3125 C233.4375 140.5025 233.4375 220.6925 233.4375 303.3125 C229.68922687 302.06307562 228.82984825 300.55137049 226.4296875 297.4453125 C221.51451353 291.29389178 216.15476247 285.7329653 210.5625 280.1875 C209.64597656 279.26324219 208.72945312 278.33898437 207.78515625 277.38671875 C201.647508 271.26633533 195.25346116 265.66404829 188.4375 260.3125 C187.40278564 259.49676514 187.40278564 259.49676514 186.34716797 258.66455078 C141.84853927 224.00330984 86.89280746 200.34381791 30.4375 195.3125 C29.385625 195.20292969 28.33375 195.09335937 27.25 194.98046875 C-45.65042077 188.4089164 -117.96318228 211.28936066 -174.5625 257.3125 C-177.77887891 260.07251311 -180.87423288 262.94740389 -183.95703125 265.85546875 C-186.17592095 267.94794495 -188.43220601 269.95667409 -190.75 271.9375 C-197.92515566 278.17482411 -204.46351227 285.02856609 -210.5625 292.3125 C-211.0054541 292.83634277 -211.4484082 293.36018555 -211.90478516 293.89990234 C-226.72286877 311.48635949 -239.2920572 330.28154425 -250.5625 350.3125 C-251.01077148 351.10446777 -251.45904297 351.89643555 -251.92089844 352.71240234 C-259.60811925 366.41381143 -265.70854412 380.74819657 -271.5625 395.3125 C-271.90410156 396.15780273 -272.24570313 397.00310547 -272.59765625 397.87402344 C-291.68976052 445.66419659 -299.83129992 498.38030427 -299.75 549.6875 C-299.74906342 550.46485504 -299.74812683 551.24221008 -299.74716187 552.04312134 C-299.50977976 643.91233549 -267.96847667 735.29153414 -192.5625 819.3125 C-185.00850793 826.81235002 -176.83274031 833.50769201 -168.36572266 839.94189453 C-167.17452604 840.84730717 -165.98662116 841.75706888 -164.80224609 842.67138672 C-108.07858118 886.39095859 -35.09251456 905.65503084 35.9375 897.125 C39.78667789 896.60077802 43.61154798 895.9845824 47.4375 895.3125 C48.92709229 895.05509033 48.92709229 895.05509033 50.44677734 894.79248047 C101.60826527 885.67192845 148.95568805 861.44592271 189.4375 829.3125 C190.35917969 828.58546875 191.28085938 827.8584375 192.23046875 827.109375 C203.01034162 818.4605881 212.9024324 808.92947965 222.6875 799.1875 C223.43918457 798.44048828 224.19086914 797.69347656 224.96533203 796.92382812 C225.66255371 796.22451172 226.35977539 795.52519531 227.078125 794.8046875 C227.70235352 794.17933105 228.32658203 793.55397461 228.96972656 792.90966797 C230.5279927 791.36145695 230.5279927 791.36145695 231.4375 789.3125 C232.0975 789.3125 232.7575 789.3125 233.4375 789.3125 C233.4375 869.1725 233.4375 949.0325 233.4375 1031.3125 C219.61463805 1037.92343398 205.97641008 1044.43384473 191.8125 1050.1875 C190.58806686 1050.68759079 190.58806686 1050.68759079 189.33889771 1051.19778442 C138.59751289 1071.87295535 86.32333289 1088.05031196 31.4375 1092.3125 C30.71208008 1092.37034668 29.98666016 1092.42819336 29.23925781 1092.48779297 C-51.16909397 1098.58811142 -133.06662337 1083.28021618 -294.5625 997.3125 C-295.17448242 996.85359375 -295.78646484 996.3946875 -296.41699219 995.921875 C-311.49121731 984.56401009 -326.64969194 972.65632456 -339.8046875 959.07421875 C-341.67244349 957.20231219 -343.62154565 955.4754084 -345.625 953.75 C-351.37857515 948.78304645 -356.53345133 943.42447902 -361.48828125 937.66796875 C-363.57670448 935.29636948 -365.71740083 932.98387598 -367.87426758 930.67480469 C-373.71020273 924.42234254 -379.22620758 918.00077255 -384.5625 911.3125 C-385.48341185 910.18280792 -386.40534111 909.05394468 -387.328125 907.92578125 C-408.4492811 881.98813347 -426.74888387 853.76746613 -442.5625 824.3125 C-443.01947266 823.47090332 -443.47644531 822.62930664 -443.94726562 821.76220703 C-480.4410708 754.39187725 -501.78288425 680.63147179 -486.17636108 379.16479492 C-469.39349691 323.17248497 -445.02221476 268.39487636 -411.5625 220.3125 C-411.12228516 219.67683105 -410.68207031 219.04116211 -410.22851562 218.38623047 C-390.64718158 190.15799892 -368.55447491 164.25002567 -344.3125 139.9375 C-343.7928064 139.41512756 -343.27311279 138.89275513 -342.7376709 138.35455322 C-336.86067477 132.45460551 -330.92513263 126.69378653 -324.5625 121.3125 C-323.55277811 120.43559464 -322.54362623 119.55803232 -321.53515625 118.6796875 C-254.23777015 61.04783202 -172.93946954 21.9531297 -53.5625 2.3125 C-52.7026651 2.22636444 -51.8428302 2.14022888 -50.9569397 2.05148315 C-33.96067362 0.40366589 -17.06929021 -0.05239502 0 0 Z " fill="#000000" transform="translate(2854.5625,516.6875)"/>
<path d="M0 0 C15.9384858 7.9692429 15.9384858 7.9692429 21.75 11.5 C23.19330744 12.36185541 24.63737044 13.22244631 26.08203125 14.08203125 C26.8601416 14.54561035 27.63825195 15.00918945 28.43994141 15.48681641 C33.41549069 18.42773329 38.42870896 21.30369562 43.4375 24.1875 C44.54383789 24.82494141 45.65017578 25.46238281 46.79003906 26.11914062 C49.06155677 27.42779629 51.33320497 28.73622549 53.60498047 30.04443359 C59.0716998 33.19332054 64.53574887 36.34683264 70 39.5 C72.16665311 40.7500235 74.33331979 42.00002347 76.5 43.25 C89.5 50.75 102.5 58.25 115.5 65.75 C116.57266113 66.36883057 117.64532227 66.98766113 118.75048828 67.62524414 C120.91557071 68.87435518 123.08060982 70.12354129 125.24560547 71.37280273 C130.68615706 74.51202309 136.12747216 77.64990563 141.5703125 80.78515625 C152.02206199 86.80747329 162.46299548 92.84669337 172.875 98.9375 C181.55262241 104.01275123 190.26605568 109.02258767 199 114 C208.72115617 119.5400173 218.40894658 125.13374809 228.06689453 130.78344727 C238.59084625 136.93766742 249.15380137 143.02369996 259.71777344 149.10888672 C265.14659942 152.23680148 270.57319281 155.36858448 276 158.5 C278.16665583 159.75001879 280.3333225 161.00001878 282.5 162.25 C380 218.5 380 218.5 477.5 274.75 C478.57266113 275.36883057 479.64532227 275.98766113 480.75048828 276.62524414 C482.91557071 277.87435518 485.08060982 279.12354129 487.24560547 280.37280273 C492.68615706 283.51202309 498.12747216 286.64990563 503.5703125 289.78515625 C514.02206199 295.80747329 524.46299548 301.84669337 534.875 307.9375 C543.55262241 313.01275123 552.26605568 318.02258767 561 323 C570.72115617 328.5400173 580.40894658 334.13374809 590.06689453 339.78344727 C600.59084625 345.93766742 611.15380137 352.02369996 621.71777344 358.10888672 C628.22871257 361.86028024 634.73663194 365.61690994 641.24511719 369.37255859 C646.68585336 372.51182246 652.12731477 375.64981497 657.5703125 378.78515625 C659.19718994 379.72294922 659.19718994 379.72294922 660.85693359 380.6796875 C663.01786728 381.92465392 665.17963806 383.1681686 667.34228516 384.41015625 C672.86734236 387.58897935 678.36444735 390.80648864 683.828125 394.08984375 C684.92753418 394.745896 686.02694336 395.40194824 687.15966797 396.07788086 C689.25866843 397.33265919 691.35176627 398.59737985 693.43798828 399.87329102 C694.37368652 400.43072998 695.30938477 400.98816895 696.2734375 401.5625 C697.09247559 402.05878906 697.91151367 402.55507812 698.75537109 403.06640625 C701.45699704 404.19007578 702.32017686 404.08768529 705 403 C706.69593014 402.15745491 708.36573296 401.26150289 710.015625 400.33203125 C711.00667236 399.77596191 711.99771973 399.21989258 713.01879883 398.64697266 C714.08509521 398.04159668 715.1513916 397.4362207 716.25 396.8125 C717.36463623 396.1839209 718.47927246 395.5553418 719.62768555 394.90771484 C728.04978 390.14344986 736.41779247 385.28856856 744.76464844 380.39379883 C752.47828379 375.87328763 760.23156242 371.42529443 768 367 C777.72142984 361.46046897 787.40895304 355.86624813 797.06689453 350.21655273 C807.59084625 344.06233258 818.15380137 337.97630004 828.71777344 331.89111328 C834.14659942 328.76319852 839.57319281 325.63141552 845 322.5 C847.16665583 321.24998121 849.3333225 319.99998122 851.5 318.75 C852.5725 318.13125 853.645 317.5125 854.75 316.875 C1020.5 221.25 1020.5 221.25 1023.75048828 219.37475586 C1025.91557071 218.12564482 1028.08060982 216.87645871 1030.24560547 215.62719727 C1035.68615706 212.48797691 1041.12747216 209.35009437 1046.5703125 206.21484375 C1057.02206199 200.19252671 1067.46299548 194.15330663 1077.875 188.0625 C1087.14499777 182.64078822 1096.45831752 177.29795085 1105.78845215 171.98077393 C1114.9128284 166.77954871 1124.00132774 161.51972122 1133.06689453 156.21655273 C1143.59084625 150.06233258 1154.15380137 143.97630004 1164.71777344 137.89111328 C1170.14659942 134.76319852 1175.57319281 131.63141552 1181 128.5 C1183.16665583 127.24998121 1185.3333225 125.99998122 1187.5 124.75 C1188.5725 124.13125 1189.645 123.5125 1190.75 122.875 C1246 91 1301.25 59.125 1356.5 27.25 C1357.57435303 26.63012207 1358.64870605 26.01024414 1359.75561523 25.37158203 C1361.9033582 24.13261766 1364.05130455 22.89400576 1366.19946289 21.65576172 C1371.29179437 18.71985895 1376.38191695 15.78030245 1381.4649353 12.82830811 C1383.87434008 11.42931947 1386.2849009 10.03232971 1388.69555664 8.63549805 C1390.40298982 7.64501929 1392.10873972 6.6516406 1393.81445312 5.65820312 C1395.35842773 4.76391602 1395.35842773 4.76391602 1396.93359375 3.8515625 C1397.84165771 3.32385254 1398.74972168 2.79614258 1399.68530273 2.25244141 C1402 1 1402 1 1405 0 C1405 76.23 1405 152.46 1405 231 C1395.76 236.28 1386.52 241.56 1377 247 C1369.4038307 251.37684041 1361.80851981 255.75491277 1354.21777344 260.14111328 C1348.81329355 263.26324605 1343.40652588 266.38141204 1338 269.5 C1335.8333225 270.74998122 1333.66665583 271.99998121 1331.5 273.25 C1292.50000002 295.74999999 1292.50000002 295.74999999 1289.24951172 297.62524414 C1287.08442929 298.87435518 1284.91939018 300.12354129 1282.75439453 301.37280273 C1277.31384294 304.51202309 1271.87252784 307.64990563 1266.4296875 310.78515625 C1255.97793801 316.80747329 1245.53700452 322.84669337 1235.125 328.9375 C1225.85500223 334.35921178 1216.54168248 339.70204915 1207.21154785 345.01922607 C1198.0871716 350.22045129 1188.99867226 355.48027878 1179.93310547 360.78344727 C1169.40915375 366.93766742 1158.84619863 373.02369996 1148.28222656 379.10888672 C1142.85340058 382.23680148 1137.42680719 385.36858448 1132 388.5 C1129.83334417 389.75001879 1127.6666775 391.00001878 1125.5 392.25 C1124.4275 392.86875 1123.355 393.4875 1122.25 394.125 C930.50000001 504.74999999 930.50000001 504.74999999 927.24951172 506.62524414 C925.08442929 507.87435518 922.91939018 509.12354129 920.75439453 510.37280273 C915.31384294 513.51202309 909.87252784 516.64990563 904.4296875 519.78515625 C893.97793801 525.80747329 883.53700452 531.84669337 873.125 537.9375 C863.85500223 543.35921178 854.54168248 548.70204915 845.21154785 554.01922607 C836.0871716 559.22045129 826.99867226 564.48027878 817.93310547 569.78344727 C807.40915375 575.93766742 796.84619863 582.02369996 786.28222656 588.10888672 C780.85340058 591.23680148 775.42680719 594.36858448 770 597.5 C767.83334417 598.75001879 765.6666775 600.00001878 763.5 601.25 C761.89125 602.178125 761.89125 602.178125 760.25 603.125 C757 605 753.75 606.875 750.5 608.75 C749.42564697 609.36987793 748.35129395 609.98975586 747.24438477 610.62841797 C745.0966418 611.86738234 742.94869545 613.10599424 740.80053711 614.34423828 C735.70820563 617.28014105 730.61808305 620.21969755 725.5350647 623.17169189 C723.12565992 624.57068053 720.7150991 625.96767029 718.30444336 627.36450195 C716.59701018 628.35498071 714.89126028 629.3483594 713.18554688 630.34179688 C711.64157227 631.23608398 711.64157227 631.23608398 710.06640625 632.1484375 C709.15834229 632.67614746 708.25027832 633.20385742 707.31469727 633.74755859 C705 635 705 635 702 636 C699.74536133 635.05053711 699.74536133 635.05053711 697.08203125 633.52734375 C696.0876001 632.96474854 695.09316895 632.40215332 694.06860352 631.82250977 C692.99408936 631.20045654 691.9195752 630.57840332 690.8125 629.9375 C689.13595337 628.98218384 689.13595337 628.98218384 687.42553711 628.00756836 C683.942849 626.01756581 680.47009693 624.01186531 677 622 C675.97455078 621.40606445 674.94910156 620.81212891 673.89257812 620.20019531 C668.95116522 617.33313621 664.01821188 614.45191671 659.08984375 611.5625 C652.78429581 607.8678669 646.45705564 604.21147319 640.125 600.5625 C639.04484619 599.93996338 637.96469238 599.31742676 636.85180664 598.67602539 C634.66203666 597.41423174 632.47217645 596.15259466 630.28222656 594.89111328 C624.85340058 591.76319852 619.42680719 588.63141552 614 585.5 C611.83334417 584.24998121 609.6666775 582.99998122 607.5 581.75 C533.83333333 539.25 460.16666667 496.75 386.5 454.25 C385.42733887 453.63116943 384.35467773 453.01233887 383.24951172 452.37475586 C381.08442929 451.12564482 378.91939018 449.87645871 376.75439453 448.62719727 C371.31384294 445.48797691 365.87252784 442.35009437 360.4296875 439.21484375 C349.97793801 433.19252671 339.53700452 427.15330663 329.125 421.0625 C320.44737759 415.98724877 311.73394432 410.97741233 303 406 C293.27884383 400.4599827 283.59105342 394.86625191 273.93310547 389.21655273 C263.40915375 383.06233258 252.84619863 376.97630004 242.28222656 370.89111328 C236.85340058 367.76319852 231.42680719 364.63141552 226 361.5 C223.83334417 360.24998121 221.6666775 358.99998122 219.5 357.75 C171.83333333 330.25 124.16666667 302.75 76.5 275.25 C75.42733887 274.63116943 74.35467773 274.01233887 73.24951172 273.37475586 C71.08442929 272.12564482 68.91939018 270.87645871 66.75439453 269.62719727 C61.31384294 266.48797691 55.87252784 263.35009437 50.4296875 260.21484375 C38.54208142 253.36527208 26.66958832 246.49108041 14.82568359 239.56616211 C13.89965332 239.02483643 12.97362305 238.48351074 12.01953125 237.92578125 C11.21620361 237.45567627 10.41287598 236.98557129 9.58520508 236.5012207 C6.39948708 234.65128398 3.19851453 232.82772259 0 231 C0 154.77 0 78.54 0 0 Z " fill="#000000" transform="translate(164,1315)"/>
<path d="M0 0 C66.99 0 133.98 0 203 0 C203 284.13 203 568.26 203 861 C297.38 861 391.76 861 489 861 C489 919.41 489 977.82 489 1038 C327.63 1038 166.26 1038 0 1038 C0 695.46 0 352.92 0 0 Z " fill="#000000" transform="translate(1874,544)"/>
<path d="M0 0 C66.99 0 133.98 0 203 0 C203 342.54 203 685.08 203 1038 C136.01 1038 69.02 1038 0 1038 C0 695.46 0 352.92 0 0 Z " fill="#000000" transform="translate(3570,544)"/>
<path d="M0 0 C66.99 0 133.98 0 203 0 C203 342.54 203 685.08 203 1038 C136.01 1038 69.02 1038 0 1038 C0 695.46 0 352.92 0 0 Z " fill="#000000" transform="translate(3220,544)"/>
</svg>
