<?xml version="1.0" encoding="UTF-8"?>
<svg version="1.1" xmlns="http://www.w3.org/2000/svg" width="263" height="148">
<path d="M0 0 C86.79 0 173.58 0 263 0 C263 48.84 263 97.68 263 148 C176.21 148 89.42 148 0 148 C0 99.16 0 50.32 0 0 Z " fill="#FEFDFD" transform="translate(0,0)"/>
<path d="M0 0 C1.32161133 -0.01740234 1.32161133 -0.01740234 2.66992188 -0.03515625 C7.99707436 -0.01121399 11.33909973 0.72545682 16.0625 3.375 C18.43613241 3.76712446 18.43613241 3.76712446 20.6875 3.625 C21.42226562 3.60953125 22.15703125 3.5940625 22.9140625 3.578125 C25.05073894 3.37611195 26.99877515 2.95396353 29.0625 2.375 C30.09575986 3.80359407 31.11377634 5.24322383 32.125 6.6875 C32.69347656 7.48800781 33.26195313 8.28851563 33.84765625 9.11328125 C34.24855469 9.85964844 34.64945312 10.60601562 35.0625 11.375 C34.0625 14.375 34.0625 14.375 32 15.875 C29.24715512 19.42705791 29.51832066 22.36418605 29.65234375 26.7578125 C30.18740161 30.1719912 31.80743443 31.82895823 34.0625 34.375 C33.75 37.5625 33.75 37.5625 33.0625 40.375 C33.3925 41.035 33.7225 41.695 34.0625 42.375 C34.55578755 48.22975711 34.91994288 53.56484281 32.375 58.9375 C26.48854755 65.14213907 26.48854755 65.14213907 21.9765625 65.87890625 C20.89117187 65.89824219 19.80578125 65.91757813 18.6875 65.9375 C10.78644216 66.32987759 6.10929604 68.06114893 0.0625 73.375 C-0.62585937 72.74271484 -0.62585937 72.74271484 -1.328125 72.09765625 C-1.94171875 71.54980469 -2.5553125 71.00195312 -3.1875 70.4375 C-3.79078125 69.89222656 -4.3940625 69.34695312 -5.015625 68.78515625 C-8.83251293 65.98455352 -12.63979181 66.30126542 -17.25 66.1875 C-22.69957403 65.80174364 -25.73825817 64.92110607 -29.66796875 61.140625 C-32.63539226 57.01362369 -33.19468163 53.32324258 -33.125 48.3125 C-33.11855469 47.29027344 -33.11210938 46.26804688 -33.10546875 45.21484375 C-32.9606738 42.76679892 -32.53733318 40.73223917 -31.9375 38.375 C-32.2778125 37.4159375 -32.2778125 37.4159375 -32.625 36.4375 C-32.7796875 35.4165625 -32.7796875 35.4165625 -32.9375 34.375 C-31.9784375 33.3540625 -31.9784375 33.3540625 -31 32.3125 C-28.28088406 28.43981972 -28.320675 25.62520971 -28.46484375 20.98046875 C-29.18422654 17.01494541 -30.73335706 15.69800363 -33.9375 13.375 C-32.48705729 9.26541233 -30.42639248 5.94241255 -27.9375 2.375 C-27.36902344 2.53484375 -26.80054688 2.6946875 -26.21484375 2.859375 C-23.91829652 3.37934796 -21.85180286 3.57608902 -19.5 3.625 C-18.38818359 3.66367187 -18.38818359 3.66367187 -17.25390625 3.703125 C-14.82472964 3.53489863 -14.82472964 3.53489863 -12.7734375 1.8828125 C-8.5736081 -0.35015465 -4.68195338 -0.06138031 0 0 Z " fill="#F7E7EA" transform="translate(48.9375,36.625)"/>
<path d="M0 0 C4.29 0 8.58 0 13 0 C13 1.32 13 2.64 13 4 C20.92 4 28.84 4 37 4 C37 7.63 37 11.26 37 15 C38.45940117 17.64335783 38.45940117 17.64335783 40.06982422 20.19433594 C41.9785609 23.89958961 41.61368726 28.04808501 41.5625 32.125 C41.59827148 33.44564453 41.59827148 33.44564453 41.63476562 34.79296875 C41.62454042 39.31250854 41.47373723 41.37418913 38.67578125 45.0703125 C35.34508889 47.47230086 33.07147535 47.7192086 29 48 C22.99882955 48.55566393 18.35637919 50.38861332 13 53 C12.67 50.36 12.34 47.72 12 45 C5.4 45.33 -1.2 45.66 -8 46 C-8 38.41 -8 30.82 -8 23 C-5.36 22.34 -2.72 21.68 0 21 C0.99 20.67 1.98 20.34 3 20 C4.56118428 19.93259135 6.1250252 19.91485544 7.6875 19.9375 C8.89986328 19.95103516 8.89986328 19.95103516 10.13671875 19.96484375 C10.75160156 19.97644531 11.36648437 19.98804687 12 20 C12 19.01 12 18.02 12 17 C4.08 17 -3.84 17 -12 17 C-12 16.34 -12 15.68 -12 15 C-4.08 15 3.84 15 12 15 C12 13.35 12 11.7 12 10 C12 8.33333333 12 6.66666667 12 5 C11.01 5 10.02 5 9 5 C8.67 6.65 8.34 8.3 8 10 C8.66 10 9.32 10 10 10 C10 10.99 10 11.98 10 13 C8.35 13 6.7 13 5 13 C5 10.36 5 7.72 5 5 C3.35 5 1.7 5 0 5 C0 3.35 0 1.7 0 0 Z " fill="#EECED3" transform="translate(37,50)"/>
<path d="M0 0 C1.32161133 -0.01740234 1.32161133 -0.01740234 2.66992188 -0.03515625 C7.99707436 -0.01121399 11.33909973 0.72545682 16.0625 3.375 C18.43613241 3.76712446 18.43613241 3.76712446 20.6875 3.625 C21.42226562 3.60953125 22.15703125 3.5940625 22.9140625 3.578125 C25.05073894 3.37611195 26.99877515 2.95396353 29.0625 2.375 C30.09575986 3.80359407 31.11377634 5.24322383 32.125 6.6875 C32.69347656 7.48800781 33.26195313 8.28851563 33.84765625 9.11328125 C34.24855469 9.85964844 34.64945312 10.60601562 35.0625 11.375 C34.0625 14.375 34.0625 14.375 32 15.875 C29.24715512 19.42705791 29.51832066 22.36418605 29.65234375 26.7578125 C30.18740161 30.1719912 31.80743443 31.82895823 34.0625 34.375 C33.75 37.5625 33.75 37.5625 33.0625 40.375 C33.3925 41.035 33.7225 41.695 34.0625 42.375 C34.55578755 48.22975711 34.91994288 53.56484281 32.375 58.9375 C26.48854755 65.14213907 26.48854755 65.14213907 21.9765625 65.87890625 C20.89117187 65.89824219 19.80578125 65.91757813 18.6875 65.9375 C10.78644216 66.32987759 6.10929604 68.06114893 0.0625 73.375 C-0.62585937 72.74271484 -0.62585937 72.74271484 -1.328125 72.09765625 C-1.94171875 71.54980469 -2.5553125 71.00195312 -3.1875 70.4375 C-3.79078125 69.89222656 -4.3940625 69.34695312 -5.015625 68.78515625 C-8.83251293 65.98455352 -12.63979181 66.30126542 -17.25 66.1875 C-22.69957403 65.80174364 -25.73825817 64.92110607 -29.66796875 61.140625 C-32.63539226 57.01362369 -33.19468163 53.32324258 -33.125 48.3125 C-33.11855469 47.29027344 -33.11210938 46.26804688 -33.10546875 45.21484375 C-32.9606738 42.76679892 -32.53733318 40.73223917 -31.9375 38.375 C-32.2778125 37.4159375 -32.2778125 37.4159375 -32.625 36.4375 C-32.7796875 35.4165625 -32.7796875 35.4165625 -32.9375 34.375 C-31.9784375 33.3540625 -31.9784375 33.3540625 -31 32.3125 C-28.28088406 28.43981972 -28.320675 25.62520971 -28.46484375 20.98046875 C-29.18422654 17.01494541 -30.73335706 15.69800363 -33.9375 13.375 C-32.48705729 9.26541233 -30.42639248 5.94241255 -27.9375 2.375 C-27.36902344 2.53484375 -26.80054688 2.6946875 -26.21484375 2.859375 C-23.91829652 3.37934796 -21.85180286 3.57608902 -19.5 3.625 C-18.38818359 3.66367187 -18.38818359 3.66367187 -17.25390625 3.703125 C-14.82472964 3.53489863 -14.82472964 3.53489863 -12.7734375 1.8828125 C-8.5736081 -0.35015465 -4.68195338 -0.06138031 0 0 Z M-16.9375 5.375 C-19.63065112 5.94129662 -22.18551397 6.13359772 -24.9375 6.375 C-24.6075 7.035 -24.2775 7.695 -23.9375 8.375 C-22.019375 8.4059375 -22.019375 8.4059375 -20.0625 8.4375 C-19.34320313 8.44910156 -18.62390625 8.46070313 -17.8828125 8.47265625 C-15.85564596 8.50149242 -15.85564596 8.50149242 -13.9375 7.375 C-13.9375 8.695 -13.9375 10.015 -13.9375 11.375 C-18.8875 11.045 -23.8375 10.715 -28.9375 10.375 C-29.24193269 14.13975117 -29.24193269 14.13975117 -27.95703125 16.28515625 C-25.98451331 20.32844016 -26.48474343 24.98522973 -26.9375 29.375 C-28.4375 32.125 -28.4375 32.125 -29.9375 34.375 C-30.01655064 36.70699388 -30.02548769 39.04332622 -29.9375 41.375 C-30.2675 42.035 -30.5975 42.695 -30.9375 43.375 C-31.49142533 49.29774007 -31.50239548 54.38414632 -27.9375 59.375 C-23.27816538 63.79539439 -19.06647437 63.67347509 -12.984375 63.9609375 C-8.93144424 64.5117204 -6.15762665 66.09435809 -2.77734375 68.31640625 C-0.85789156 69.62435657 -0.85789156 69.62435657 2.0625 69.375 C3.40047302 68.60516839 4.71010083 67.78542254 6 66.9375 C9.85928374 64.67994513 12.79302541 64.02315303 17.25 63.8125 C22.29754984 63.56847087 25.26645033 62.97638045 29.0625 59.375 C33.1448053 53.65977258 32.66402457 47.2419437 31.625 40.5625 C31.439375 39.840625 31.25375 39.11875 31.0625 38.375 C30.918125 37.529375 30.77375 36.68375 30.625 35.8125 C30.19210891 33.40521168 30.19210891 33.40521168 29.05078125 31.59765625 C27.789803 28.76170121 27.72620507 26.47140577 27.6875 23.375 C27.65914062 22.34375 27.63078125 21.3125 27.6015625 20.25 C28.16823309 16.71551224 29.44138394 15.70026732 32.0625 13.375 C31.95797609 10.03023479 30.29183086 7.78468122 28.0625 5.375 C25.78455595 5.00345997 25.78455595 5.00345997 23.3125 5.3125 C19.79608736 5.61659229 18.15656081 5.41867109 14.890625 3.90234375 C10.22094744 1.74442513 5.62613325 1.93554074 0.5625 2 C-0.34886719 1.98839844 -1.26023437 1.97679687 -2.19921875 1.96484375 C-7.94832501 1.98973166 -11.78735611 2.8676083 -16.9375 5.375 Z " fill="#BD2636" transform="translate(48.9375,36.625)"/>
<path d="M0 0 C0.33 0.66 0.66 1.32 1 2 C3.01669827 3.13350534 3.01669827 3.13350534 5 4 C3.68 4 2.36 4 1 4 C1 4.66 1 5.32 1 6 C8.92 6 16.84 6 25 6 C25 6.99 25 7.98 25 9 C24.15695313 9.13277344 23.31390625 9.26554687 22.4453125 9.40234375 C21.34960938 9.57894531 20.25390625 9.75554687 19.125 9.9375 C17.48917969 10.19853516 17.48917969 10.19853516 15.8203125 10.46484375 C13.06178454 10.85551159 13.06178454 10.85551159 11 12 C9.02 12 7.04 12 5 12 C5 19.59 5 27.18 5 35 C8.0009375 34.505 8.0009375 34.505 11.0625 34 C15.78725999 33.27351019 20.22901648 32.67470567 25 33 C26 34 26 34 26.09765625 35.84765625 C26.06510417 37.8984375 26.03255208 39.94921875 26 42 C26.99 42.33 27.98 42.66 29 43 C27.68 43.99 26.36 44.98 25 46 C24.44570313 45.65066406 23.89140625 45.30132812 23.3203125 44.94140625 C22.59585938 44.48636719 21.87140625 44.03132813 21.125 43.5625 C20.40570313 43.11003906 19.68640625 42.65757813 18.9453125 42.19140625 C15.50649125 40.08530086 13.28454659 39.86313325 9.25 39.6875 C4.10396176 39.28074728 0.86350624 38.66537772 -3 35 C-7.23034357 29.077519 -6.45694399 22.52499652 -5.5625 15.625 C-4.69625725 11.58253383 -3.65869878 8.02553282 -1.9375 4.25 C-1.57527344 3.45078125 -1.21304687 2.6515625 -0.83984375 1.828125 C-0.56269531 1.22484375 -0.28554688 0.6215625 0 0 Z " fill="#FBF3F4" transform="translate(24,61)"/>
<path d="M0 0 C3.91627663 -0.14522934 7.83186153 -0.23404757 11.75 -0.3125 C13.41675781 -0.3753418 13.41675781 -0.3753418 15.1171875 -0.43945312 C23.19139022 -0.56105256 23.19139022 -0.56105256 26.73046875 1.89453125 C28.53890454 6.31824341 28.62086971 10.26175278 28.5625 15 C28.58634766 15.88945313 28.61019531 16.77890625 28.63476562 17.6953125 C28.62458134 22.24429241 28.48593123 24.35644738 25.67578125 28.078125 C22.34515684 30.4703399 20.06612892 30.71957732 16 31 C9.99882955 31.55566393 5.35637919 33.38861332 0 36 C-0.1953125 33.98177083 -0.390625 31.96354167 -0.5859375 29.9453125 C-0.86374749 27.77331755 -0.86374749 27.77331755 -3 26 C-1.41870971 25.77668801 0.16521089 25.57195356 1.75 25.375 C3.07257812 25.20097656 3.07257812 25.20097656 4.421875 25.0234375 C7.31924163 24.9970978 8.48062336 25.66338415 11 27 C12.98 27.33 14.96 27.66 17 28 C17 21.07 17 14.14 17 7 C15.02 7 13.04 7 11 7 C10.34 6.67 9.68 6.34 9 6 C9 5.34 9 4.68 9 4 C6.03 4 3.06 4 0 4 C0 2.68 0 1.36 0 0 Z " fill="#BA102F" transform="translate(50,67)"/>
<path d="M0 0 C0 6.6 0 13.2 0 20 C-1.69125 20.309375 -3.3825 20.61875 -5.125 20.9375 C-6.07632813 21.11152344 -7.02765625 21.28554687 -8.0078125 21.46484375 C-11.00107815 22.00019283 -14.00061014 22.50010169 -17 23 C-17 16.07 -17 9.14 -17 2 C-7 -1 -7 -1 0 0 Z " fill="#FCF7F8" transform="translate(48,72)"/>
<path d="M0 0 C8 0 8 0 16 2 C16 8.93 16 15.86 16 23 C9.76470588 23 9.76470588 23 6 21 C4.02 20.67 2.04 20.34 0 20 C0 13.4 0 6.8 0 0 Z " fill="#FCF8F8" transform="translate(51,72)"/>
<path d="M0 0 C0.66 0 1.32 0 2 0 C2 0.99 2 1.98 2 3 C3.65 3 5.3 3 7 3 C7.33 3.66 7.66 4.32 8 5 C8.556875 4.505 9.11375 4.01 9.6875 3.5 C12.4411615 1.71384119 13.77756457 1.5042407 17 2 C18.640625 3.16796875 18.640625 3.16796875 20 5 C20.29296875 7.69921875 20.29296875 7.69921875 20.1875 10.6875 C20.16042969 11.68136719 20.13335937 12.67523438 20.10546875 13.69921875 C20.07066406 14.45847656 20.03585938 15.21773437 20 16 C16.87507749 16.05791844 13.75029234 16.09356746 10.625 16.125 C9.73554688 16.14175781 8.84609375 16.15851563 7.9296875 16.17578125 C7.07890625 16.18222656 6.228125 16.18867187 5.3515625 16.1953125 C4.17327881 16.21102295 4.17327881 16.21102295 2.97119141 16.22705078 C1 16 1 16 -1 14 C-1.1953125 11.8359375 -1.1953125 11.8359375 -1.125 9.375 C-1.10695312 8.55773437 -1.08890625 7.74046875 -1.0703125 6.8984375 C-1.04710937 6.27195312 -1.02390625 5.64546875 -1 5 C-1.66 5 -2.32 5 -3 5 C-3 4.34 -3 3.68 -3 3 C-2.01 3 -1.02 3 0 3 C0 2.01 0 1.02 0 0 Z " fill="#F8EBED" transform="translate(187,78)"/>
<path d="M0 0 C1.32161133 -0.01740234 1.32161133 -0.01740234 2.66992188 -0.03515625 C7.90058295 -0.01164766 11.50127275 0.53456524 16.0625 3.375 C14.125 3.9375 14.125 3.9375 12.0625 4.375 C11.5675 3.88 11.5675 3.88 11.0625 3.375 C7.69593503 3.09395612 4.31438666 3.14310663 0.9375 3.125 C-0.47015625 3.0940625 -0.47015625 3.0940625 -1.90625 3.0625 C-7.78638752 3.02955805 -11.68573223 3.75915134 -16.9375 6.375 C-19.25939536 6.7804103 -21.59265344 7.13572994 -23.9375 7.375 C-20.6375 7.375 -17.3375 7.375 -13.9375 7.375 C-13.9375 8.695 -13.9375 10.015 -13.9375 11.375 C-15.52691406 11.34019531 -15.52691406 11.34019531 -17.1484375 11.3046875 C-18.5364513 11.28593056 -19.9244727 11.26773028 -21.3125 11.25 C-22.01117188 11.23324219 -22.70984375 11.21648438 -23.4296875 11.19921875 C-25.26647486 11.18155733 -27.10351963 11.27196739 -28.9375 11.375 C-29.5975 12.035 -30.2575 12.695 -30.9375 13.375 C-31.9275 13.375 -32.9175 13.375 -33.9375 13.375 C-32.48705729 9.26541233 -30.42639248 5.94241255 -27.9375 2.375 C-27.36902344 2.53484375 -26.80054688 2.6946875 -26.21484375 2.859375 C-23.91829652 3.37934796 -21.85180286 3.57608902 -19.5 3.625 C-18.38818359 3.66367187 -18.38818359 3.66367187 -17.25390625 3.703125 C-14.82472964 3.53489863 -14.82472964 3.53489863 -12.7734375 1.8828125 C-8.5736081 -0.35015465 -4.68195338 -0.06138031 0 0 Z " fill="#C03444" transform="translate(48.9375,36.625)"/>
<path d="M0 0 C4.41880537 2.20940269 5.37854717 3.98043899 8 8 C8.66 8 9.32 8 10 8 C11.51199628 6.2072358 11.51199628 6.2072358 13 4 C14.5625 1.75 14.5625 1.75 16 0 C16.66 0 17.32 0 18 0 C18 5.94 18 11.88 18 18 C17.01 18 16.02 18 15 18 C15 14.7 15 11.4 15 8 C13.35 9.65 11.7 11.3 10 13 C6.83884224 11.63016497 6.0072908 11.0109362 4 8 C3.67 11.3 3.34 14.6 3 18 C2.01 18 1.02 18 0 18 C0 12.06 0 6.12 0 0 Z " fill="#BB1631" transform="translate(142,76)"/>
<path d="M0 0 C4.29 0 8.58 0 13 0 C13 1.32 13 2.64 13 4 C16.96 4 20.92 4 25 4 C25 5.32 25 6.64 25 8 C20.71 8 16.42 8 12 8 C12 7.01 12 6.02 12 5 C11.01 5 10.02 5 9 5 C8.67 6.65 8.34 8.3 8 10 C8.66 10 9.32 10 10 10 C10 10.99 10 11.98 10 13 C8.35 13 6.7 13 5 13 C5 10.36 5 7.72 5 5 C3.35 5 1.7 5 0 5 C0 3.35 0 1.7 0 0 Z " fill="#E6B4BC" transform="translate(37,50)"/>
<path d="M0 0 C2.93189592 3.02351766 3.96942821 4.39875472 4.1875 8.6875 C4.0946875 10.3271875 4.0946875 10.3271875 4 12 C4.33 12.66 4.66 13.32 5 14 C5.55392533 19.92274007 5.56489548 25.00914632 2 30 C-2.64005976 34.40210797 -6.99190894 34.41577068 -13.07421875 34.71875 C-16.92252618 35.08868075 -19.59736347 36.22134909 -23 38 C-23.66 37.34 -24.32 36.68 -25 36 C-18.84415092 32.33268566 -14.38096152 30.60933237 -7.203125 31.015625 C-4.11704095 30.99373788 -2.33276021 29.95650856 0 28 C1.80504424 24.38991151 1.18469906 20.16202835 1.1875 16.1875 C1.19974609 15.28451172 1.21199219 14.38152344 1.22460938 13.45117188 C1.23470822 8.86966261 1.20121607 5.15011884 -1 1 C-0.67 0.67 -0.34 0.34 0 0 Z " fill="#F0D4D8" transform="translate(76,66)"/>
<path d="M0 0 C2.375 1.1875 2.375 1.1875 4 3 C4 4.65 4 6.3 4 8 C0.7 8 -2.6 8 -6 8 C-5.67 8.66 -5.34 9.32 -5 10 C-2.36 10 0.28 10 3 10 C2 13 2 13 0 14 C-2.875 14.375 -2.875 14.375 -6 14 C-8.62846098 11.57904909 -9.81388233 9.95385308 -10.5 6.4375 C-9.30437154 0.60881127 -5.52886037 -0.80629214 0 0 Z " fill="#C23146" transform="translate(189,54)"/>
<path d="M0 0 C4.29 0 8.58 0 13 0 C13 1.98 13 3.96 13 6 C11.35 6 9.7 6 8 6 C7.01879536 9.05263664 7.01879536 10.94736336 8 14 C5.69 14 3.38 14 1 14 C0.63794536 12.04310963 0.28558579 10.08442332 -0.0625 8.125 C-0.25972656 7.03445312 -0.45695312 5.94390625 -0.66015625 4.8203125 C-1 2 -1 2 0 0 Z " fill="#F6E4E7" transform="translate(22,49)"/>
<path d="M0 0 C0.99 0 1.98 0 3 0 C3.06058594 0.99902344 3.12117188 1.99804688 3.18359375 3.02734375 C3.26738281 4.31769531 3.35117188 5.60804687 3.4375 6.9375 C3.51871094 8.22527344 3.59992188 9.51304688 3.68359375 10.83984375 C3.64919188 13.86023957 3.64919188 13.86023957 5 15 C7.5 15.16666667 7.5 15.16666667 10 15 C11.94090826 13.05909174 11.39919435 9.52706098 11.5625 6.9375 C11.64628906 5.64714844 11.73007813 4.35679688 11.81640625 3.02734375 C11.87699219 2.02832031 11.93757812 1.02929688 12 0 C12.99 0 13.98 0 15 0 C15.10853983 2.22808159 15.18583307 4.45769932 15.25 6.6875 C15.29640625 7.92886719 15.3428125 9.17023437 15.390625 10.44921875 C14.93533366 14.58781707 14.00015218 16.16474981 11 19 C7.5 19.625 7.5 19.625 4 19 C0.99984782 16.16474981 0.06466634 14.58781707 -0.390625 10.44921875 C-0.34421875 9.20785156 -0.2978125 7.96648438 -0.25 6.6875 C-0.21390625 5.43324219 -0.1778125 4.17898437 -0.140625 2.88671875 C-0.07101563 1.45779297 -0.07101563 1.45779297 0 0 Z " fill="#C13245" transform="translate(124,49)"/>
<path d="M0 0 C5.625 -0.25 5.625 -0.25 9 2 C9.29296875 4.8203125 9.29296875 4.8203125 9.1875 8.125 C9.16042969 9.22070312 9.13335937 10.31640625 9.10546875 11.4453125 C9.07066406 12.28835937 9.03585938 13.13140625 9 14 C7.54207116 14.05399736 6.08357288 14.09279177 4.625 14.125 C3.81289062 14.14820312 3.00078125 14.17140625 2.1640625 14.1953125 C0 14 0 14 -2 12 C-2.125 9.375 -2.125 9.375 -2 7 C0.70879335 5.64560332 3.00933268 5.93498549 6 6 C6 5.01 6 4.02 6 3 C3.36 3.33 0.72 3.66 -2 4 C-1.34 2.68 -0.68 1.36 0 0 Z " fill="#C3384D" transform="translate(238,54)"/>
<path d="M0 0 C0 0.33 0 0.66 0 1 C-5.47121309 2.46550351 -10.26062468 3.28257809 -16 4 C-16 10.93 -16 17.86 -16 25 C-12.7 24.01 -9.4 23.02 -6 22 C-3.36 22 -0.72 22 2 22 C2 15.73 2 9.46 2 3 C2.33 3 2.66 3 3 3 C3 9.6 3 16.2 3 23 C-4.37181151 24.68498549 -10.41037306 26 -18 26 C-18 18.41 -18 10.82 -18 3 C-15.36 2.34 -12.72 1.68 -10 1 C-6.52674819 -0.1577506 -3.63932552 -0.06866652 0 0 Z " fill="#C74F5E" transform="translate(47,70)"/>
<path d="M0 0 C2.20914 3.31371 2.22481553 4.3446021 2.125 8.1875 C2.10695313 9.08855469 2.08890625 9.98960938 2.0703125 10.91796875 C2.03550781 11.94857422 2.03550781 11.94857422 2 13 C0.37509046 13.02698189 -1.24994633 13.04638757 -2.875 13.0625 C-4.23238281 13.07990234 -4.23238281 13.07990234 -5.6171875 13.09765625 C-8 13 -8 13 -10 12 C-9.125 7.125 -9.125 7.125 -8 6 C-5.66702567 5.95907063 -3.33294775 5.95758277 -1 6 C-1.33 5.01 -1.66 4.02 -2 3 C-4.31 3 -6.62 3 -9 3 C-8.67 2.01 -8.34 1.02 -8 0 C-5.06791253 -1.46604374 -3.11702298 -0.77925574 0 0 Z " fill="#D06574" transform="translate(121,81)"/>
<path d="M0 0 C8.25 0 16.5 0 25 0 C25 1.98 25 3.96 25 6 C27.97 6 30.94 6 34 6 C34 6.33 34 6.66 34 7 C31.36 7 28.72 7 26 7 C26.33 13.93 26.66 20.86 27 28 C25.68 27.67 24.36 27.34 23 27 C23 20.4 23 13.8 23 7 C22.34 6.67 21.68 6.34 21 6 C21.99 5.67 22.98 5.34 24 5 C24 4.01 24 3.02 24 2 C16.08 2 8.16 2 0 2 C0 1.34 0 0.68 0 0 Z " fill="#E0A3AC" transform="translate(25,65)"/>
<path d="M0 0 C4.29 0 8.58 0 13 0 C13 1.98 13 3.96 13 6 C17.29 6 21.58 6 26 6 C25.67 6.66 25.34 7.32 25 8 C17.08 7.67 9.16 7.34 1 7 C0.67 4.69 0.34 2.38 0 0 Z " fill="#D98794" transform="translate(49,60)"/>
<path d="M0 0 C2.60412365 1.1192191 4.84047032 2.3729925 7.1953125 3.94140625 C9.08257011 5.25297953 9.08257011 5.25297953 12 5 C14.53463081 3.7584605 16.97186697 2.3828457 19.4296875 0.99609375 C22.43166352 -0.16728601 23.96045669 0.09031589 27 1 C27 1.33 27 1.66 27 2 C26.27554688 2.15855469 25.55109375 2.31710938 24.8046875 2.48046875 C18.58631093 3.9811703 14.54097559 5.45902441 10 10 C9.54109375 9.57847656 9.0821875 9.15695313 8.609375 8.72265625 C7.99578125 8.17480469 7.3821875 7.62695312 6.75 7.0625 C6.14671875 6.51722656 5.5434375 5.97195312 4.921875 5.41015625 C0.30128693 2.01984671 -5.68426002 2.66723001 -11.19921875 2.37890625 C-12.12347656 2.25386719 -13.04773438 2.12882812 -14 2 C-14.33 1.34 -14.66 0.68 -15 0 C-10.60042803 -2.19978598 -4.69217188 -0.81158987 0 0 Z " fill="#C23747" transform="translate(39,100)"/>
<path d="M0 0 C1.32 0 2.64 0 4 0 C4 6.93 4 13.86 4 21 C2.68 21 1.36 21 0 21 C0 14.07 0 7.14 0 0 Z " fill="#CB5161" transform="translate(178,73)"/>
<path d="M0 0 C0.99 0 1.98 0 3 0 C3 5.28 3 10.56 3 16 C5.97 16 8.94 16 12 16 C12 16.99 12 17.98 12 19 C8.04 19 4.08 19 0 19 C0 12.73 0 6.46 0 0 Z " fill="#C12F43" transform="translate(101,49)"/>
<path d="M0 0 C-1 3 -1 3 -4 5 C-4.99 5.7734375 -4.99 5.7734375 -6 6.5625 C-8 8 -8 8 -11 9 C-11.1953125 6.98177083 -11.390625 4.96354167 -11.5859375 2.9453125 C-11.86374749 0.77331755 -11.86374749 0.77331755 -14 -1 C-9.2360146 -2.29926874 -4.48320269 -2.24160134 0 0 Z " fill="#BD1C3B" transform="translate(61,94)"/>
<path d="M0 0 C1.64453125 1.1640625 1.64453125 1.1640625 3 3 C3.29296875 5.69921875 3.29296875 5.69921875 3.1875 8.6875 C3.16042969 9.68136719 3.13335937 10.67523438 3.10546875 11.69921875 C3.07066406 12.45847656 3.03585938 13.21773437 3 14 C-0.3 14 -3.6 14 -7 14 C-6.67 12.68 -6.34 11.36 -6 10 C-6 10.66 -6 11.32 -6 12 C-3.97954558 11.39816251 -1.97888961 10.72693904 0 10 C0.33 9.34 0.66 8.68 1 8 C-0.98 8 -2.96 8 -5 8 C-5 7.67 -5 7.34 -5 7 C-3.35 7 -1.7 7 0 7 C-0.33 6.01 -0.66 5.02 -1 4 C-2.98 4.33 -4.96 4.66 -7 5 C-7.33 4.01 -7.66 3.02 -8 2 C-4.76746204 -0.15502531 -3.74849077 -0.46856135 0 0 Z " fill="#C02C43" transform="translate(204,80)"/>
<path d="M0 0 C1.2065625 0.0309375 1.2065625 0.0309375 2.4375 0.0625 C2.4375 1.0525 2.4375 2.0425 2.4375 3.0625 C1.1175 2.7325 -0.2025 2.4025 -1.5625 2.0625 C-1.5625 3.0525 -1.5625 4.0425 -1.5625 5.0625 C-0.94375 5.18625 -0.325 5.31 0.3125 5.4375 C2.4375 6.0625 2.4375 6.0625 4.4375 8.0625 C3.88194444 12.61805556 3.88194444 12.61805556 2.4375 14.0625 C0.09805264 13.77519945 -2.2364143 13.44313221 -4.5625 13.0625 C-4.8925 12.0725 -5.2225 11.0825 -5.5625 10.0625 C-3.2525 10.3925 -0.9425 10.7225 1.4375 11.0625 C-0.49504772 9.0379262 -2.19408688 7.64144208 -4.5625 6.0625 C-3.48963568 0.08511307 -3.48963568 0.08511307 0 0 Z " fill="#C13046" transform="translate(210.5625,53.9375)"/>
<path d="M0 0 C0.66 0 1.32 0 2 0 C2 0.99 2 1.98 2 3 C3.32 3 4.64 3 6 3 C6 3.66 6 4.32 6 5 C4.68 5 3.36 5 2 5 C2 7.97 2 10.94 2 14 C3.65 14 5.3 14 7 14 C7 14.99 7 15.98 7 17 C4.3335118 17.21620175 2.55995679 17.30894168 0.1875 16 C-1.73618446 12.76011038 -1.18282384 9.7174181 -1 6 C-1.66 6 -2.32 6 -3 6 C-3 5.01 -3 4.02 -3 3 C-2.01 3 -1.02 3 0 3 C0 2.01 0 1.02 0 0 Z " fill="#C33649" transform="translate(227,51)"/>
<path d="M0 0 C3.375 -0.125 3.375 -0.125 7 0 C9 2 9 2 9.1953125 4.6015625 C9.17210937 5.59929687 9.14890625 6.59703125 9.125 7.625 C9.10695312 8.62789062 9.08890625 9.63078125 9.0703125 10.6640625 C9.03550781 11.82035156 9.03550781 11.82035156 9 13 C5.7 13 2.4 13 -1 13 C-1.33 11.35 -1.66 9.7 -2 8 C-1.34 8 -0.68 8 0 8 C0 8.99 0 9.98 0 11 C2.31 11 4.62 11 7 11 C7 9.68 7 8.36 7 7 C5.02 7 3.04 7 1 7 C1 6.67 1 6.34 1 6 C2.98 6 4.96 6 7 6 C6.67 5.01 6.34 4.02 6 3 C3.69 3 1.38 3 -1 3 C-0.67 2.01 -0.34 1.02 0 0 Z " fill="#B5020F" transform="translate(165,81)"/>
<path d="M0 0 C0.66 0 1.32 0 2 0 C2 5.94 2 11.88 2 18 C1.01 18 0.02 18 -1 18 C-1 14.7 -1 11.4 -1 8 C-2.32 8 -3.64 8 -5 8 C-3.63055898 5.05043472 -2.12169591 2.47531189 0 0 Z " fill="#C3384A" transform="translate(158,76)"/>
<path d="M0 0 C6.8359375 -0.1953125 6.8359375 -0.1953125 9 0 C11 2 11 2 11.1953125 4.6015625 C11.17210937 5.59929688 11.14890625 6.59703125 11.125 7.625 C11.10695312 8.62789062 11.08890625 9.63078125 11.0703125 10.6640625 C11.03550781 11.82035156 11.03550781 11.82035156 11 13 C10.34 13 9.68 13 9 13 C8.67 9.37 8.34 5.74 8 2 C6.35 2.66 4.7 3.32 3 4 C2.67 6.97 2.34 9.94 2 13 C1.34 13 0.68 13 0 13 C0 8.71 0 4.42 0 0 Z " fill="#B90E29" transform="translate(143,54)"/>
<path d="M0 0 C1.1446875 0.12375 1.1446875 0.12375 2.3125 0.25 C1.6525 0.91 0.9925 1.57 0.3125 2.25 C3.6125 2.25 6.9125 2.25 10.3125 2.25 C10.3125 3.57 10.3125 4.89 10.3125 6.25 C8.72308594 6.21519531 8.72308594 6.21519531 7.1015625 6.1796875 C5.7135487 6.16093056 4.3255273 6.14273028 2.9375 6.125 C2.23882812 6.10824219 1.54015625 6.09148438 0.8203125 6.07421875 C-1.01647486 6.05655733 -2.85351963 6.14696739 -4.6875 6.25 C-5.3475 6.91 -6.0075 7.57 -6.6875 8.25 C-5.9168107 3.93413993 -4.72992724 0.43999323 0 0 Z " fill="#E5B1B9" transform="translate(24.6875,41.75)"/>
<path d="M0 0 C0.66 0 1.32 0 2 0 C2 0.99 2 1.98 2 3 C3.32 3 4.64 3 6 3 C6 3.66 6 4.32 6 5 C4.68 5 3.36 5 2 5 C2.33 7.64 2.66 10.28 3 13 C3.99 13.33 4.98 13.66 6 14 C6 14.66 6 15.32 6 16 C3.625 16.125 3.625 16.125 1 16 C-1 14 -1 14 -1.1953125 11.8359375 C-1.17210937 11.02382812 -1.14890625 10.21171875 -1.125 9.375 C-1.10695312 8.55773437 -1.08890625 7.74046875 -1.0703125 6.8984375 C-1.04710937 6.27195312 -1.02390625 5.64546875 -1 5 C-1.66 5 -2.32 5 -3 5 C-3 4.34 -3 3.68 -3 3 C-2.01 3 -1.02 3 0 3 C0 2.01 0 1.02 0 0 Z " fill="#BC1C2F" transform="translate(187,78)"/>
<path d="M0 0 C0.66 0 1.32 0 2 0 C2 0.99 2 1.98 2 3 C3.32 3 4.64 3 6 3 C6 3.66 6 4.32 6 5 C5.01 5 4.02 5 3 5 C3 7.97 3 10.94 3 14 C4.32 14 5.64 14 7 14 C7 14.66 7 15.32 7 16 C5.00045254 16.04254356 2.99958364 16.04080783 1 16 C0 15 0 15 -0.09765625 12.71484375 C-0.08025391 11.34005859 -0.08025391 11.34005859 -0.0625 9.9375 C-0.05347656 9.01839844 -0.04445313 8.09929687 -0.03515625 7.15234375 C-0.02355469 6.44207031 -0.01195313 5.73179688 0 5 C-0.66 5 -1.32 5 -2 5 C-2 4.34 -2 3.68 -2 3 C-1.34 3 -0.68 3 0 3 C0 2.01 0 1.02 0 0 Z " fill="#BC1930" transform="translate(102,78)"/>
<path d="M0 0 C0.33 0 0.66 0 1 0 C1.86106149 13.96833091 1.86106149 13.96833091 -1.3125 17.75 C-6.03173428 21.70098684 -8.97483119 22.41027414 -15 22 C-18 21.5 -18 21.5 -20 21 C-20 20.67 -20 20.34 -20 20 C-19.27554688 19.97421875 -18.55109375 19.9484375 -17.8046875 19.921875 C-11.85060689 19.57256894 -7.565565 19.21436769 -3 15 C-0.26895708 10.57831146 -0.37471745 5.07840748 0 0 Z " fill="#BB1C2D" transform="translate(81,80)"/>
<path d="M0 0 C0.99 0.33 1.98 0.66 3 1 C4.1875 4.5625 4.1875 4.5625 5 8 C8.24732932 6.37633534 8.70155136 3.24612161 10 0 C10.99 0 11.98 0 13 0 C11.31326082 4.49797113 9.18326108 8.72886302 7 13 C6.34 13 5.68 13 5 13 C4.15930585 11.39967863 3.32768495 9.79458829 2.5 8.1875 C1.80390625 6.84751953 1.80390625 6.84751953 1.09375 5.48046875 C0 3 0 3 0 0 Z " fill="#BF2A3D" transform="translate(165,54)"/>
<path d="M0 0 C0 1.65 0 3.3 0 5 C-3.96 5 -7.92 5 -12 5 C-12 3.68 -12 2.36 -12 1 C-7.67265609 -1.22923777 -4.71599818 -0.92470553 0 0 Z " fill="#B80A25" transform="translate(49,42)"/>
<path d="M0 0 C2.93189592 3.02351766 3.96942821 4.39875472 4.1875 8.6875 C4.125625 9.780625 4.06375 10.87375 4 12 C4.33 12.66 4.66 13.32 5 14 C5.06996014 15.70702735 5.08440154 17.41668003 5.0625 19.125 C5.05347656 20.03507812 5.04445313 20.94515625 5.03515625 21.8828125 C5.01775391 22.93082031 5.01775391 22.93082031 5 24 C4.01 24 3.02 24 2 24 C1.95101562 22.75863281 1.90203125 21.51726562 1.8515625 20.23828125 C1.77650201 18.59633306 1.70095561 16.95440703 1.625 15.3125 C1.5940625 14.49587891 1.563125 13.67925781 1.53125 12.83789062 C1.32044076 8.49873367 0.98261241 4.95716543 -1 1 C-0.67 0.67 -0.34 0.34 0 0 Z " fill="#F4E0E3" transform="translate(76,66)"/>
<path d="M0 0 C1.32 0 2.64 0 4 0 C4 4.62 4 9.24 4 14 C2.68 14 1.36 14 0 14 C0 9.38 0 4.76 0 0 Z " fill="#CD5F6B" transform="translate(218,54)"/>
<path d="M0 0 C1.32 0 2.64 0 4 0 C4 4.62 4 9.24 4 14 C2.68 14 1.36 14 0 14 C0 9.38 0 4.76 0 0 Z " fill="#CE5A69" transform="translate(158,54)"/>
<path d="M0 0 C1 1 1 1 1.09765625 3.50390625 C1.08605469 4.51324219 1.07445313 5.52257812 1.0625 6.5625 C1.05347656 7.57441406 1.04445313 8.58632812 1.03515625 9.62890625 C1.02355469 10.41136719 1.01195313 11.19382812 1 12 C-0.32 11.67 -1.64 11.34 -3 11 C-2.34 9.68 -1.68 8.36 -1 7 C-2.65 7 -4.3 7 -6 7 C-6 6.67 -6 6.34 -6 6 C-4.35 6 -2.7 6 -1 6 C-1.33 5.01 -1.66 4.02 -2 3 C-4.31 3 -6.62 3 -9 3 C-8.67 2.01 -8.34 1.02 -8 0 C-5.11795733 -1.44102133 -3.08226581 -0.65580124 0 0 Z " fill="#B7021C" transform="translate(121,81)"/>
<path d="M0 0 C2.64 0 5.28 0 8 0 C8 0.99 8 1.98 8 3 C6.68 3.33 5.36 3.66 4 4 C3.67 6.97 3.34 9.94 3 13 C2.01 13 1.02 13 0 13 C0 8.71 0 4.42 0 0 Z " fill="#C03143" transform="translate(196,54)"/>
<path d="M0 0 C4.29 0 8.58 0 13 0 C12.34 0.66 11.68 1.32 11 2 C10.83322718 5.58343976 10.83322718 5.58343976 11 9 C6.71 9 2.42 9 -2 9 C-2 8.67 -2 8.34 -2 8 C1.96 8 5.92 8 10 8 C10 6.35 10 4.7 10 3 C4.42169984 2.87530901 4.42169984 2.87530901 -1 4 C-0.67 2.68 -0.34 1.36 0 0 Z " fill="#E3ABB3" transform="translate(39,39)"/>
<path d="M0 0 C3.96 0 7.92 0 12 0 C12 1.32 12 2.64 12 4 C8.04 4 4.08 4 0 4 C0 2.68 0 1.36 0 0 Z " fill="#BE243F" transform="translate(50,54)"/>
<path d="M0 0 C0.99 0 1.98 0 3 0 C3.33 5.61 3.66 11.22 4 17 C3.01 16.67 2.02 16.34 1 16 C-0.50156874 12.99686252 -0.09281204 10.20932478 -0.0625 6.875 C-0.05347656 5.59367187 -0.04445313 4.31234375 -0.03515625 2.9921875 C-0.02355469 2.00476562 -0.01195313 1.01734375 0 0 Z " fill="#BF243D" transform="translate(124,49)"/>
<path d="M0 0 C3.96 0 7.92 0 12 0 C12 1.32 12 2.64 12 4 C8.04 4 4.08 4 0 4 C0 2.68 0 1.36 0 0 Z " fill="#BB182E" transform="translate(37,50)"/>
<path d="M0 0 C3.96 0 7.92 0 12 0 C12 1.32 12 2.64 12 4 C8.37 4 4.74 4 1 4 C0.67 2.68 0.34 1.36 0 0 Z " fill="#BC1E32" transform="translate(23,50)"/>
<path d="M0 0 C4.5 2.25 4.5 2.25 6 6 C5.01 6 4.02 6 3 6 C3 5.34 3 4.68 3 4 C2.34 4 1.68 4 1 4 C1.99 5.485 1.99 5.485 3 7 C3.1953125 9.69921875 3.1953125 9.69921875 3.125 12.6875 C3.10695312 13.68136719 3.08890625 14.67523438 3.0703125 15.69921875 C3.03550781 16.83810547 3.03550781 16.83810547 3 18 C2.01 18 1.02 18 0 18 C0 12.06 0 6.12 0 0 Z " fill="#C02A42" transform="translate(142,76)"/>
<path d="M0 0 C3.63 0 7.26 0 11 0 C11 1.32 11 2.64 11 4 C7.37 4 3.74 4 0 4 C0 2.68 0 1.36 0 0 Z " fill="#B80A24" transform="translate(50,61)"/>
<path d="M0 0 C0.99 0 1.98 0 3 0 C3.33 0.99 3.66 1.98 4 3 C7.63 3.33 11.26 3.66 15 4 C15 4.33 15 4.66 15 5 C11.04 5 7.08 5 3 5 C3 6.65 3 8.3 3 10 C1.68 10 0.36 10 -1 10 C-1 9.34 -1 8.68 -1 8 C-0.34 8 0.32 8 1 8 C1 7.01 1 6.02 1 5 C0.34 5 -0.32 5 -1 5 C-0.67 3.35 -0.34 1.7 0 0 Z " fill="#FDFAFB" transform="translate(46,55)"/>
<path d="M0 0 C0.33 0 0.66 0 1 0 C1 6.6 1 13.2 1 20 C-7.3984375 21.7578125 -7.3984375 21.7578125 -10 22 C-10.66 21.34 -11.32 20.68 -12 20 C-7.77370786 18.59123595 -4.89096249 19 0 19 C0 12.73 0 6.46 0 0 Z " fill="#CA5568" transform="translate(49,73)"/>
<path d="M0 0 C0.33 0 0.66 0 1 0 C1 2.97 1 5.94 1 9 C-5.15234375 9.87890625 -5.15234375 9.87890625 -7 10 C-8 9 -8 9 -8.0625 6.4375 C-8.041875 5.633125 -8.02125 4.82875 -8 4 C-7.67 4.99 -7.34 5.98 -7 7 C-4.02934491 6.65772428 -4.02934491 6.65772428 -1 6 C-0.67 5.34 -0.34 4.68 0 4 C-1.98 4 -3.96 4 -6 4 C-6 3.67 -6 3.34 -6 3 C-4.02 3 -2.04 3 0 3 C0 2.01 0 1.02 0 0 Z " fill="#BD1D33" transform="translate(245,58)"/>
<path d="M0 0 C3.3 0 6.6 0 10 0 C10 1.32 10 2.64 10 4 C6.7 4 3.4 4 0 4 C0 2.68 0 1.36 0 0 Z " fill="#BE233E" transform="translate(64,54)"/>
<path d="M0 0 C0.33 0 0.66 0 1 0 C1.03738281 0.65226562 1.07476563 1.30453125 1.11328125 1.9765625 C1.68633713 9.59483476 3.13773711 14.7441781 9 20 C5.67581042 19.7229842 4.26970238 19.26188492 1.84375 16.90625 C-0.48170362 13.24070446 -0.41080226 10.98896045 -0.25 6.6875 C-0.21390625 5.43324219 -0.1778125 4.17898437 -0.140625 2.88671875 C-0.07101563 1.45779297 -0.07101563 1.45779297 0 0 Z " fill="#BB1828" transform="translate(17,80)"/>
<path d="M0 0 C0.33 0 0.66 0 1 0 C1.310393 3.95751073 1.38679324 6.33055016 -0.625 9.8125 C-3.3861688 12.35568179 -5.31619926 13.30928736 -9 14 C-11.1875 13.03515625 -11.1875 13.03515625 -13 12 C-12.38511719 11.84144531 -11.77023438 11.68289062 -11.13671875 11.51953125 C-5.92827147 10.08397119 -5.92827147 10.08397119 -2 6.5625 C-1.14463145 4.37061809 -0.42813707 2.31194018 0 0 Z " fill="#F5E3E6" transform="translate(79,86)"/>
<path d="M0 0 C2.69082872 0.17635452 5.32851446 0.61835921 8 1 C7.34 2.32 6.68 3.64 6 5 C3.33333333 5 0.66666667 5 -2 5 C-1.125 1.125 -1.125 1.125 0 0 Z " fill="#DA8795" transform="translate(197,87)"/>
<path d="M0 0 C2.97 0 5.94 0 9 0 C9.33 1.32 9.66 2.64 10 4 C6.7 4 3.4 4 0 4 C0 2.68 0 1.36 0 0 Z " fill="#B90F28" transform="translate(64,61)"/>
<path d="M0 0 C0.93423645 3.01031744 1.04449911 3.86650268 0 7 C-0.94875 6.979375 -1.8975 6.95875 -2.875 6.9375 C-5.90666283 6.77448174 -5.90666283 6.77448174 -8 8 C-8 6.35 -8 4.7 -8 3 C-5.29120665 1.64560332 -2.99066732 1.93498549 0 2 C0 1.34 0 0.68 0 0 Z " fill="#C95665" transform="translate(244,58)"/>
<path d="M0 0 C0.33 0 0.66 0 1 0 C1 2.97 1 5.94 1 9 C-1.97 9 -4.94 9 -8 9 C-7.67 7.68 -7.34 6.36 -7 5 C-7 5.66 -7 6.32 -7 7 C-4.97954558 6.39816251 -2.97888961 5.72693904 -1 5 C-0.67 4.34 -0.34 3.68 0 3 C-1.98 3 -3.96 3 -6 3 C-6 2.67 -6 2.34 -6 2 C-4.02 2 -2.04 2 0 2 C0 1.34 0 0.68 0 0 Z " fill="#BA1427" transform="translate(205,85)"/>
<path d="M0 0 C1.5625 1.625 1.5625 1.625 3 4 C2.6875 7.25 2.6875 7.25 2 10 C1.34 10 0.68 10 0 10 C0 13.63 0 17.26 0 21 C-0.33 21 -0.66 21 -1 21 C-1.02712153 19.083412 -1.04645097 17.1667127 -1.0625 15.25 C-1.07410156 14.18265625 -1.08570313 13.1153125 -1.09765625 12.015625 C-1.01458001 9.45023062 -0.65262951 7.45147386 0 5 C-0.3062434 3.66018514 -0.63451555 2.32488113 -1 1 C-0.67 0.67 -0.34 0.34 0 0 Z " fill="#C3404E" transform="translate(17,70)"/>
<path d="M0 0 C-0.99 0.33 -1.98 0.66 -3 1 C-3.73323796 3.01508358 -3.73323796 3.01508358 -4 5 C-4 4.01 -4 3.02 -4 2 C-4.99 2.495 -4.99 2.495 -6 3 C-8.6723621 3.13415472 -11.32250488 3.04318541 -14 3 C-14.33 2.34 -14.66 1.68 -15 1 C-13.25215171 0.63536268 -11.50159498 0.2836922 -9.75 -0.0625 C-8.28820312 -0.35833984 -8.28820312 -0.35833984 -6.796875 -0.66015625 C-4.131881 -0.98397535 -2.51128277 -0.85503199 0 0 Z " fill="#F3DDE1" transform="translate(39,42)"/>
<path d="M0 0 C2.64 0.33 5.28 0.66 8 1 C8 2.32 8 3.64 8 5 C5.69 5 3.38 5 1 5 C0.67 3.35 0.34 1.7 0 0 Z " fill="#DD949E" transform="translate(164,87)"/>
<path d="M0 0 C1.32 0 2.64 0 4 0 C4 2.31 4 4.62 4 7 C2.68 7.33 1.36 7.66 0 8 C0 5.36 0 2.72 0 0 Z " fill="#D16B79" transform="translate(126,76)"/>
<path d="M0 0 C1.2065625 0.0309375 1.2065625 0.0309375 2.4375 0.0625 C2.4375 1.0525 2.4375 2.0425 2.4375 3.0625 C1.1175 2.7325 -0.2025 2.4025 -1.5625 2.0625 C-0.9025 3.7125 -0.2425 5.3625 0.4375 7.0625 C-1.2125 6.7325 -2.8625 6.4025 -4.5625 6.0625 C-3.48963568 0.08511307 -3.48963568 0.08511307 0 0 Z " fill="#BC1B31" transform="translate(210.5625,53.9375)"/>
<path d="M0 0 C1.65 0 3.3 0 5 0 C5.33 1.32 5.66 2.64 6 4 C3.36 4 0.72 4 -2 4 C-1.34 2.68 -0.68 1.36 0 0 Z " fill="#E6B5BC" transform="translate(184,56)"/>
<path d="M0 0 C0.99 0 1.98 0 3 0 C3.33 0.99 3.66 1.98 4 3 C1.52224905 4.23887548 -0.23653707 4.16741669 -3 4.1875 C-4.3303125 4.20876953 -4.3303125 4.20876953 -5.6875 4.23046875 C-8 4 -8 4 -10 2 C-9.04287109 1.90912109 -9.04287109 1.90912109 -8.06640625 1.81640625 C-6.82697266 1.69072266 -6.82697266 1.69072266 -5.5625 1.5625 C-4.73878906 1.48128906 -3.91507812 1.40007813 -3.06640625 1.31640625 C-1.01337975 1.21069185 -1.01337975 1.21069185 0 0 Z " fill="#C23A49" transform="translate(75,39)"/>
<path d="M0 0 C2.97 0 5.94 0 9 0 C8.01 0.66 7.02 1.32 6 2 C5.63239269 4.32817964 5.29758419 6.6618385 5 9 C4.01 9.495 4.01 9.495 3 10 C2.8046875 7.98177083 2.609375 5.96354167 2.4140625 3.9453125 C2.13625251 1.77331755 2.13625251 1.77331755 0 0 Z " fill="#BA0E2F" transform="translate(47,93)"/>
<path d="M0 0 C0.33 1.32 0.66 2.64 1 4 C-1.31 4 -3.62 4 -6 4 C-6.33 3.01 -6.66 2.02 -7 1 C-4.53721199 -0.231394 -2.7204945 -0.07159196 0 0 Z " fill="#F2D8DC" transform="translate(119,83)"/>
<path d="M0 0 C0 0.99 0 1.98 0 3 C-2.97 3 -5.94 3 -9 3 C-8.67 2.01 -8.34 1.02 -8 0 C-5.13822943 -1.43088528 -3.06624227 -0.59991697 0 0 Z " fill="#BE233A" transform="translate(121,81)"/>
<path d="M0 0 C0.66 0.33 1.32 0.66 2 1 C2 4.3 2 7.6 2 11 C1.01 11 0.02 11 -1 11 C-1.0270043 9.54176788 -1.04639787 8.08339325 -1.0625 6.625 C-1.07410156 5.81289062 -1.08570312 5.00078125 -1.09765625 4.1640625 C-1 2 -1 2 0 0 Z " fill="#E7B6BE" transform="translate(79,79)"/>
<path d="M0 0 C0.66 0 1.32 0 2 0 C2 0.99 2 1.98 2 3 C3.32 3 4.64 3 6 3 C6 3.66 6 4.32 6 5 C0.375 6.125 0.375 6.125 -3 5 C-3 4.34 -3 3.68 -3 3 C-2.01 3 -1.02 3 0 3 C0 2.01 0 1.02 0 0 Z " fill="#BB1932" transform="translate(227,51)"/>
<path d="M0 0 C3.63 0.33 7.26 0.66 11 1 C11 1.66 11 2.32 11 3 C7.04 3 3.08 3 -1 3 C-0.67 2.01 -0.34 1.02 0 0 Z " fill="#BA1C25" transform="translate(23,44)"/>
<path d="M0 0 C4.99275057 1.27721526 7.57611908 3.17330957 11 7 C10.67 7.66 10.34 8.32 10 9 C8.8944811 8.06409496 7.79064547 7.12620142 6.6875 6.1875 C6.07261719 5.66542969 5.45773438 5.14335938 4.82421875 4.60546875 C3.14575321 3.12827531 1.56117966 1.59960869 0 0 Z " fill="#BD2936" transform="translate(39,101)"/>
<path d="M0 0 C0.66 0 1.32 0 2 0 C2 0.99 2 1.98 2 3 C4.64 3 7.28 3 10 3 C9.67 3.66 9.34 4.32 9 5 C6.36 5 3.72 5 1 5 C0.67 3.35 0.34 1.7 0 0 Z " fill="#BD2134" transform="translate(163,89)"/>
<path d="M0 0 C0 3.3 0 6.6 0 10 C-0.33 10 -0.66 10 -1 10 C-1.33 8.02 -1.66 6.04 -2 4 C-2.66 4.66 -3.32 5.32 -4 6 C-4.99 5.67 -5.98 5.34 -7 5 C-2.25 0 -2.25 0 0 0 Z " fill="#E9BEC4" transform="translate(157,84)"/>
<path d="M0 0 C1.65 0 3.3 0 5 0 C5.33 1.32 5.66 2.64 6 4 C3.69 4 1.38 4 -1 4 C-0.67 2.68 -0.34 1.36 0 0 Z " fill="#F2D9DD" transform="translate(166,83)"/>
<path d="M0 0 C3.375 -0.1875 3.375 -0.1875 7 0 C7.66 0.99 8.32 1.98 9 3 C5.66666667 3 2.33333333 3 -1 3 C-0.67 2.01 -0.34 1.02 0 0 Z " fill="#B80823" transform="translate(165,81)"/>
<path d="M0 0 C2.97 0 5.94 0 9 0 C6 3 6 3 3.3125 3.1875 C2.1678125 3.0946875 2.1678125 3.0946875 1 3 C0.67 2.01 0.34 1.02 0 0 Z " fill="#FBF4F5" transform="translate(183,62)"/>
<path d="M0 0 C1.32 0 2.64 0 4 0 C4 2.33333333 4 4.66666667 4 7 C2.68 7 1.36 7 0 7 C0 4.69 0 2.38 0 0 Z " fill="#DE99A4" transform="translate(26,56)"/>
<path d="M0 0 C0.33 0 0.66 0 1 0 C1.33 2.64 1.66 5.28 2 8 C2.99 8.33 3.98 8.66 5 9 C5 9.66 5 10.32 5 11 C3.35 11 1.7 11 0 11 C-1.26026798 8.47946405 -0.91874445 7.1457902 -0.5625 4.375 C-0.46066406 3.55773437 -0.35882813 2.74046875 -0.25390625 1.8984375 C-0.17011719 1.27195312 -0.08632812 0.64546875 0 0 Z " fill="#BE2A3E" transform="translate(188,83)"/>
<path d="M0 0 C4.29 0 8.58 0 13 0 C13 0.33 13 0.66 13 1 C9.04 1 5.08 1 1 1 C1.33 1.99 1.66 2.98 2 4 C1.34 4.66 0.68 5.32 0 6 C-1.125 2.25 -1.125 2.25 0 0 Z " fill="#F2DADE" transform="translate(22,49)"/>
<path d="M0 0 C1.32 0 2.64 0 4 0 C4.33 0.99 4.66 1.98 5 3 C1.7 3 -1.6 3 -5 3 C-5 2.67 -5 2.34 -5 2 C-3.35 2 -1.7 2 0 2 C0 1.34 0 0.68 0 0 Z " fill="#E6B4BA" transform="translate(69,51)"/>
<path d="M0 0 C2.62187494 1.04874998 3.79371361 1.64931313 5.25 4.125 C5.4975 4.74375 5.745 5.3625 6 6 C5.01 6 4.02 6 3 6 C3 5.34 3 4.68 3 4 C2.01 3.67 1.02 3.34 0 3 C0 2.01 0 1.02 0 0 Z " fill="#C3314B" transform="translate(142,76)"/>
<path d="M0 0 C1.98 0 3.96 0 6 0 C5.67 0.99 5.34 1.98 5 3 C3.35 3 1.7 3 0 3 C0 2.01 0 1.02 0 0 Z " fill="#F1D7DB" transform="translate(239,62)"/>
<path d="M0 0 C0.78375 0.04125 1.5675 0.0825 2.375 0.125 C2.375 1.115 2.375 2.105 2.375 3.125 C0.065 2.795 -2.245 2.465 -4.625 2.125 C-2.625 0.125 -2.625 0.125 0 0 Z " fill="#F9EFF1" transform="translate(241.625,56.875)"/>
<path d="M0 0 C0.33 0.99 0.66 1.98 1 3 C0.34 3 -0.32 3 -1 3 C-1.33 3.66 -1.66 4.32 -2 5 C-2.99 4.67 -3.98 4.34 -5 4 C-5 3.01 -5 2.02 -5 1 C-3.35 0.67 -1.7 0.34 0 0 Z " fill="#EBC5CB" transform="translate(214,55)"/>
</svg>
