<?xml version="1.0" encoding="UTF-8"?>
<svg version="1.1" xmlns="http://www.w3.org/2000/svg" width="464" height="464">
<path d="M0 0 C0.70675873 -0.00133942 1.41351746 -0.00267883 2.14169312 -0.00405884 C17.93252389 0.00240578 33.34581621 1.21238593 48.58569336 5.56762695 C50.62513056 6.14404792 52.68610782 6.64342516 54.75 7.125 C66.01103029 9.9345004 76.59662158 14.14153103 87 19.25 C88.22508525 19.83760492 89.45035077 20.42483413 90.67578125 21.01171875 C96.8440752 23.9970564 102.55471187 27.07914101 108 31.25 C108.77988281 31.71664062 109.55976563 32.18328125 110.36328125 32.6640625 C122.81108304 40.15118476 133.93925566 49.84092032 144 60.25 C144.845625 61.075 145.69125 61.9 146.5625 62.75 C157 73.45512821 157 73.45512821 157 76.25 C157.66 76.25 158.32 76.25 159 76.25 C160.19140625 77.7265625 160.19140625 77.7265625 161.5625 79.875 C162.08972656 80.69355469 162.61695313 81.51210937 163.16015625 82.35546875 C163.76730469 83.31066406 164.37445313 84.26585938 165 85.25 C165.72680274 86.37178243 166.45472146 87.49284239 167.18359375 88.61328125 C169.12796364 91.60671806 171.05100324 94.61312202 172.96435547 97.62646484 C173.8426949 99.00339959 174.73437275 100.37181161 175.62890625 101.73828125 C181.74609218 111.38910048 186.56351034 122.35831583 190 133.25 C190.45494795 134.60833482 190.91075137 135.96638327 191.3671875 137.32421875 C194.08583796 145.57530944 196.51814205 153.80765306 198.3125 162.3125 C198.47153809 163.06039795 198.63057617 163.8082959 198.79443359 164.57885742 C200.56616893 173.38588283 201.15615595 182.17037866 201.16796875 191.140625 C201.17129715 192.04770203 201.17462555 192.95477905 201.17805481 193.88934326 C201.18308057 195.79520161 201.1854645 197.70106863 201.18530273 199.60693359 C201.18748405 202.47899316 201.20567263 205.3506646 201.22460938 208.22265625 C201.25589446 218.4428749 200.85333201 228.1739901 199 238.25 C198.88487061 238.96623535 198.76974121 239.6824707 198.65112305 240.42041016 C194.30732306 267.37014497 183.2657352 294.35285053 167.7265625 316.734375 C165.94405608 319.25412063 165.94405608 319.25412063 164.3984375 322.078125 C163.93695313 322.79484375 163.47546875 323.5115625 163 324.25 C162.34 324.25 161.68 324.25 161 324.25 C160.76023437 324.79785156 160.52046875 325.34570312 160.2734375 325.91015625 C158.69518217 328.8100794 156.74058323 331.15372008 154.625 333.6875 C151.16848989 337.84304186 151.16848989 337.84304186 147.8359375 342.09765625 C147.23007812 342.80792969 146.62421875 343.51820313 146 344.25 C145.34 344.25 144.68 344.25 144 344.25 C143.60941406 345.14332031 143.60941406 345.14332031 143.2109375 346.0546875 C141.91233375 348.40893043 140.67520844 349.65351697 138.625 351.375 C137.90957031 351.97828125 137.19414062 352.5815625 136.45703125 353.203125 C135.64621094 353.87859375 134.83539063 354.5540625 134 355.25 C133.09636719 356.02859375 132.19273437 356.8071875 131.26171875 357.609375 C124.1472011 363.67791721 116.79128262 369.07519289 109 374.25 C108.10796875 374.85585938 107.2159375 375.46171875 106.296875 376.0859375 C94.76950247 383.7133307 82.41197256 389.38155772 69.42578125 394.0234375 C67.43325399 394.73683951 65.44977483 395.47918895 63.49609375 396.29296875 C54.82591366 399.6172162 45.31282985 401.30118406 36.1875 402.9375 C35.53168945 403.05665771 34.87587891 403.17581543 34.20019531 403.29858398 C23.94775489 405.05857778 13.70878093 405.43652872 3.32226562 405.43530273 C1.26671393 405.43748228 -0.788293 405.45569563 -2.84375 405.47460938 C-12.06824592 405.51376662 -20.87338488 404.69647476 -30 403.25 C-30.83901855 403.12423584 -31.67803711 402.99847168 -32.54248047 402.86889648 C-55.9930774 399.26951493 -78.57743967 391.37042174 -99 379.25 C-100.42119141 378.42628906 -100.42119141 378.42628906 -101.87109375 377.5859375 C-108.44719962 373.67408015 -114.67038621 369.43258093 -120.8125 364.875 C-121.5247876 364.35091553 -122.2370752 363.82683105 -122.97094727 363.28686523 C-124.6872165 361.99254295 -126.34948768 360.62719256 -128 359.25 C-128 358.59 -128 357.93 -128 357.25 C-128.556875 357.0025 -129.11375 356.755 -129.6875 356.5 C-132.42410913 355.02075182 -134.67650869 353.31532561 -137 351.25 C-137 350.59 -137 349.93 -137 349.25 C-138.32 348.59 -139.64 347.93 -141 347.25 C-141 346.59 -141 345.93 -141 345.25 C-141.59296875 344.9921875 -142.1859375 344.734375 -142.796875 344.46875 C-145.1918353 343.14387835 -146.49061353 341.83393349 -148.25 339.75 C-148.84941406 339.04101562 -149.44882813 338.33203125 -150.06640625 337.6015625 C-151.02353516 336.43753906 -151.02353516 336.43753906 -152 335.25 C-152.68964844 334.41210938 -153.37929687 333.57421875 -154.08984375 332.7109375 C-157.62677577 328.35069728 -160.95617537 323.97317615 -164 319.25 C-165.175625 317.6721875 -165.175625 317.6721875 -166.375 316.0625 C-174.97057263 304.04437414 -182.03931235 289.16922907 -187 275.25 C-187.59748047 273.57744141 -187.59748047 273.57744141 -188.20703125 271.87109375 C-195.67254428 250.24140493 -199.54012736 228.80003041 -199.33618164 205.89672852 C-199.31242825 203.05391244 -199.31567412 200.21203224 -199.32226562 197.36914062 C-199.30115221 183.54247107 -198.70208151 170.01252485 -194.7109375 156.67578125 C-194.06023909 154.45554109 -193.57110493 152.26840147 -193.125 150 C-188.84770138 130.23958738 -179.55891379 111.33185869 -169.25 94.0625 C-168.70327637 93.14537231 -168.70327637 93.14537231 -168.14550781 92.2097168 C-165.99064287 88.67134182 -163.61861262 85.45495415 -161 82.25 C-160.67 81.59 -160.34 80.93 -160 80.25 C-159.34 80.25 -158.68 80.25 -158 80.25 C-157.77183594 79.53972656 -157.54367188 78.82945313 -157.30859375 78.09765625 C-155.72402572 74.649447 -153.66852024 72.43893693 -151.0625 69.6875 C-147.51221662 65.94253324 -147.51221662 65.94253324 -144.30859375 61.91015625 C-143.87675781 61.36230469 -143.44492188 60.81445312 -143 60.25 C-142.34 60.25 -141.68 60.25 -141 60.25 C-140.73445313 59.65058594 -140.46890625 59.05117187 -140.1953125 58.43359375 C-138.04123483 54.49853029 -134.42157477 52.07630788 -131 49.25 C-130.37561035 48.72535156 -129.7512207 48.20070312 -129.10791016 47.66015625 C-126.97494887 45.86880789 -124.83249388 44.08941658 -122.6875 42.3125 C-121.98157715 41.72025635 -121.2756543 41.1280127 -120.54833984 40.51782227 C-119.87625488 39.96666748 -119.20416992 39.4155127 -118.51171875 38.84765625 C-117.60619263 38.09754272 -117.60619263 38.09754272 -116.68237305 37.33227539 C-115 36.25 -115 36.25 -112 36.25 C-112 35.59 -112 34.93 -112 34.25 C-109.515625 32.55859375 -109.515625 32.55859375 -106.25 30.6875 C-105.18265625 30.06746094 -104.1153125 29.44742188 -103.015625 28.80859375 C-100.5820111 27.55080625 -98.6680014 26.7227284 -96 26.25 C-96 25.59 -96 24.93 -96 24.25 C-72.70019089 12.82148944 -50.1607359 4.92465768 -24.32910156 1.55957031 C-22.43421546 1.30771333 -20.54383731 1.02211585 -18.65527344 0.7265625 C-12.45690445 -0.08156041 -6.24226702 0.00695764 0 0 Z " fill="#FBFCFD" transform="translate(230,11.75)"/>
<path d="M0 0 C11.60869694 3.14402209 20.23339619 7.30230069 29.25 15.4375 C29.75756836 15.89189453 30.26513672 16.34628906 30.78808594 16.81445312 C37.13605609 22.69670967 40.68475974 28.70669428 42.125 37.125 C43.70971182 44.36591402 47.10480991 48.60733124 52 54 C60.64608794 65.11639878 62.60061983 78.34018905 62 92 C61.29799999 97.17725005 59.46436048 99.72658034 56.125 103.5625 C48.38418195 112.87107867 47.39568685 125.44393258 45.61328125 137.06640625 C45.28273538 139.18653169 44.93216668 141.30599672 44.46777344 143.40087891 C43.97021634 146.16548895 43.88665909 148.7119777 43.90234375 151.51953125 C43.90556641 152.54111328 43.90878906 153.56269531 43.91210938 154.61523438 C43.92048828 155.67033203 43.92886719 156.72542969 43.9375 157.8125 C43.94201172 158.88693359 43.94652344 159.96136719 43.95117188 161.06835938 C43.96292271 163.71229683 43.97935213 166.35611952 44 169 C45.86739038 169.68208953 45.86739038 169.68208953 48 170 C48.845625 169.360625 49.69125 168.72125 50.5625 168.0625 C54.88127255 164.89466937 59.88070424 165.40263306 65 166 C67.33425079 166.66344715 69.66752036 167.33035262 72 168 C74.56107223 168.36434776 77.12366846 168.71810472 79.6875 169.0625 C88.19178299 170.42044356 93.78395031 174.07620581 100 180 C100.33 180.66 100.66 181.32 101 182 C103.24797979 182.46900828 103.24797979 182.46900828 105.9375 182.75 C112.16270613 183.75905302 116.98644466 186.20372764 122 190 C123.65973906 193.31947813 123.58997146 196.42512342 123 200 C119.71219243 208.36896474 113.9058072 215.35517274 108.33984375 222.30859375 C107.01538211 223.98058176 105.72293394 225.67288106 104.4375 227.375 C98.83848037 234.73875662 92.81957467 241.52690848 86.43603516 248.22070312 C80.51266512 254.44810996 74.77773932 260.83339102 70 268 C66.9609375 268.29296875 66.9609375 268.29296875 63.375 268.1875 C62.18648438 268.16042969 60.99796875 268.13335937 59.7734375 268.10546875 C58.40058594 268.05326172 58.40058594 268.05326172 57 268 C56.41646608 261.38661554 59.87655081 256.92704936 63.8125 251.9375 C70.11658783 243.68337519 75.76132425 235.00107128 81.45263672 226.31835938 C82.7077502 224.43786749 84.01958174 222.59531833 85.34765625 220.765625 C90.62612587 213.36904336 91.83553982 205.83880728 93 197 C91.35 197 89.7 197 88 197 C87.87882813 197.62648438 87.75765625 198.25296875 87.6328125 198.8984375 C87.38144531 200.12433594 87.38144531 200.12433594 87.125 201.375 C86.88136719 202.59316406 86.88136719 202.59316406 86.6328125 203.8359375 C86 206 86 206 84 208 C82.1672539 208.04639864 80.33294376 208.03779265 78.5 208 C72.85544431 208.33880886 70.46841213 209.82224907 66.5625 213.875 C65.80066406 214.75929688 65.03882813 215.64359375 64.25390625 216.5546875 C61.17213324 219.89817087 58.23478108 221.59680618 53.9375 223 C50.95722107 224.01456304 49.31000519 224.89270955 47 227 C45.99018944 229.34398706 45.99018944 229.34398706 45.4375 231.9375 C44.54423904 235.61595974 43.64052148 238.2227927 41 241 C32.29265886 244.65397351 18.4417735 242.30438697 10 239 C6.1590212 236.84824748 3.02311282 234.38833158 0.40234375 230.83203125 C-1.63131622 228.21467844 -3.09012392 226.64018766 -6 225 C-10.01950016 224.56775509 -14.02659986 224.91444046 -18.05200195 225.14819336 C-22.06214788 225.29390915 -24.34649814 225.3697907 -27.90625 223.35546875 C-29.8598954 221.33257099 -31.43288259 219.32841592 -33 217 C-33.56074219 216.48179687 -34.12148437 215.96359375 -34.69921875 215.4296875 C-35.34310547 214.72199219 -35.34310547 214.72199219 -36 214 C-35.77669287 210.35265021 -35.61627165 208.61627165 -33 206 C-32.71797649 203.50127522 -32.71797649 203.50127522 -32.8125 200.6875 C-32.81894531 199.74261719 -32.82539063 198.79773438 -32.83203125 197.82421875 C-32.93102048 195.03888882 -32.93102048 195.03888882 -33.5078125 192.5078125 C-34.06314124 189.67828034 -34.09720746 187.06821952 -34.0625 184.1875 C-34.04896484 182.72376953 -34.04896484 182.72376953 -34.03515625 181.23046875 C-34.02355469 180.49441406 -34.01195312 179.75835937 -34 179 C-37.465 180.98 -37.465 180.98 -41 183 C-41.23574893 175.37745124 -40.93034147 168.3914974 -39 161 C-38.81695312 160.25105469 -38.63390625 159.50210938 -38.4453125 158.73046875 C-36.33175377 151.28082657 -31.86033873 143.00982025 -25 139 C-24.01 139.33 -23.02 139.66 -22 140 C-22 140.99 -22 141.98 -22 143 C-19.36 142.67 -16.72 142.34 -14 142 C-15.3239329 136.30708852 -17.52602852 134.40410874 -22 131 C-22 130.67 -22 130.34 -22 130 C-13.42857143 129.71428571 -13.42857143 129.71428571 -10 132 C-8.09887882 130.09887882 -8.86941296 126.74051542 -8.8671875 124.21875 C-8.86623077 123.53123657 -8.86527405 122.84372314 -8.86428833 122.13537598 C-8.86360595 120.6726065 -8.86546423 119.20983402 -8.86962891 117.74707031 C-8.87491147 115.53703728 -8.86972014 113.32721361 -8.86328125 111.1171875 C-8.38080366 98.14221103 -8.38080366 98.14221103 -12 86 C-13.95086518 86.034379 -13.95086518 86.034379 -16 87 C-17.38082088 89.69510274 -17.38082088 89.69510274 -18.375 93 C-23.24896823 106.63211421 -23.24896823 106.63211421 -28.94921875 110.23046875 C-31.970474 111.36415881 -34.80946548 111.12271287 -38 111 C-38.03738281 110.16855469 -38.07476562 109.33710938 -38.11328125 108.48046875 C-38.17902344 107.39378906 -38.24476563 106.30710937 -38.3125 105.1875 C-38.37050781 104.10855469 -38.42851562 103.02960938 -38.48828125 101.91796875 C-39.04923282 98.71926018 -39.67080696 98.07941362 -42 96 C-42 95.01 -42 94.02 -42 93 C-41.01 92.505 -41.01 92.505 -40 92 C-43.96 91.505 -43.96 91.505 -48 91 C-47.10451864 88.76129659 -46.43715218 87.30600653 -44.4375 85.90625 C-40.94057913 84.60611276 -37.43883742 84.53141713 -33.75 84.375 C-33.00492188 84.33632812 -32.25984375 84.29765625 -31.4921875 84.2578125 C-29.6618476 84.16394892 -27.83095857 84.08090282 -26 84 C-24.02 79.71 -22.04 75.42 -20 71 C-18.35 71 -16.7 71 -15 71 C-14.34 72.98 -13.68 74.96 -13 77 C-12.4225 76.319375 -11.845 75.63875 -11.25 74.9375 C-9 73 -9 73 -7.0234375 73.125 C-4.37390593 74.27074338 -3.7459853 75.55492366 -2.375 78.0625 C-1.21767599 80.23477047 -1.21767599 80.23477047 0 82 C0.66 82 1.32 82 2 82 C2.66 76.39 3.32 70.78 4 65 C-0.57253969 63.17098412 -2.60161793 62.77146413 -7.3125 62.875 C-8.38113281 62.89304688 -9.44976562 62.91109375 -10.55078125 62.9296875 C-11.76314453 62.96449219 -11.76314453 62.96449219 -13 63 C-14.3690834 58.46545625 -13.47707657 54.91516047 -12.1875 50.5 C-12.00896484 49.84902344 -11.83042969 49.19804688 -11.64648438 48.52734375 C-10.637252 44.92033996 -9.46483268 41.44666513 -8 38 C-7.34 38 -6.68 38 -6 38 C-5.79375 37.01 -5.5875 36.02 -5.375 35 C-3.85970483 29.63650917 -0.33928258 25.21875748 3.66796875 21.41796875 C5.2321175 20.02090024 5.2321175 20.02090024 5.375 17.5625 C4.93616129 14.5637688 3.86476035 13.33095044 2 11 C2 10.01 2 9.02 2 8 C4.475 8.495 4.475 8.495 7 9 C4.78071806 6.09197539 3.07030857 4.04687238 0 2 C0 1.34 0 0.68 0 0 Z " fill="#0C446A" transform="translate(243,71)"/>
<path d="M0 0 C2.85828176 3.27288966 2.23965145 6.72219865 2.08984375 10.91015625 C2.08017578 11.71324219 2.07050781 12.51632813 2.06054688 13.34375 C1.98463428 17.35061454 1.75041829 21.12703574 0.77734375 25.03515625 C-2.44179596 24.67747406 -3.32937325 23.92570292 -5.66015625 21.53515625 C-8.24587399 18.55871108 -8.24587399 18.55871108 -13.22265625 18.03515625 C-13.55265625 25.29515625 -13.88265625 32.55515625 -14.22265625 40.03515625 C-13.56265625 40.03515625 -12.90265625 40.03515625 -12.22265625 40.03515625 C-12.09765625 45.78515625 -12.09765625 45.78515625 -13.22265625 48.03515625 C-14.54265625 48.03515625 -15.86265625 48.03515625 -17.22265625 48.03515625 C-21.16387121 43.75612286 -21.71744146 40.12545983 -21.94921875 34.40234375 C-22.24107859 31.87567146 -22.9615296 30.22447211 -24.22265625 28.03515625 C-24.88265625 28.03515625 -25.54265625 28.03515625 -26.22265625 28.03515625 C-28.15231523 22.24617932 -28.64994598 15.13400342 -26.05859375 9.5078125 C-20.36027814 1.66167024 -9.67215918 -4.198635 0 0 Z " fill="#EEF1F4" transform="translate(240.22265625,234.96484375)"/>
<path d="M0 0 C0.25 7.625 0.25 7.625 -2 11 C-2.21116612 13.58444972 -2.21116612 13.58444972 -2.0546875 16.48046875 C-2.03019531 17.56263672 -2.00570312 18.64480469 -1.98046875 19.75976562 C-1.91074877 22.02566485 -1.83276664 24.29132653 -1.74609375 26.55664062 C-1.6163202 33.00333266 -1.65660691 38.85199461 -6 44 C-8.14013672 45.20776367 -8.14013672 45.20776367 -10 46 C-10 46.66 -10 47.32 -10 48 C-12.375 47.6875 -12.375 47.6875 -15 47 C-17.41566294 43.37650559 -17.02686289 42.43394554 -16.4375 38.25 C-15.66745846 30.74888947 -17.3871747 26.93077538 -22 21 C-22 20.34 -22 19.68 -22 19 C-20.35 19 -18.7 19 -17 19 C-17.04125 17.7625 -17.0825 16.525 -17.125 15.25 C-17.13658291 11.98362038 -16.8568702 9.7853053 -15 7 C-14.34 7 -13.68 7 -13 7 C-13 7.99 -13 8.98 -13 10 C-12.01 10 -11.02 10 -10 10 C-9.773125 9.278125 -9.54625 8.55625 -9.3125 7.8125 C-7.30908561 3.51946916 -4.96764292 0 0 0 Z " fill="#1B4F73" transform="translate(184,131)"/>
<path d="M0 0 C4 1 4 1 6 4 C6.68741009 10.03886067 5.11540727 13.84856186 2.1875 18.9375 C1.78442627 19.6397168 1.38135254 20.34193359 0.96606445 21.06542969 C-4.53008082 30.10358189 -12.27330486 35.19967589 -22.35546875 38.19921875 C-28.82827587 39.62143253 -35.37773144 40.46222342 -41.94921875 41.2890625 C-51.98028476 42.52927633 -51.98028476 42.52927633 -60.875 47 C-61.95394531 47.7734375 -61.95394531 47.7734375 -63.0546875 48.5625 C-63.69664063 49.036875 -64.33859375 49.51125 -65 50 C-65.99 50.66 -66.98 51.32 -68 52 C-67.51556325 47.80154817 -64.97807949 44.82015103 -62 42 C-54.21139909 36.66039216 -44.27486955 35.183576 -35.125 33.5 C-25.24048035 31.5743112 -20.15658698 28.88256657 -14 21 C-9.87048867 16.3124466 -5.48559771 13.86561075 0 11 C0 7.37 0 3.74 0 0 Z " fill="#1C5074" transform="translate(185,255)"/>
<path d="M0 0 C4.27016632 3.08954583 6.2573179 4.87140127 7.15234375 10.25 C7.7023816 17.6143957 7.7023816 17.6143957 5.01171875 20.81640625 C-0.08870293 24.4795957 -4.07494889 25.6006028 -10.26171875 24.76171875 C-13.07181394 23.75296663 -13.92869583 23.42776458 -15.26171875 20.76171875 C-16.25171875 20.43171875 -17.24171875 20.10171875 -18.26171875 19.76171875 C-19.81418324 15.10432527 -20.43358085 10.25075386 -18.28515625 5.6875 C-13.90506246 -0.72141023 -7.44351432 -4.07529195 0 0 Z " fill="#1D5174" transform="translate(195.26171875,31.23828125)"/>
<path d="M0 0 C2.23828125 0.0390625 2.23828125 0.0390625 5 1 C6.93008791 3.10081533 8.54664279 5.0713457 10.1875 7.375 C10.84395508 8.26058594 10.84395508 8.26058594 11.51367188 9.1640625 C17 16.60201574 17 16.60201574 17 20 C14.875 20 14.875 20 12 19 C6 12.60655738 6 12.60655738 6 9 C5.34 9 4.68 9 4 9 C4.144375 9.72445312 4.28875 10.44890625 4.4375 11.1953125 C5.39550392 16.18491623 6.27607149 20.89267738 6 26 C2.40486564 25.41287515 0.58441172 24.01561087 -2.0625 21.5625 C-4.33756394 19.47083853 -6.41507709 17.72328194 -9 16 C-8.71125 16.66386719 -8.4225 17.32773437 -8.125 18.01171875 C-7.568125 19.33623047 -7.568125 19.33623047 -7 20.6875 C-6.62875 21.55761719 -6.2575 22.42773438 -5.875 23.32421875 C-4.98129512 26.0572002 -4.83550324 28.14700934 -5 31 C-6.32 31.33 -7.64 31.66 -9 32 C-10.01401869 29.31707555 -11.01128551 26.62974283 -12 23.9375 C-12.28617188 23.18533203 -12.57234375 22.43316406 -12.8671875 21.65820312 C-14.60594087 16.87663136 -15.3242268 13.0863079 -15 8 C-13.2890625 7.2578125 -13.2890625 7.2578125 -11 7 C-8.7109375 8.6171875 -8.7109375 8.6171875 -6.375 10.875 C-3.43499103 13.78912876 -3.43499103 13.78912876 0 16 C-0.16242188 15.45730469 -0.32484375 14.91460937 -0.4921875 14.35546875 C-1.08173628 11.62086939 -1.13246613 9.10856538 -1.125 6.3125 C-1.12757813 5.33925781 -1.13015625 4.36601563 -1.1328125 3.36328125 C-1 1 -1 1 0 0 Z " fill="#255779" transform="translate(150,43)"/>
<path d="M0 0 C1.98 0 3.96 0 6 0 C7.89012858 4.29574677 9.51527578 8.54582734 11 13 C12.04757853 15.61692397 13.11451667 18.22474819 14.1953125 20.828125 C15 23 15 23 15 25 C7.08 25 -0.84 25 -9 25 C-8.34821838 21.74109192 -7.79776221 19.16776527 -6.66015625 16.15234375 C-6.2724707 15.12077148 -6.2724707 15.12077148 -5.87695312 14.06835938 C-5.60818359 13.36517578 -5.33941406 12.66199219 -5.0625 11.9375 C-4.79759766 11.23044922 -4.53269531 10.52339844 -4.25976562 9.79492188 C-2.99130958 6.44279858 -1.69872431 3.15946309 0 0 Z " fill="#27597B" transform="translate(233,26)"/>
<path d="M0 0 C8.49430869 0.34045325 15.973914 2.25658428 24 5 C23.99609375 7.29296875 23.99609375 7.29296875 23 10 C20.29093683 11.38303225 17.91955814 12.37660974 15.0625 13.3125 C14.32064453 13.57611328 13.57878906 13.83972656 12.81445312 14.11132812 C7.40353084 16 7.40353084 16 5 16 C5 16.66 5 17.32 5 18 C5.67546875 18.12117188 6.3509375 18.24234375 7.046875 18.3671875 C7.93890625 18.53476563 8.8309375 18.70234375 9.75 18.875 C10.63171875 19.03742188 11.5134375 19.19984375 12.421875 19.3671875 C14.86947744 19.96796264 16.80599857 20.77997117 19 22 C19 22.99 19 23.98 19 25 C13.64104984 25.34949675 9.53853602 24.38538935 4.4453125 22.734375 C1.2956988 21.78848462 -1.73593305 21.35478989 -5 21 C-5 19.35 -5 17.7 -5 16 C8.51724138 9 8.51724138 9 14 9 C14 8.34 14 7.68 14 7 C12.86111328 6.80083984 12.86111328 6.80083984 11.69921875 6.59765625 C10.70535156 6.42105469 9.71148437 6.24445313 8.6875 6.0625 C7.70136719 5.88847656 6.71523438 5.71445313 5.69921875 5.53515625 C3 5 3 5 0 4 C0 2.68 0 1.36 0 0 Z " fill="#205376" transform="translate(48,159)"/>
<path d="M0 0 C0 1.32 0 2.64 0 4 C-1.65 4.66 -3.3 5.32 -5 6 C-5.33 9.3 -5.66 12.6 -6 16 C-4.68 16.33 -3.36 16.66 -2 17 C-2 18.65 -2 20.3 -2 22 C-6.27369541 22.35105355 -8.4402723 21.44994715 -12 19.125 C-15.26811557 17.01093774 -18.35462124 15.36778031 -22 14 C-23.34050052 13.34786461 -24.67661368 12.68620031 -26 12 C-26 10.02 -26 8.04 -26 6 C-17.67922358 2.96085117 -8.96571749 0 0 0 Z " fill="#295A7B" transform="translate(66,189)"/>
<path d="M0 0 C0.66 0.66 1.32 1.32 2 2 C1.75067645 6.08151887 -1.00430208 9.16937472 -3.3125 12.375 C-4.10076456 13.48662185 -4.88852783 14.59859933 -5.67578125 15.7109375 C-6.06072754 16.25202148 -6.44567383 16.79310547 -6.84228516 17.35058594 C-8.60990985 19.86894791 -10.30500916 22.43230221 -12 25 C-12.99 24.34 -13.98 23.68 -15 23 C-14.62875 21.14375 -14.62875 21.14375 -14.25 19.25 C-13.87379808 16.12420465 -13.7950404 15.33305934 -15.5 12.5625 C-18.65400123 10.59124923 -21.32383397 10.282782 -25 10 C-25.33 8.68 -25.66 7.36 -26 6 C-23.30443832 4.20295888 -21.97717099 3.60381795 -18.9453125 2.9296875 C-18.16542969 2.75566406 -17.38554687 2.58164063 -16.58203125 2.40234375 C-15.36580078 2.14130859 -15.36580078 2.14130859 -14.125 1.875 C-12.92037109 1.60236328 -12.92037109 1.60236328 -11.69140625 1.32421875 C-3.67228221 -0.43285456 -3.67228221 -0.43285456 0 0 Z " fill="#26587A" transform="translate(388,107)"/>
<path d="M0 0 C0.77472656 0.00451172 1.54945313 0.00902344 2.34765625 0.01367188 C4.23180524 0.02530242 6.11591365 0.04323094 8 0.0625 C8 1.7125 8 3.3625 8 5.0625 C4.7 5.0625 1.4 5.0625 -2 5.0625 C-2 8.3625 -2 11.6625 -2 15.0625 C1.63 15.0625 5.26 15.0625 9 15.0625 C9 16.7125 9 18.3625 9 20.0625 C3.67132017 21.17191367 -1.46281855 21.17798069 -6.875 21.125 C-7.75414062 21.12048828 -8.63328125 21.11597656 -9.5390625 21.11132812 C-11.69273803 21.09962337 -13.84637817 21.08169069 -16 21.0625 C-16 19.4125 -16 17.7625 -16 16.0625 C-12.7 16.0625 -9.4 16.0625 -6 16.0625 C-6 12.7625 -6 9.4625 -6 6.0625 C-9.63 6.0625 -13.26 6.0625 -17 6.0625 C-17 4.4125 -17 2.7625 -17 1.0625 C-11.28094617 0.23713655 -5.7732851 -0.06503701 0 0 Z " fill="#2A5B7C" transform="translate(414,194.9375)"/>
<path d="M0 0 C1.32 0.33 2.64 0.66 4 1 C4 2.32 4 3.64 4 5 C3 6 2 7 1 8 C1 9.32 1 10.64 1 12 C3.31 13.32 5.62 14.64 8 16 C8.28875 15.21625 8.5775 14.4325 8.875 13.625 C10 11 10 11 12 9 C14.625 9.375 14.625 9.375 17 10 C15.43626854 14.69119439 12.84179868 18.25622158 9.9375 22.1875 C6.71628637 26.43524864 6.71628637 26.43524864 4 31 C2.68 30.34 1.36 29.68 0 29 C0.61277612 26.03824877 1.25372522 24.61941217 3 22 C3 21.01 3 20.02 3 19 C-0.465 17.02 -0.465 17.02 -4 15 C-5.41377341 17.63904371 -6.37240135 20.07120629 -7 23 C-8.65 23 -10.3 23 -12 23 C-12.75 21.3125 -12.75 21.3125 -13 19 C-11.3125 16.6875 -11.3125 16.6875 -9 14 C-8.01733418 12.28825954 -7.03540456 10.57588276 -6.08203125 8.84765625 C-4.26470623 5.74442616 -2.12806634 2.89653474 0 0 Z " fill="#27597B" transform="translate(330,54)"/>
<path d="M0 0 C3.25829371 1.3832379 4.93662383 2.84798481 7.015625 5.6953125 C7.80839844 6.76845703 7.80839844 6.76845703 8.6171875 7.86328125 C9.15601563 8.60964844 9.69484375 9.35601562 10.25 10.125 C10.80429688 10.87910156 11.35859375 11.63320312 11.9296875 12.41015625 C13.29384103 14.26822744 14.65020178 16.13148816 16 18 C15.34 19.32 14.68 20.64 14 22 C10.31197956 20.77065985 9.27643027 19.06140622 7 16 C4.13275314 16.57344937 3.1385485 16.8614515 1 19 C1.32971479 22.29714793 1.6226839 23.6226839 4 26 C3.8125 28.0625 3.8125 28.0625 3 30 C2.01 30.33 1.02 30.66 0 31 C-2.00775098 28.38084613 -4.00484195 25.75375554 -6 23.125 C-6.57234375 22.37863281 -7.1446875 21.63226563 -7.734375 20.86328125 C-8.27578125 20.14785156 -8.8171875 19.43242188 -9.375 18.6953125 C-9.87773438 18.03547363 -10.38046875 17.37563477 -10.8984375 16.69580078 C-12 15 -12 15 -12 13 C-12.66 13 -13.32 13 -14 13 C-13.34 11.68 -12.68 10.36 -12 9 C-11.01 9 -10.02 9 -9 9 C-6.8125 12 -6.8125 12 -5 15 C-2.07120629 14.37240135 0.36095629 13.41377341 3 12 C2.34 10.9275 1.68 9.855 1 8.75 C-0.88295807 5.69019314 -1 4.8664136 -1 1 C-0.67 0.67 -0.34 0.34 0 0 Z " fill="#225577" transform="translate(123,58)"/>
<path d="M0 0 C1.25683594 0.00483398 1.25683594 0.00483398 2.5390625 0.00976562 C3.395 0.01814453 4.2509375 0.02652344 5.1328125 0.03515625 C6.01195313 0.03966797 6.89109375 0.04417969 7.796875 0.04882812 C9.95055053 0.06053288 12.10419067 0.07846556 14.2578125 0.09765625 C14.2578125 1.74765625 14.2578125 3.39765625 14.2578125 5.09765625 C7.3278125 5.09765625 0.3978125 5.09765625 -6.7421875 5.09765625 C-6.7421875 8.39765625 -6.7421875 11.69765625 -6.7421875 15.09765625 C0.5178125 15.09765625 7.7778125 15.09765625 15.2578125 15.09765625 C15.2578125 16.74765625 15.2578125 18.39765625 15.2578125 20.09765625 C6.6778125 20.09765625 -1.9021875 20.09765625 -10.7421875 20.09765625 C-10.7421875 13.82765625 -10.7421875 7.55765625 -10.7421875 1.09765625 C-6.83998992 0.44728999 -3.82090035 -0.02617055 0 0 Z " fill="#2E5E7F" transform="translate(49.7421875,213.90234375)"/>
<path d="M0 0 C5.32498673 0.50155186 9.35205395 3.34435727 13.8125 6.0625 C14.60076172 6.53494141 15.38902344 7.00738281 16.20117188 7.49414062 C18.13812608 8.65631315 20.07078295 9.82504417 22 11 C21.67 12.32 21.34 13.64 21 15 C16.02293372 14.04287187 11.95575712 11.68814512 7.875 8.75 C5.24063021 6.80501989 5.24063021 6.80501989 2.75 7 C0.43643059 8.32203966 -0.12132546 9.51042214 -1 12 C-1 12.99 -1 13.98 -1 15 C-0.21625 15.37125 0.5675 15.7425 1.375 16.125 C6.07739156 18.46489195 10.52073579 21.26463905 15 24 C14.67 25.32 14.34 26.64 14 28 C8.67501327 27.49844814 4.64794605 24.65564273 0.1875 21.9375 C-0.60076172 21.46505859 -1.38902344 20.99261719 -2.20117188 20.50585938 C-4.13812608 19.34368685 -6.07078295 18.17495583 -8 17 C-7.12380958 13.04398146 -5.39060918 9.76946406 -3.4375 6.25 C-3.10814453 5.64800781 -2.77878906 5.04601562 -2.43945312 4.42578125 C-1.6303535 2.94829497 -0.81572338 1.47383964 0 0 Z " fill="#26587A" transform="translate(68,115)"/>
<path d="M0 0 C2.625 0.375 2.625 0.375 5 1 C4.33333333 3.66666667 3.66666667 6.33333333 3 9 C4.03125 8.505 5.0625 8.01 6.125 7.5 C9.52451578 6.02526098 12.27021549 5.72708894 16 6 C16.33 6.99 16.66 7.98 17 9 C13.04 10.65 9.08 12.3 5 14 C5.57628575 19.35122481 6.20716798 24.67669928 7 30 C4.60546875 29.34765625 4.60546875 29.34765625 2 28 C0.92578125 25.43359375 0.92578125 25.43359375 0.3125 22.4375 C-0.07412772 20.61347108 -0.50111223 18.79657271 -1 17 C-1.66 16.67 -2.32 16.34 -3 16 C-3.66 18.31 -4.32 20.62 -5 23 C-6.65 22.67 -8.3 22.34 -10 22 C-9.44271087 18.65626525 -8.64826111 15.96687001 -7 13 C-6.34 13 -5.68 13 -5 13 C-4.80664062 12.22914062 -4.61328125 11.45828125 -4.4140625 10.6640625 C-4.15367187 9.66117188 -3.89328125 8.65828125 -3.625 7.625 C-3.36976563 6.62726562 -3.11453125 5.62953125 -2.8515625 4.6015625 C-2 2 -2 2 0 0 Z " fill="#215477" transform="translate(307,42)"/>
<path d="M0 0 C0 1.32 0 2.64 0 4 C-2.31 4.66 -4.62 5.32 -7 6 C-5.05995712 8.26338336 -3.66886183 9.1457008 -0.875 10.375 C2 12 2 12 2.875 14.6875 C2.91625 15.450625 2.9575 16.21375 3 17 C0.13275314 16.42655063 -0.8614515 16.1385485 -3 14 C-4.66072849 13.31867549 -6.327767 12.65257873 -8 12 C-8.99 11.34 -9.98 10.68 -11 10 C-11.268125 10.57234375 -11.53625 11.1446875 -11.8125 11.734375 C-13.04132636 14.07884634 -14.42522176 16.12404938 -16 18.25 C-16.515625 18.95640625 -17.03125 19.6628125 -17.5625 20.390625 C-18.036875 20.92171875 -18.51125 21.4528125 -19 22 C-19.66 22 -20.32 22 -21 22 C-21.61914875 18.55045695 -21.3542827 16.54607484 -19.44140625 13.59765625 C-17.67691455 11.35032577 -15.87664598 9.15431299 -14 7 C-15.15048828 7.49113281 -15.15048828 7.49113281 -16.32421875 7.9921875 C-19.09718753 9.03660494 -21.06773447 9.16755803 -24 9 C-24 7.35 -24 5.7 -24 4 C-15.92422885 1.02766756 -8.6137907 -0.17945397 0 0 Z " fill="#255779" transform="translate(417,170)"/>
<path d="M0 0 C0.99 0 1.98 0 3 0 C3.11459026 7.41017023 2.91160286 14.64206267 2 22 C0.68 22 -0.64 22 -2 22 C-3.98 17.71 -5.96 13.42 -8 9 C-8.66 13.95 -9.32 18.9 -10 24 C-15 23 -15 23 -16.765625 20.5234375 C-21.7272968 9.99947048 -21.7272968 9.99947048 -22 4 C-21.01 4 -20.02 4 -19 4 C-18.35089846 5.58199631 -17.70585306 7.16565724 -17.0625 8.75 C-16.70285156 9.63171875 -16.34320313 10.5134375 -15.97265625 11.421875 C-15.14643424 13.61186104 -14.50630057 15.71898271 -14 18 C-13.34 18 -12.68 18 -12 18 C-12 12.72 -12 7.44 -12 2 C-10.68 2 -9.36 2 -8 2 C-6 5 -6 5 -6 8 C-5.34 8 -4.68 8 -4 8 C-3.34 9.65 -2.68 11.3 -2 13 C-1.34 8.71 -0.68 4.42 0 0 Z " fill="#85BFE5" transform="translate(275,381)"/>
<path d="M0 0 C1.65 0 3.3 0 5 0 C4.7834375 0.8353125 4.7834375 0.8353125 4.5625 1.6875 C3.97230872 4.11384195 3.476571 6.54906345 3 9 C4.65 9.33 6.3 9.66 8 10 C8.33 8.35 8.66 6.7 9 5 C10.65 4.67 12.3 4.34 14 4 C13.34 6.97 12.68 9.94 12 13 C13.98 13 15.96 13 18 13 C18.33 11.35 18.66 9.7 19 8 C20.65 8 22.3 8 24 8 C23.33989524 10.84550012 22.48275034 13.52325999 21.4375 16.25 C21.16808594 16.95640625 20.89867188 17.6628125 20.62109375 18.390625 C20.41613281 18.92171875 20.21117188 19.4528125 20 20 C12.13620323 17.81659819 4.58324716 15.00714974 -3 12 C-2.34877894 7.81106456 -1.42755093 3.9971426 0 0 Z " fill="#225577" transform="translate(55,139)"/>
<path d="M0 0 C0.88751953 0.63228516 0.88751953 0.63228516 1.79296875 1.27734375 C2.58316406 1.82519531 3.37335938 2.37304688 4.1875 2.9375 C4.96480469 3.48277344 5.74210937 4.02804688 6.54296875 4.58984375 C9.66445139 6.38134651 12.41850474 7 16 7 C16.33 6.01 16.66 5.02 17 4 C22.22222222 1 22.22222222 1 25 1 C25.09688221 6.44693314 25.12862175 11.63904667 24 17 C22.68 17 21.36 17 20 17 C20 14.69 20 12.38 20 10 C19.01 10 18.02 10 17 10 C17 10.66 17 11.32 17 12 C10.01057082 13.56659619 10.01057082 13.56659619 7.1328125 11.953125 C5.5 10.5625 5.5 10.5625 3 8 C3 10.64 3 13.28 3 16 C1.68 16 0.36 16 -1 16 C-1.02692484 13.70839681 -1.04636124 11.41670454 -1.0625 9.125 C-1.07410156 7.84882813 -1.08570313 6.57265625 -1.09765625 5.2578125 C-1 2 -1 2 0 0 Z " fill="#27597B" transform="translate(398,220)"/>
<path d="M0 0 C0.99 0.33 1.98 0.66 3 1 C2.38722388 3.96175123 1.74627478 5.38058783 0 8 C1.8871875 8.061875 1.8871875 8.061875 3.8125 8.125 C6.01953125 8.390625 6.01953125 8.390625 8 9 C10.23778305 12.21681314 11 14.08666998 11 18 C12.65 16.35 14.3 14.7 16 13 C16.99 13.33 17.98 13.66 19 14 C18.4352699 17.90829085 16.57868029 19.89920223 13.9375 22.75 C13.20402344 23.54921875 12.47054687 24.3484375 11.71484375 25.171875 C11.14894531 25.77515625 10.58304688 26.3784375 10 27 C8 26 8 26 7.1484375 23.49609375 C6.43229167 20.6640625 5.71614583 17.83203125 5 15 C0.71 14.34 -3.58 13.68 -8 13 C-8 8.21861363 -7.16772988 7.615713 -4 4.25 C-3.2575 3.45078125 -2.515 2.6515625 -1.75 1.828125 C-1.1725 1.22484375 -0.595 0.6215625 0 0 Z " fill="#245678" transform="translate(89,88)"/>
<path d="M0 0 C4.28823264 0.85214879 6.24486941 2.55608676 9 6 C9.5625 9.125 9.5625 9.125 9 12 C7.1875 13.875 7.1875 13.875 5 15 C4.01 15 3.02 15 2 15 C1.855625 15.9075 1.71125 16.815 1.5625 17.75 C1.13590527 20.21476956 0.64925779 22.58847107 0 25 C-0.99 25 -1.98 25 -3 25 C-2.67 21.04 -2.34 17.08 -2 13 C-3.32 12.67 -4.64 12.34 -6 12 C-6.309375 12.61875 -6.61875 13.2375 -6.9375 13.875 C-7.625 15.25 -8.3125 16.625 -9 18 C-9.99 18 -10.98 18 -12 18 C-11.40336514 14.90106073 -10.4698686 12.99707826 -8.49609375 10.546875 C-8.00302734 9.928125 -7.50996094 9.309375 -7.00195312 8.671875 C-6.48568359 8.03765625 -5.96941406 7.4034375 -5.4375 6.75 C-4.91736328 6.1003125 -4.39722656 5.450625 -3.86132812 4.78125 C-2.580156 3.18272331 -1.29085995 1.59071374 0 0 Z " fill="#7DBBE4" transform="translate(122,347)"/>
<path d="M0 0 C4.0743356 0.84881992 5.54405875 2.30225596 8 5.625 C8.625 8.625 8.625 8.625 8 11.625 C5.36788535 15.29400829 3.91145674 16.46509531 -0.5625 17.25 C-4 16.625 -4 16.625 -6.4375 14.5 C-8.29055839 11.09037255 -8.71588388 9.44304737 -8 5.625 C-5.54405875 2.30225596 -4.0743356 0.84881992 0 0 Z " fill="#F4F6F8" transform="translate(189,34.375)"/>
<path d="M0 0 C3.4072219 1.70361095 5.48035706 3.13232136 8.25 5.625 C8.95640625 6.25664063 9.6628125 6.88828125 10.390625 7.5390625 C10.92171875 8.02117187 11.4528125 8.50328125 12 9 C11.67 9.99 11.34 10.98 11 12 C8.50638429 10.79618552 6.31856917 9.54571278 4 8 C3.67 10.97 3.34 13.94 3 17 C-0.61973402 18.31626692 -3.09567131 19 -7 19 C-6.175 19.763125 -5.35 20.52625 -4.5 21.3125 C-2 24 -2 24 -2 27 C-6.78138637 27 -7.384287 26.16772988 -10.75 23 C-11.54921875 22.2575 -12.3484375 21.515 -13.171875 20.75 C-14.07679688 19.88375 -14.07679688 19.88375 -15 19 C-14.505 17.515 -14.505 17.515 -14 16 C-10.07340144 14.6310424 -6.06798163 13.89923805 -2 13 C-1.34 8.71 -0.68 4.42 0 0 Z " fill="#205376" transform="translate(352,70)"/>
<path d="M0 0 C1.4540625 0.0309375 1.4540625 0.0309375 2.9375 0.0625 C3.625 2.375 3.625 2.375 3.9375 5.0625 C3.2259375 5.69671875 3.2259375 5.69671875 2.5 6.34375 C0.23535554 8.83485891 0.42792269 10.94063803 0.25 14.25 C0.18425781 15.33667969 0.11851562 16.42335938 0.05078125 17.54296875 C0.01339844 18.37441406 -0.02398437 19.20585937 -0.0625 20.0625 C-1.52042884 20.11649736 -2.97892712 20.15529177 -4.4375 20.1875 C-5.65566406 20.22230469 -5.65566406 20.22230469 -6.8984375 20.2578125 C-9.0625 20.0625 -9.0625 20.0625 -11.0625 18.0625 C-10.75236098 13.49441071 -9.30760157 10.19511838 -7.0625 6.25 C-6.52625 5.29480469 -5.99 4.33960938 -5.4375 3.35546875 C-3.46780076 0.07077144 -3.46780076 0.07077144 0 0 Z " fill="#285A7B" transform="translate(200.0625,261.9375)"/>
<path d="M0 0 C2.97 0.495 2.97 0.495 6 1 C6.66 2.98 7.32 4.96 8 7 C11.09958263 6.30788391 11.09958263 6.30788391 12.375 3.9375 C14 2 14 2 16.6875 1.75 C17.450625 1.8325 18.21375 1.915 19 2 C18.42692775 5.57973901 17.15815543 7.0392539 14.5625 9.5 C10.04892241 14.38354297 9.5265734 19.55216245 9 26 C7.35 26 5.7 26 4 26 C4.04640625 25.02160156 4.0928125 24.04320313 4.140625 23.03515625 C4.33668268 15.91406119 4.39157336 10.04713894 0.875 3.63671875 C0 2 0 2 0 0 Z " fill="#28597B" transform="translate(253,27)"/>
<path d="M0 0 C-0.68761019 3.65564909 -2.25449545 6.51867272 -4.0625 9.75 C-4.61035156 10.73484375 -5.15820312 11.7196875 -5.72265625 12.734375 C-6.14417969 13.48203125 -6.56570312 14.2296875 -7 15 C-6.67 15.33 -6.34 15.66 -6 16 C-3.31363803 15.02992484 -1.15421596 14.11792985 1.125 12.375 C3 11 3 11 6 11 C4.64013776 14.33027487 3.53934748 15.57206621 0.25 17 C-2.46003307 18.23943436 -4.88421521 19.52159679 -7.3125 21.25 C-10 23 -10 23 -13 23 C-13.60592613 18.04844737 -11.48692983 14.76656903 -9 10.6875 C-8.6184375 10.04232422 -8.236875 9.39714844 -7.84375 8.73242188 C-6.90552382 7.14916519 -5.95405689 5.57376795 -5 4 C-5.83144531 4.5053125 -6.66289063 5.010625 -7.51953125 5.53125 C-9.14955078 6.50578125 -9.14955078 6.50578125 -10.8125 7.5 C-11.89144531 8.1496875 -12.97039062 8.799375 -14.08203125 9.46875 C-17 11 -17 11 -20 11 C-20 10.01 -20 9.02 -20 8 C-17.42474285 6.46382917 -14.841326 4.94611799 -12.25 3.4375 C-11.15558594 2.78104492 -11.15558594 2.78104492 -10.0390625 2.11132812 C-9.33007812 1.70205078 -8.62109375 1.29277344 -7.890625 0.87109375 C-6.91657715 0.29766235 -6.91657715 0.29766235 -5.92285156 -0.28735352 C-3.5589199 -1.16347293 -2.34057154 -0.82193222 0 0 Z " fill="#77B8E3" transform="translate(82,294)"/>
<path d="M0 0 C3.29982783 0.03554572 4.24330189 0.30836712 7.1875 2.125 C10.72964616 5.88182169 10.71744845 9.91141782 10.65234375 14.859375 C10.20876788 17.56389585 9.72351477 18.57629908 7.75 20.4375 C3.21669713 22.86605511 1.32511305 23.1180735 -3.75 22.3125 C-6.9424319 19.73138485 -9.44886044 17.50221477 -10.0234375 13.32421875 C-10.22157651 8.78988373 -10.28156961 6.96673952 -7.3125 3.3125 C-6.466875 2.6525 -5.62125 1.9925 -4.75 1.3125 C-3.75 0.3125 -3.75 0.3125 0 0 Z M-4.0625 3.625 C-6.68851653 7.80717448 -6.74649341 12.51321189 -5.75 17.3125 C-3.45983142 19.55972792 -2.48531907 20.3125 0.75 20.3125 C4.20737488 18.92955005 5.39459638 17.54227667 7.25 14.3125 C7.83346518 11.34213181 7.64472876 9.42098895 7.25 6.3125 C5.28221339 3.39726058 4.19277758 2.50105552 0.75 1.8125 C-1.81501618 2.18967031 -1.81501618 2.18967031 -4.0625 3.625 Z " fill="#7DBBE4" transform="translate(212.75,384.6875)"/>
<path d="M0 0 C0.99 0 1.98 0 3 0 C4.03307771 1.76371818 5.05112049 3.53625033 6.0625 5.3125 C6.63097656 6.29863281 7.19945312 7.28476563 7.78515625 8.30078125 C9 11 9 11 8 14 C6.68 14 5.36 14 4 14 C4 13.01 4 12.02 4 11 C-1.40525131 12.86726864 -6.07098237 15.07320479 -10.921875 18.109375 C-13.40870668 19.17516001 -14.50653347 18.92101016 -17 18 C-17 17.01 -17 16.02 -17 15 C-14.515625 13.24609375 -14.515625 13.24609375 -11.25 11.4375 C-10.18265625 10.83808594 -9.1153125 10.23867187 -8.015625 9.62109375 C-5.69350004 8.37280119 -3.36902253 7.15576099 -1 6 C-1.020625 5.195625 -1.04125 4.39125 -1.0625 3.5625 C-1 1 -1 1 0 0 Z " fill="#295A7C" transform="translate(395,122)"/>
<path d="M0 0 C0.99 0 1.98 0 3 0 C7.59225513 9.41002278 7.59225513 9.41002278 7 14 C6.01 14.33 5.02 14.66 4 15 C3.67 13.68 3.34 12.36 3 11 C1.33710938 11.63228516 1.33710938 11.63228516 -0.359375 12.27734375 C-1.82287248 12.830846 -3.2864166 13.38422496 -4.75 13.9375 C-5.47960937 14.21529297 -6.20921875 14.49308594 -6.9609375 14.77929688 C-8.02441406 15.18051758 -8.02441406 15.18051758 -9.109375 15.58984375 C-9.75874023 15.83597412 -10.40810547 16.08210449 -11.07714844 16.33569336 C-13.032576 17.01125435 -14.98665757 17.52800046 -17 18 C-17.33 16.68 -17.66 15.36 -18 14 C-12.83870948 10.55913965 -6.29739667 7 0 7 C-0.185625 6.030625 -0.37125 5.06125 -0.5625 4.0625 C-0.706875 3.051875 -0.85125 2.04125 -1 1 C-0.67 0.67 -0.34 0.34 0 0 Z " fill="#28597B" transform="translate(403,138)"/>
<path d="M0 0 C-0.19921875 1.8671875 -0.19921875 1.8671875 -1 4 C-3.14453125 5.1953125 -3.14453125 5.1953125 -5.8125 6.125 C-8.99174799 7.26145202 -12.0102231 8.42496601 -15 10 C-15 11.98 -15 13.96 -15 16 C-11.04 16 -7.08 16 -3 16 C-3 15.34 -3 14.68 -3 14 C-0.36 13.67 2.28 13.34 5 13 C5 13.99 5 14.98 5 16 C4.31292969 16.19335938 3.62585938 16.38671875 2.91796875 16.5859375 C1.56638672 16.97652344 1.56638672 16.97652344 0.1875 17.375 C-0.70582031 17.63023437 -1.59914063 17.88546875 -2.51953125 18.1484375 C-5.20467896 18.95266661 -5.20467896 18.95266661 -8 21 C-11.4375 21.4375 -11.4375 21.4375 -15 21 C-18.18533648 18.30471529 -18.90100875 16.61594555 -19.5625 12.5 C-18.82503679 7.91134001 -17.72901695 6.75947254 -14 4 C-9.26816999 1.66084009 -5.31971457 0 0 0 Z " fill="#96C8E9" transform="translate(73,272)"/>
<path d="M0 0 C4.56647432 0.5472928 7.8497681 2.53489424 11.625 5 C16.10082871 7.90683659 16.10082871 7.90683659 21 10 C20.67 10.99 20.34 11.98 20 13 C17.95221819 12.48805455 15.94129302 11.98043101 13.9375 11.3125 C11.67889722 10.72287634 11.67889722 10.72287634 9 13 C8.63637182 15.20725073 8.63637182 15.20725073 8.8125 17.625 C8.83957031 18.44226563 8.86664063 19.25953125 8.89453125 20.1015625 C8.92933594 20.72804688 8.96414063 21.35453125 9 22 C8.34 22 7.68 22 7 22 C-0.36483254 6.20215311 -0.36483254 6.20215311 0 0 Z " fill="#73B6E2" transform="translate(341,345)"/>
<path d="M0 0 C7.59 0 15.18 0 23 0 C23 0.99 23 1.98 23 3 C20.36 3 17.72 3 15 3 C14.43788686 8.32065759 14.43788686 8.32065759 16.5 12.875 C16.995 13.24625 17.49 13.6175 18 14 C18 14.66 18 15.32 18 16 C13.1609007 15.08753711 10.38239807 12.27750808 6.75 9.125 C6.1003125 8.58230469 5.450625 8.03960937 4.78125 7.48046875 C4.16765625 6.95324219 3.5540625 6.42601562 2.921875 5.8828125 C2.36081055 5.40215332 1.79974609 4.92149414 1.22167969 4.42626953 C0 3 0 3 0 0 Z " fill="#7EBCE4" transform="translate(389,276)"/>
<path d="M0 0 C0.99 0.33 1.98 0.66 3 1 C2.42415568 3.38564077 1.77772405 5.66682784 1 8 C1.84304687 8.33644531 1.84304687 8.33644531 2.703125 8.6796875 C5.67275417 10.38671923 7.50344167 12.54806544 9.75 15.125 C10.54921875 16.03507812 11.3484375 16.94515625 12.171875 17.8828125 C12.77515625 18.58148438 13.3784375 19.28015625 14 20 C13.34 21.32 12.68 22.64 12 24 C11.34 24 10.68 24 10 24 C8.44921875 22.42578125 8.44921875 22.42578125 6.6875 20.3125 C5.75164062 19.22582031 5.75164062 19.22582031 4.796875 18.1171875 C3.33663227 16.39664064 1.8856606 14.66822852 0.4375 12.9375 C-1.9147499 10.62659163 -1.9147499 10.62659163 -5.3125 11.1875 C-6.199375 11.455625 -7.08625 11.72375 -8 12 C-8 8 -8 8 -6.25 5.859375 C-5.5075 5.16328125 -4.765 4.4671875 -4 3.75 C-3.2575 3.04359375 -2.515 2.3371875 -1.75 1.609375 C-1.1725 1.07828125 -0.595 0.5471875 0 0 Z " fill="#1C5074" transform="translate(103,74)"/>
<path d="M0 0 C0 1.32 0 2.64 0 4 C-0.66 4 -1.32 4 -2 4 C-2 4.66 -2 5.32 -2 6 C-0.98679687 6.18175781 -0.98679687 6.18175781 0.046875 6.3671875 C1.38492188 6.61855469 1.38492188 6.61855469 2.75 6.875 C3.63171875 7.03742188 4.5134375 7.19984375 5.421875 7.3671875 C7.86947744 7.96796264 9.80599857 8.77997117 12 10 C12 10.99 12 11.98 12 13 C6.64104984 13.34949675 2.53853602 12.38538935 -2.5546875 10.734375 C-5.7043012 9.78848462 -8.73593305 9.35478989 -12 9 C-12 7.35 -12 5.7 -12 4 C-10.75539217 3.32332002 -9.50403104 2.65905281 -8.25 2 C-7.55390625 1.62875 -6.8578125 1.2575 -6.140625 0.875 C-4 0 -4 0 0 0 Z " fill="#28597B" transform="translate(55,171)"/>
<path d="M0 0 C4.86896303 0.59619955 9.32790951 1.56976822 14 3 C14 3.99 14 4.98 14 6 C12.35 6.33 10.7 6.66 9 7 C8.65066406 8.13179687 8.30132812 9.26359375 7.94140625 10.4296875 C7.48186105 11.91148631 7.02222069 13.39325562 6.5625 14.875 C6.33240234 15.62136719 6.10230469 16.36773437 5.86523438 17.13671875 C4.11328125 22.7734375 4.11328125 22.7734375 3 25 C1.68 25 0.36 25 -1 25 C-0.53720508 20.37205081 -0.10109549 17.13852141 2 13 C2.42151885 11.42841122 2.7968834 9.84370918 3.125 8.25 C3.37636719 7.05117188 3.37636719 7.05117188 3.6328125 5.828125 C3.75398438 5.22484375 3.87515625 4.6215625 4 4 C2.68 3.67 1.36 3.34 0 3 C0 2.01 0 1.02 0 0 Z " fill="#1A4E72" transform="translate(276,32)"/>
<path d="M0 0 C1.65 0 3.3 0 5 0 C4.4276602 4.46425044 3.22991021 8.44801659 1.765625 12.67578125 C0.64551286 16.07612168 -0.17672435 19.51691069 -1 23 C-2.65 23.33 -4.3 23.66 -6 24 C-7.16344173 20.50967481 -6.76539718 19.43292372 -5.6875 16 C-5.42324219 15.13375 -5.15898437 14.2675 -4.88671875 13.375 C-4 11 -4 11 -2 8 C-1.33841957 5.95415921 -1.33841957 5.95415921 -0.875 3.8125 C-0.58625 2.554375 -0.2975 1.29625 0 0 Z " fill="#406C8A" transform="translate(295,38)"/>
<path d="M0 0 C0.99 0 1.98 0 3 0 C3.33 0.66 3.66 1.32 4 2 C4.99 2.33 5.98 2.66 7 3 C8.1875 6.0625 8.1875 6.0625 9 9 C5 7 5 7 1 5 C-0.485 7.475 -0.485 7.475 -2 10 C-1.01 10 -0.02 10 1 10 C1.66 11.65 2.32 13.3 3 15 C0.13275314 14.42655063 -0.8614515 14.1385485 -3 12 C-5.10820797 12.3185177 -5.10820797 12.3185177 -7 13 C-7.86358623 14.78141747 -7.86358623 14.78141747 -8 17 C-6.10413616 19.14589423 -6.10413616 19.14589423 -4 21 C-4 21.66 -4 22.32 -4 23 C-7.43595166 21.47291037 -10.11912454 19.40072955 -13 17 C-12.58110793 12.58068871 -9.55211494 10.25029216 -6.5 7.375 C-2.79727917 4.04275785 -2.79727917 4.04275785 0 0 Z " fill="#75B7E2" transform="translate(109,335)"/>
<path d="M0 0 C0.66 0 1.32 0 2 0 C1.37695259 4.07453229 -0.76532621 6.89539701 -3.0625 10.25 C-3.79597656 11.32765625 -4.52945313 12.4053125 -5.28515625 13.515625 C-5.85105469 14.33546875 -6.41695313 15.1553125 -7 16 C-5.13481001 15.37827 -3.27917507 14.72597648 -1.44140625 14.02734375 C-0.49136719 13.66769531 0.45867187 13.30804688 1.4375 12.9375 C2.85869141 12.39416016 2.85869141 12.39416016 4.30859375 11.83984375 C7 11 7 11 11 11 C11 11.99 11 12.98 11 14 C-0.1328125 17.7109375 -0.1328125 17.7109375 -2.10644531 18.36230469 C-3.86957906 18.95607794 -5.61912126 19.58979591 -7.3671875 20.2265625 C-10 21 -10 21 -12 20 C-11.10153056 15.71751002 -8.94060684 12.48495873 -6.5625 8.875 C-6.15451172 8.24207031 -5.74652344 7.60914063 -5.32617188 6.95703125 C-3.68671553 4.43767093 -2.13123543 2.13123543 0 0 Z " fill="#7CBBE4" transform="translate(96,319)"/>
<path d="M0 0 C2.33447255 8.67089803 2.19865739 17.10456358 2 26 C1.34 26 0.68 26 0 26 C-0.07476562 25.18015625 -0.14953125 24.3603125 -0.2265625 23.515625 C-0.62629587 20.23937893 -1.08141605 17.17251678 -2 14 C-4.99371105 11.61384998 -4.99371105 11.61384998 -8 10 C-8.6875 7 -8.6875 7 -8 4 C-5.23478237 1.16004675 -4.0129782 0 0 0 Z " fill="#2E5E7E" transform="translate(196,226)"/>
<path d="M0 0 C0 0.99 0 1.98 0 3 C-2.31 3.33 -4.62 3.66 -7 4 C-6.67 6.31 -6.34 8.62 -6 11 C-3.03 10.34 -0.06 9.68 3 9 C2.67 9.99 2.34 10.98 2 12 C0.02 12.33 -1.96 12.66 -4 13 C-3.67 15.31 -3.34 17.62 -3 20 C0.3 19.34 3.6 18.68 7 18 C6.67 18.99 6.34 19.98 6 21 C3.08025324 22.32715762 0.71460638 22.9888168 -2.49609375 23.0390625 C-5 22 -5 22 -6.80078125 18.5078125 C-7.32560236 17.05425731 -7.82878213 15.59274552 -8.3125 14.125 C-8.57611328 13.39152344 -8.83972656 12.65804688 -9.11132812 11.90234375 C-10.1877637 8.83240541 -11 6.27338652 -11 3 C-4.5 0 -4.5 0 0 0 Z " fill="#6AB2E0" transform="translate(293,375)"/>
<path d="M0 0 C0.99 0 1.98 0 3 0 C5.44908676 4.4316808 6.92451381 8.82619053 8.3046875 13.6640625 C8.99841281 16.12953285 8.99841281 16.12953285 10.1875 18.9375 C11 21 11 21 11 24 C9.35 24 7.7 24 6 24 C5.49339844 22.55367187 5.49339844 22.55367187 4.9765625 21.078125 C4.52617788 19.80203525 4.07564947 18.52599624 3.625 17.25 C3.40328125 16.61578125 3.1815625 15.9815625 2.953125 15.328125 C2.02932823 12.71975765 1.09464214 10.18768017 -0.15234375 7.71484375 C-1.29709648 5.3989615 -1.20632969 3.54473279 -1 1 C-0.67 0.67 -0.34 0.34 0 0 Z " fill="#356383" transform="translate(166,37)"/>
<path d="M0 0 C0.99 0 1.98 0 3 0 C3 0.99 3 1.98 3 3 C2.01 3.495 2.01 3.495 1 4 C0.97287934 5.43739513 0.95354933 6.87493863 0.9375 8.3125 C0.92589844 9.11300781 0.91429687 9.91351563 0.90234375 10.73828125 C0.90342145 13.16861334 0.90342145 13.16861334 2 16 C5.63 16 9.26 16 13 16 C14.32 13.69 15.64 11.38 17 9 C17.66 9 18.32 9 19 9 C18.73497804 12.79864807 18.19602849 14.74055052 15.875 17.8125 C12.38117149 20.47084778 10.37566043 21 6 21 C2.47360918 19.77932625 0.5503487 18.64207349 -1.875 15.8125 C-3.36392134 12.09019665 -3.59832222 8.95690429 -3 5 C-1.6875 2 -1.6875 2 0 0 Z " fill="#7BBAE3" transform="translate(384,289)"/>
<path d="M0 0 C0 0.66 0 1.32 0 2 C-0.639375 2.226875 -1.27875 2.45375 -1.9375 2.6875 C-4.27193661 3.85250896 -4.27193661 3.85250896 -4.75 6.625 C-4.8325 7.40875 -4.915 8.1925 -5 9 C-4.09507812 8.94779297 -4.09507812 8.94779297 -3.171875 8.89453125 C0.36644251 8.77468501 3.23818445 8.70270613 6.5625 10 C8.87460278 13.21683865 8.25501172 16.11107127 8 20 C1.375 23 1.375 23 -2 23 C-2 22.01 -2 21.02 -2 20 C-0.02 19.34 1.96 18.68 4 18 C4.33 16.35 4.66 14.7 5 13 C4.22914063 12.95101563 3.45828125 12.90203125 2.6640625 12.8515625 C1.66117187 12.77679688 0.65828125 12.70203125 -0.375 12.625 C-1.87160156 12.52058594 -1.87160156 12.52058594 -3.3984375 12.4140625 C-6 12 -6 12 -8 10 C-8.55416667 3.90416667 -8.55416667 3.90416667 -6.8125 1.0625 C-4.43958382 -0.32851983 -2.70313576 -0.21917317 0 0 Z " fill="#76B7E2" transform="translate(308,369)"/>
<path d="M0 0 C0 1.32 0 2.64 0 4 C-7.59877122 6.83197448 -15.01323028 9.48526781 -23 11 C-23.33 9.35 -23.66 7.7 -24 6 C-21.12854755 4.98867084 -18.25354777 3.99075598 -15.375 3 C-14.56675781 2.71382812 -13.75851562 2.42765625 -12.92578125 2.1328125 C-8.46885356 0.61093475 -4.77962528 -0.37123303 0 0 Z " fill="#2A5B7C" transform="translate(414,158)"/>
<path d="M0 0 C4.88442171 1.61233338 8.69664143 4.38164832 12.8125 7.375 C13.85180664 8.09816406 13.85180664 8.09816406 14.91210938 8.8359375 C15.56630859 9.3103125 16.22050781 9.7846875 16.89453125 10.2734375 C17.49112549 10.70060059 18.08771973 11.12776367 18.70239258 11.56787109 C20 13 20 13 20 17 C14.90874355 16.5345137 11.76554643 13.97407882 7.8125 11 C3.57015276 7.74003195 3.57015276 7.74003195 -1 5 C-0.67 3.35 -0.34 1.7 0 0 Z " fill="#255779" transform="translate(75,105)"/>
<path d="M0 0 C3.70237797 0.31917051 5.08801878 0.67403953 7.625 3.3125 C7.625 3.9725 7.625 4.6325 7.625 5.3125 C4.325 4.6525 1.025 3.9925 -2.375 3.3125 C-0.85634786 7.61138613 -0.85634786 7.61138613 1.625 11.3125 C2.07732816 16.51427384 2.07732816 16.51427384 0.5625 19.1875 C-2.52597604 20.98080867 -4.88643969 20.74091969 -8.375 20.3125 C-10.8125 18.4375 -10.8125 18.4375 -12.375 16.3125 C-12.375 15.6525 -12.375 14.9925 -12.375 14.3125 C-11.818125 14.621875 -11.26125 14.93125 -10.6875 15.25 C-8.24959567 16.37011821 -6.01275814 16.87287364 -3.375 17.3125 C-2.58829449 15.05489143 -2.58829449 15.05489143 -2.375 12.3125 C-3.34385372 10.62753702 -4.34486723 8.96071244 -5.375 7.3125 C-5.6875 4.625 -5.6875 4.625 -5.375 2.3125 C-3.375 0.3125 -3.375 0.3125 0 0 Z " fill="#7CBBE3" transform="translate(139.375,359.6875)"/>
<path d="M0 0 C3.96 0 7.92 0 12 0 C12 0.66 12 1.32 12 2 C9.03 2 6.06 2 3 2 C3 4.64 3 7.28 3 10 C5.64 10 8.28 10 11 10 C11 10.66 11 11.32 11 12 C8.69 12 6.38 12 4 12 C4 15.3 4 18.6 4 22 C2.68 22 1.36 22 0 22 C0 14.74 0 7.48 0 0 Z " fill="#86C0E6" transform="translate(229,386)"/>
<path d="M0 0 C0 0.99 0 1.98 0 3 C-1.32 3.33 -2.64 3.66 -4 4 C-3.06758496 5.91914553 -2.12885525 7.83522386 -1.1875 9.75 C-0.66542969 10.81734375 -0.14335937 11.8846875 0.39453125 12.984375 C1.870171 15.95845191 1.870171 15.95845191 3.69921875 18.203125 C5 20 5 20 5 23 C3.68 23 2.36 23 1 23 C0.01836578 21.06374902 -0.96022454 19.12595461 -1.9375 17.1875 C-2.48277344 16.10855469 -3.02804687 15.02960938 -3.58984375 13.91796875 C-5 11 -5 11 -6 8 C-7.1446875 8.495 -7.1446875 8.495 -8.3125 9 C-11 10 -11 10 -14 10 C-12.55224845 6.40018534 -10.79045708 4.84896717 -7.5625 2.75 C-6.78003906 2.22921875 -5.99757813 1.7084375 -5.19140625 1.171875 C-3 0 -3 0 0 0 Z " fill="#7BBAE3" transform="translate(326,358)"/>
<path d="M0 0 C3.35867712 0.75970078 6.52123658 1.87093255 9.75 3.0625 C11.22726563 3.60583984 11.22726563 3.60583984 12.734375 4.16015625 C13.48203125 4.43730469 14.2296875 4.71445312 15 5 C15 5.99 15 6.98 15 8 C12.69 7.67 10.38 7.34 8 7 C5.85289032 12.62338249 3.86763181 18.27789404 2 24 C0.68 23.67 -0.64 23.34 -2 23 C-1.72414062 22.32582031 -1.44828125 21.65164063 -1.1640625 20.95703125 C0.17381915 17.5584527 1.40268239 14.12928907 2.625 10.6875 C2.85445312 10.04232422 3.08390625 9.39714844 3.3203125 8.73242188 C3.8810818 7.15525821 4.44066291 5.57767216 5 4 C3.35 3.67 1.7 3.34 0 3 C0 2.01 0 1.02 0 0 Z " fill="#82BEE5" transform="translate(159,370)"/>
<path d="M0 0 C0.66 0 1.32 0 2 0 C2.27714844 0.62648437 2.55429688 1.25296875 2.83984375 1.8984375 C3.20207031 2.71570313 3.56429687 3.53296875 3.9375 4.375 C4.29714844 5.18710938 4.65679687 5.99921875 5.02734375 6.8359375 C5.6569903 8.23683785 6.31312642 9.62625284 7 11 C7.07065617 13.04055005 7.08421976 15.08334257 7.0625 17.125 C7.05347656 18.22070312 7.04445312 19.31640625 7.03515625 20.4453125 C7.02355469 21.28835937 7.01195312 22.13140625 7 23 C5.125 22.75 5.125 22.75 3 22 C-1.09339514 15.91272529 -0.11126319 7.00958105 0 0 Z " fill="#194E72" transform="translate(161,168)"/>
<path d="M0 0 C-0.66 2.31 -1.32 4.62 -2 7 C-0.42353449 8.32074115 1.16145531 9.63131224 2.75 10.9375 C3.63171875 11.66839844 4.5134375 12.39929688 5.421875 13.15234375 C7.76330955 14.83037185 9.19661127 15.58735166 12 16 C11.67 17.32 11.34 18.64 11 20 C6.89889238 18.59601721 4.01910841 16.62912962 0.6875 13.875 C-0.19550781 13.15054687 -1.07851563 12.42609375 -1.98828125 11.6796875 C-2.65214844 11.12539063 -3.31601562 10.57109375 -4 10 C-4.598125 10.309375 -5.19625 10.61875 -5.8125 10.9375 C-8 12 -8 12 -11 13 C-9.75810874 8.58438665 -5.13864596 0 0 0 Z " fill="#7EBCE4" transform="translate(372,314)"/>
<path d="M0 0 C0.66 0 1.32 0 2 0 C2.99 3.3 3.98 6.6 5 10 C5.9075 8.845 6.815 7.69 7.75 6.5 C9.296875 4.53125 9.296875 4.53125 11 3 C12.32 3 13.64 3 15 3 C15 3.99 15 4.98 15 6 C12.8828125 7.76171875 12.8828125 7.76171875 10.125 9.6875 C6.59465278 12.37515134 4.40402688 14.11104443 3.375 18.5 C3.25125 19.655 3.1275 20.81 3 22 C2.01 22 1.02 22 0 22 C0.12568359 21.00033203 0.12568359 21.00033203 0.25390625 19.98046875 C1.00810446 13.15449759 0.8559797 6.80833088 0 0 Z " fill="#7ABAE3" transform="translate(178,378)"/>
<path d="M0 0 C-0.350625 0.5775 -0.70125 1.155 -1.0625 1.75 C-2.1377364 3.87470695 -2.1377364 3.87470695 -1.90625 5.8203125 C-0.56221367 9.0529516 1.94370358 10.92141849 4.5625 13.125 C6.42784943 14.71066259 8.21894714 16.31577539 10 18 C10 18.66 10 19.32 10 20 C4.83108668 19.35388584 1.96737585 15.3335279 -1.5625 11.8359375 C-3.7836274 9.73672661 -3.7836274 9.73672661 -6.171875 10.19140625 C-6.77515625 10.45824219 -7.3784375 10.72507812 -8 11 C-9.33333333 11.33333333 -10.66666667 11.66666667 -12 12 C-10.53033642 8.60140297 -8.61962486 6.35036291 -6 3.75 C-5.29875 3.04359375 -4.5975 2.3371875 -3.875 1.609375 C-2 0 -2 0 0 0 Z " fill="#76B8E2" transform="translate(360,329)"/>
<path d="M0 0 C-1.98 0.99 -1.98 0.99 -4 2 C-1.03 2.495 -1.03 2.495 2 3 C-0.76112664 4.51396607 -3.08648285 5.27552743 -6.1875 5.75 C-11.66808781 6.87329403 -15.56478441 9.72257161 -20 13 C-20.99 13.66 -21.98 14.32 -23 15 C-22.50906335 10.74521569 -19.91526841 7.93183243 -17 5 C-12.42136709 1.56602532 -5.61153716 -1.87051239 0 0 Z " fill="#346382" transform="translate(140,292)"/>
<path d="M0 0 C0.66 0 1.32 0 2 0 C2.67528223 1.57967807 3.33989694 3.16391903 4 4.75 C4.37125 5.63171875 4.7425 6.5134375 5.125 7.421875 C6 10 6 10 6 14 C2.7 14 -0.6 14 -4 14 C-3.36843005 8.94744036 -1.86540627 4.70406799 0 0 Z " fill="#D0DBE2" transform="translate(235,33)"/>
<path d="M0 0 C-0.13277344 0.845625 -0.26554688 1.69125 -0.40234375 2.5625 C-1.35788715 8.700297 -2.27420022 14.83070189 -3 21 C-3.66 21 -4.32 21 -5 21 C-6.57255046 17.85489907 -6.22572668 14.51234555 -6.25 11.0625 C-6.270625 10.33353516 -6.29125 9.60457031 -6.3125 8.85351562 C-6.35153292 3.53040114 -6.35153292 3.53040114 -4.671875 0.99609375 C-3 0 -3 0 0 0 Z " fill="#B3C4D0" transform="translate(248,261)"/>
<path d="M0 0 C3.75041158 0.64570765 6.34905316 2.35562441 9.5 4.4375 C12.60506366 6.48052953 15.63270775 8.41959633 19 10 C19 10.99 19 11.98 19 13 C14.10319212 12.45695056 10.72197898 10.25094307 6.6875 7.625 C6.04232422 7.22539062 5.39714844 6.82578125 4.73242188 6.4140625 C3.09661749 5.36160846 1.54020271 4.18797774 0 3 C0 2.01 0 1.02 0 0 Z " fill="#7BBAE3" transform="translate(373,308)"/>
<path d="M0 0 C0.99 0 1.98 0 3 0 C3 1.32 3 2.64 3 4 C3.804375 4.268125 4.60875 4.53625 5.4375 4.8125 C6.283125 5.204375 7.12875 5.59625 8 6 C8.33 6.99 8.66 7.98 9 9 C5.37 9 1.74 9 -2 9 C-2.125 5.625 -2.125 5.625 -2 2 C-1.34 1.34 -0.68 0.68 0 0 Z " fill="#B3C4D0" transform="translate(250,280)"/>
<path d="M0 0 C0.66 0 1.32 0 2 0 C1.40440894 4.86872054 -0.72477415 8.59328841 -3.0625 12.8125 C-3.43955078 13.50537109 -3.81660156 14.19824219 -4.20507812 14.91210938 C-5.13083852 16.61128985 -6.06462312 18.30609425 -7 20 C-7.66 20 -8.32 20 -9 20 C-8.45914863 15.04970761 -6.91707516 11.52139502 -4.5 7.1875 C-3.8709375 6.04667969 -3.241875 4.90585937 -2.59375 3.73046875 C-1 1 -1 1 0 0 Z " fill="#7FBCE4" transform="translate(153,367)"/>
<path d="M0 0 C0.66 0 1.32 0 2 0 C2 1.32 2 2.64 2 4 C-0.51953125 6.0703125 -0.51953125 6.0703125 -3.8125 8.125 C-4.89144531 8.80820312 -5.97039062 9.49140625 -7.08203125 10.1953125 C-8.04496094 10.79085938 -9.00789063 11.38640625 -10 12 C-10.99 12.66 -11.98 13.32 -13 14 C-13.99 14 -14.98 14 -16 14 C-14.49054818 9.63158646 -11.13366908 7.72754266 -7.4375 5.3125 C-3.53130683 2.88490617 -3.53130683 2.88490617 0 0 Z " fill="#7DBBE4" transform="translate(91,312)"/>
<path d="M0 0 C3.93673644 1.31224548 6.22719294 2.91910327 9 6 C8.50886719 6.39832031 8.01773437 6.79664063 7.51171875 7.20703125 C5.56816575 9.5121755 5.683464 10.7196719 5.8125 13.6875 C5.83957031 14.49574219 5.86664063 15.30398438 5.89453125 16.13671875 C5.92933594 16.75160156 5.96414063 17.36648438 6 18 C5.34 18 4.68 18 4 18 C3.34 16.02 2.68 14.04 2 12 C2.66 12 3.32 12 4 12 C3.566875 10.95199219 3.566875 10.95199219 3.125 9.8828125 C2.75375 8.97273438 2.3825 8.06265625 2 7.125 C1.62875 6.22007812 1.2575 5.31515625 0.875 4.3828125 C0 2 0 2 0 0 Z " fill="#83BEE5" transform="translate(344,349)"/>
<path d="M0 0 C0.66 0 1.32 0 2 0 C4.66490534 3.21356232 5.92682393 5.31702339 6.375 9.5 C6.00646819 12.93963025 5.25451995 15.78529263 4 19 C3.34 19 2.68 19 2 19 C1.93941406 18.13117188 1.87882813 17.26234375 1.81640625 16.3671875 C1.73261719 15.21476563 1.64882812 14.06234375 1.5625 12.875 C1.48128906 11.73804688 1.40007812 10.60109375 1.31640625 9.4296875 C1.02269035 6.2459522 0.56875687 3.14489093 0 0 Z " fill="#4F7793" transform="translate(186,192)"/>
<path d="M0 0 C1.875 0.3125 1.875 0.3125 4 1 C6.4294516 4.6441774 6.16179575 6.71241272 6 11 C3.50935112 11.68707555 1.62113708 12 -1 12 C-0.67 11.67 -0.34 11.34 0 11 C0.07226502 9.14712498 0.0838122 7.29166122 0.0625 5.4375 C0.05347656 4.42558594 0.04445312 3.41367187 0.03515625 2.37109375 C0.02355469 1.58863281 0.01195312 0.80617187 0 0 Z " fill="#346282" transform="translate(185,255)"/>
<path d="M0 0 C2.5 0.25 2.5 0.25 4.5 2.25 C4.625 5.375 4.625 5.375 4.5 8.25 C1.2 7.59 -2.1 6.93 -5.5 6.25 C-4.03846154 0.40384615 -4.03846154 0.40384615 0 0 Z " fill="#CBD6DE" transform="translate(237.5,206.75)"/>
<path d="M0 0 C4.29 0 8.58 0 13 0 C8.78370866 2.10814567 6.60209225 2.17700355 2 2 C2 4.31 2 6.62 2 9 C8.27 9 14.54 9 21 9 C21 9.33 21 9.66 21 10 C14.07 10 7.14 10 0 10 C0 6.7 0 3.4 0 0 Z " fill="#B7C8D3" transform="translate(43,219)"/>
<path d="M0 0 C1.66666667 0 3.33333333 0 5 0 C5 3.3 5 6.6 5 10 C4.67 10 4.34 10 4 10 C4 15.61 4 21.22 4 27 C3.67 27 3.34 27 3 27 C2.01 18.09 1.02 9.18 0 0 Z " fill="#45708D" transform="translate(208,249)"/>
<path d="M0 0 C0.1953125 6.0546875 0.1953125 6.0546875 0 8 C-2 10 -2 10 -4.625 10.125 C-5.40875 10.08375 -6.1925 10.0425 -7 10 C-6.39169139 3.55192878 -6.39169139 3.55192878 -4.625 1.0625 C-3 0 -3 0 0 0 Z " fill="#46708D" transform="translate(218,193)"/>
<path d="M0 0 C7.59 0 15.18 0 23 0 C23 0.99 23 1.98 23 3 C20.36 3 17.72 3 15 3 C14.34 4.32 13.68 5.64 13 7 C13 5.02 13 3.04 13 1 C9.7 1 6.4 1 3 1 C3 1.66 3 2.32 3 3 C2.01 3 1.02 3 0 3 C0 2.01 0 1.02 0 0 Z " fill="#75B7E2" transform="translate(389,276)"/>
<path d="M0 0 C2.625 0.375 2.625 0.375 5 1 C5.04254356 2.99954746 5.04080783 5.00041636 5 7 C4 8 4 8 1.5625 8.1875 C-1 8 -1 8 -3 6 C-2.63318342 3.06546739 -2.13562754 2.13562754 0 0 Z " fill="#EDF5FA" transform="translate(123,351)"/>
<path d="M0 0 C0 0.99 0 1.98 0 3 C-1.06541016 3.30744141 -1.06541016 3.30744141 -2.15234375 3.62109375 C-3.53099609 4.02521484 -3.53099609 4.02521484 -4.9375 4.4375 C-6.31228516 4.83775391 -6.31228516 4.83775391 -7.71484375 5.24609375 C-9.9402493 5.79026051 -9.9402493 5.79026051 -11 7 C-13.67058851 7.14115161 -16.32432238 7.04247107 -19 7 C-19.33 6.34 -19.66 5.68 -20 5 C-18.7625 4.855625 -17.525 4.71125 -16.25 4.5625 C-13.43495501 4.21311498 -10.7298503 3.79620634 -8 3 C-8 2.34 -8 1.68 -8 1 C-5.10765685 0.17361624 -3.11257569 0 0 0 Z " fill="#6EB3E1" transform="translate(78,285)"/>
<path d="M0 0 C0.33 1.32 0.66 2.64 1 4 C0.34 4.061875 -0.32 4.12375 -1 4.1875 C-4.58514117 5.15847573 -7.09246403 6.85338483 -10.1328125 8.94140625 C-12 10 -12 10 -15 10 C-15 9.01 -15 8.02 -15 7 C-12.87767021 5.82823482 -10.75242209 4.66245215 -8.625 3.5 C-7.72007813 2.99919922 -7.72007813 2.99919922 -6.796875 2.48828125 C-2.2265625 0 -2.2265625 0 0 0 Z " fill="#83BFE5" transform="translate(77,295)"/>
<path d="M0 0 C0.33 0.66 0.66 1.32 1 2 C1.66 2 2.32 2 3 2 C1.7874262 5.72433382 0.49140021 9.37802806 -1 13 C-2.66666667 13 -4.33333333 13 -6 13 C-4.58707905 8.1725201 -2.57025846 4.2837641 0 0 Z " fill="#D0DAE2" transform="translate(190,266)"/>
<path d="M0 0 C2.00720923 0.28674418 4.0085944 0.61866701 6 1 C5.62607279 3.71097227 5.18642373 4.82000467 3.1875 6.75 C1 8 1 8 -3 8 C-1.125 1.125 -1.125 1.125 0 0 Z " fill="#194E72" transform="translate(153,157)"/>
<path d="M0 0 C0.33 0 0.66 0 1 0 C1.10957031 0.69867188 1.21914062 1.39734375 1.33203125 2.1171875 C1.49058594 3.02726562 1.64914063 3.93734375 1.8125 4.875 C1.96332031 5.77992188 2.11414063 6.68484375 2.26953125 7.6171875 C2.83051301 10.34412478 2.83051301 10.34412478 6 12 C7.9896995 12.39013716 9.99019869 12.73202649 12 13 C12 13.66 12 14.32 12 15 C4.90225564 15.60150376 4.90225564 15.60150376 1 13 C-1.71408161 8.92887758 -1.47433524 6.8224083 -1 2 C-0.67 1.34 -0.34 0.68 0 0 Z " fill="#6FB4E1" transform="translate(205,392)"/>
<path d="M0 0 C0.99 0 1.98 0 3 0 C5.20536179 4.0271824 6.45660208 7.43545749 7 12 C5.29159719 10.36587557 4.06546953 9.13093906 3 7 C2.34 8.98 1.68 10.96 1 13 C0.67 13 0.34 13 0 13 C0 8.71 0 4.42 0 0 Z " fill="#80BDE4" transform="translate(264,383)"/>
<path d="M0 0 C1.07765625 0.01804688 2.1553125 0.03609375 3.265625 0.0546875 C4.49539062 0.08949219 4.49539062 0.08949219 5.75 0.125 C5.75 0.455 5.75 0.785 5.75 1.125 C4.70199219 1.21587891 4.70199219 1.21587891 3.6328125 1.30859375 C2.72273437 1.39238281 1.81265625 1.47617188 0.875 1.5625 C-0.02992188 1.64371094 -0.93484375 1.72492188 -1.8671875 1.80859375 C-4.26110861 1.99489285 -4.26110861 1.99489285 -6.25 3.125 C-4.27 4.115 -2.29 5.105 -0.25 6.125 C-0.25 6.785 -0.25 7.445 -0.25 8.125 C-0.745 7.980625 -1.24 7.83625 -1.75 7.6875 C-5.22752922 6.90505593 -8.70955123 6.53805236 -12.25 6.125 C-11.32133622 3.80334055 -10.6695928 2.40472854 -8.5625 1 C-5.59932516 -0.12120129 -3.15930703 -0.06868059 0 0 Z " fill="#698CA3" transform="translate(207.25,155.875)"/>
<path d="M0 0 C0.33 0.99 0.66 1.98 1 3 C2.03125 2.505 3.0625 2.01 4.125 1.5 C7.52451578 0.02526098 10.27021549 -0.27291106 14 0 C14.33 0.99 14.66 1.98 15 3 C10.545 4.485 10.545 4.485 6 6 C6.33 5.01 6.66 4.02 7 3 C4.36 3.66 1.72 4.32 -1 5 C-0.67 3.35 -0.34 1.7 0 0 Z " fill="#4A7390" transform="translate(309,48)"/>
<path d="M0 0 C0 0.99 0 1.98 0 3 C-2.31 3.33 -4.62 3.66 -7 4 C-6.67 5.98 -6.34 7.96 -6 10 C-7.32 9.67 -8.64 9.34 -10 9 C-10.33 7.02 -10.66 5.04 -11 3 C-4.5 0 -4.5 0 0 0 Z " fill="#85BFE5" transform="translate(293,375)"/>
<path d="M0 0 C1.00109515 3.31070838 1.10356134 6.30084769 1.0625 9.75 C1.05347656 10.73484375 1.04445312 11.7196875 1.03515625 12.734375 C1.02355469 13.48203125 1.01195312 14.2296875 1 15 C2.32 14.34 3.64 13.68 5 13 C3.87994369 16.36016893 2.62788203 17.69064913 0 20 C-0.66 20 -1.32 20 -2 20 C-2.22731216 13.06697907 -1.42002108 6.7831364 0 0 Z " fill="#9DB3C2" transform="translate(202,238)"/>
<path d="M0 0 C0.33 0 0.66 0 1 0 C1 2.64 1 5.28 1 8 C-5.625 11 -5.625 11 -9 11 C-9 10.01 -9 9.02 -9 8 C-8.05125 7.7525 -7.1025 7.505 -6.125 7.25 C-2.93758659 6.32091106 -2.93758659 6.32091106 -1.6875 4 C-1.460625 3.34 -1.23375 2.68 -1 2 C-0.67 1.34 -0.34 0.68 0 0 Z " fill="#8BC3E6" transform="translate(315,381)"/>
<path d="M0 0 C0.33 0 0.66 0 1 0 C1.125 2.875 1.125 2.875 1 6 C-1 8 -1 8 -4.375 8.375 C-8 8 -8 8 -10.4375 6.125 C-12 4 -12 4 -12 2 C-11.1646875 2.4640625 -11.1646875 2.4640625 -10.3125 2.9375 C-6.51836716 4.68075022 -4.00548901 5.335163 0 4 C0 2.68 0 1.36 0 0 Z " fill="#72B6E2" transform="translate(139,372)"/>
<path d="M0 0 C3 2 3 2 3.6875 4.625 C3.8421875 5.800625 3.8421875 5.800625 4 7 C6.97 7 9.94 7 13 7 C12.67 7.66 12.34 8.32 12 9 C9.67843403 9.40729228 7.3431213 9.74438677 5 10 C7.97 10.495 7.97 10.495 11 11 C11 11.33 11 11.66 11 12 C7.75 12.3125 7.75 12.3125 4 12 C1.5625 9.9375 1.5625 9.9375 0 7 C-0.25 3.1875 -0.25 3.1875 0 0 Z " fill="#9DCCEA" transform="translate(54,281)"/>
<path d="M0 0 C3.06325753 0.60994066 5.20050634 1.57728011 7.75 3.375 C8.36359375 3.79523438 8.9771875 4.21546875 9.609375 4.6484375 C10.29773438 5.31746094 10.29773438 5.31746094 11 6 C11 6.99 11 7.98 11 9 C6.39860359 7.51131293 3.49772906 5.25370145 0 2 C0 1.34 0 0.68 0 0 Z " fill="#557B96" transform="translate(149,180)"/>
<path d="M0 0 C0.28875 0.598125 0.5775 1.19625 0.875 1.8125 C2.58141905 5.13053703 3.85730492 6.90486994 7 9 C6.01 9 5.02 9 4 9 C3.67 12.3 3.34 15.6 3 19 C2.67 19 2.34 19 2 19 C1.95101562 18.25234375 1.90203125 17.5046875 1.8515625 16.734375 C1.77679688 15.74953125 1.70203125 14.7646875 1.625 13.75 C1.55539063 12.77546875 1.48578125 11.8009375 1.4140625 10.796875 C1.0124348 8.08399357 0.25984905 6.3937132 -1 4 C-0.625 1.75 -0.625 1.75 0 0 Z " fill="#B5C6D1" transform="translate(166,171)"/>
<path d="M0 0 C2.97 0 5.94 0 9 0 C8.67 1.98 8.34 3.96 8 6 C4.08597051 4.73058503 2.20927127 3.48832306 0 0 Z " fill="#DCECF7" transform="translate(393,278)"/>
<path d="M0 0 C-0.93972656 0.58007812 -0.93972656 0.58007812 -1.8984375 1.171875 C-2.71570312 1.69265625 -3.53296875 2.2134375 -4.375 2.75 C-5.59316406 3.51570313 -5.59316406 3.51570313 -6.8359375 4.296875 C-9.08555679 6.0673335 -9.95906848 7.36907419 -11 10 C-11.3125 6.6875 -11.3125 6.6875 -11 3 C-7.48718901 0.15177488 -4.40330078 -1.46776693 0 0 Z " fill="#6FB4E1" transform="translate(66,277)"/>
<path d="M0 0 C0.66 0 1.32 0 2 0 C2.66 2.64 3.32 5.28 4 8 C3.67 8 3.34 8 3 8 C2.67 11.3 2.34 14.6 2 18 C1.67 18 1.34 18 1 18 C0.22959149 11.93303301 -0.09706112 6.11485027 0 0 Z " fill="#5E829C" transform="translate(161,168)"/>
<path d="M0 0 C0.99 0 1.98 0 3 0 C3.33 2.97 3.66 5.94 4 9 C2.68 9 1.36 9 0 9 C0 6.03 0 3.06 0 0 Z " fill="#839FB3" transform="translate(179,230)"/>
<path d="M0 0 C2.31 0 4.62 0 7 0 C7 1.65 7 3.3 7 5 C4.69 4.67 2.38 4.34 0 4 C0 2.68 0 1.36 0 0 Z " fill="#D0DAE1" transform="translate(49,197)"/>
<path d="M0 0 C0.66 0.33 1.32 0.66 2 1 C1.24203125 1.81404297 1.24203125 1.81404297 0.46875 2.64453125 C-0.1809375 3.35996094 -0.830625 4.07539062 -1.5 4.8125 C-2.1496875 5.52019531 -2.799375 6.22789063 -3.46875 6.95703125 C-5.29987759 8.97457093 -5.29987759 8.97457093 -5 12 C-6.32 11.67 -7.64 11.34 -9 11 C-7.59155282 7.78475695 -5.89655214 5.67816132 -3.375 3.25 C-2.74335937 2.63640625 -2.11171875 2.0228125 -1.4609375 1.390625 C-0.73777344 0.70226562 -0.73777344 0.70226562 0 0 Z " fill="#2B5C7D" transform="translate(103,74)"/>
<path d="M0 0 C0.99 0 1.98 0 3 0 C2.67 3.96 2.34 7.92 2 12 C1.67 12 1.34 12 1 12 C0.67 10.02 0.34 8.04 0 6 C-0.33 7.98 -0.66 9.96 -1 12 C-1.33 12 -1.66 12 -2 12 C-2.05422947 10.5629191 -2.09289723 9.12524538 -2.125 7.6875 C-2.14820313 6.88699219 -2.17140625 6.08648437 -2.1953125 5.26171875 C-2 3 -2 3 0 0 Z " fill="#98C9E9" transform="translate(205,388)"/>
<path d="M0 0 C-1.65 1.98 -3.3 3.96 -5 6 C-6.32 5.34 -7.64 4.68 -9 4 C-9 3.01 -9 2.02 -9 1 C-3.375 -1.125 -3.375 -1.125 0 0 Z " fill="#D1DBE2" transform="translate(384,113)"/>
<path d="M0 0 C4.42857143 5.14285714 4.42857143 5.14285714 5 9 C3.68 9 2.36 9 1 9 C-1 6 -1 6 -0.625 2.8125 C-0.41875 1.884375 -0.2125 0.95625 0 0 Z " fill="#8EC4E7" transform="translate(326,372)"/>
<path d="M0 0 C0 1.32 0 2.64 0 4 C-2.31 4.66 -4.62 5.32 -7 6 C-6.67 5.01 -6.34 4.02 -6 3 C-6.66 2.34 -7.32 1.68 -8 1 C-5.29120665 -0.35439668 -2.99066732 -0.06501451 0 0 Z " fill="#396686" transform="translate(414,158)"/>
<path d="M0 0 C0.66 0 1.32 0 2 0 C0.91191968 2.25985912 -0.11906264 4.14993074 -1.6875 6.125 C-3.66749424 10.46213024 -2.74272463 14.3915279 -2 19 C-2.66 19 -3.32 19 -4 19 C-5.56714795 14.29855615 -6.18731563 9.43222492 -3.953125 4.85546875 C-2.625 2.9375 -2.625 2.9375 0 0 Z " fill="#6F90A6" transform="translate(181,32)"/>
<path d="M0 0 C0.99 0 1.98 0 3 0 C2.34 4.29 1.68 8.58 1 13 C0.34 13 -0.32 13 -1 13 C-1.02686553 11.02090602 -1.04633375 9.04171029 -1.0625 7.0625 C-1.07410156 5.96035156 -1.08570313 4.85820312 -1.09765625 3.72265625 C-1 1 -1 1 0 0 Z " fill="#E0E7EC" transform="translate(245,261)"/>
<path d="M0 0 C0.33 0 0.66 0 1 0 C1.06058594 0.60328125 1.12117187 1.2065625 1.18359375 1.828125 C1.26738281 2.62734375 1.35117188 3.4265625 1.4375 4.25 C1.55931641 5.43335938 1.55931641 5.43335938 1.68359375 6.640625 C1.97634993 8.82364639 2.42064419 10.8773182 3 13 C0.69 13 -1.62 13 -4 13 C-3.67 12.34 -3.34 11.68 -3 11 C-2.34 11.33 -1.68 11.66 -1 12 C-1.66 10.35 -2.32 8.7 -3 7 C-2.34 7 -1.68 7 -1 7 C-0.67 4.69 -0.34 2.38 0 0 Z " fill="#D7E0E6" transform="translate(161,177)"/>
<path d="M0 0 C2 3 2 3 2 7 C5.0745356 6.2236068 5.0745356 6.2236068 7 4 C6.67 5.32 6.34 6.64 6 8 C4.68 8 3.36 8 2 8 C1.34 9.32 0.68 10.64 0 12 C-0.66 11.67 -1.32 11.34 -2 11 C-2 9.68 -2 8.36 -2 7 C-1.34 6.67 -0.68 6.34 0 6 C0 4.02 0 2.04 0 0 Z " fill="#C1CFD9" transform="translate(139,68)"/>
<path d="M0 0 C0.33 0.99 0.66 1.98 1 3 C4.3 2.34 7.6 1.68 11 1 C10.67 1.99 10.34 2.98 10 4 C8.15234375 4.73046875 8.15234375 4.73046875 5.9375 5.1875 C5.20402344 5.34605469 4.47054688 5.50460937 3.71484375 5.66796875 C2.86599609 5.83232422 2.86599609 5.83232422 2 6 C2 5.34 2 4.68 2 4 C1.34 4 0.68 4 0 4 C0 2.68 0 1.36 0 0 Z " fill="#7FBCE4" transform="translate(289,392)"/>
<path d="M0 0 C0.66 0 1.32 0 2 0 C1.56802365 4.7517398 0.67230705 6.92000054 -3 10 C-3.66 9.34 -4.32 8.68 -5 8 C-4.21718695 6.66144944 -3.42348123 5.32926356 -2.625 4 C-2.18414062 3.2575 -1.74328125 2.515 -1.2890625 1.75 C-0.86367188 1.1725 -0.43828125 0.595 0 0 Z " fill="#7EBCE4" transform="translate(401,298)"/>
<path d="M0 0 C1.98 0 3.96 0 6 0 C6 0.99 6 1.98 6 3 C5.34 3 4.68 3 4 3 C4 3.66 4 4.32 4 5 C2.35 4.67 0.7 4.34 -1 4 C-0.67 2.68 -0.34 1.36 0 0 Z " fill="#46708D" transform="translate(149,172)"/>
<path d="M0 0 C0.33 0 0.66 0 1 0 C1 3.3 1 6.6 1 10 C-0.32 10.33 -1.64 10.66 -3 11 C-3.74926071 7.33694766 -4.2380014 4.57644848 -3 1 C-2.34 2.65 -1.68 4.3 -1 6 C-0.67 4.02 -0.34 2.04 0 0 Z " fill="#9DCBEA" transform="translate(274,388)"/>
<path d="M0 0 C1.65 0 3.3 0 5 0 C4.38722388 2.96175123 3.74627478 4.38058783 2 7 C1.01 6.67 0.02 6.34 -1 6 C-0.67 4.02 -0.34 2.04 0 0 Z " fill="#356383" transform="translate(55,139)"/>
<path d="M0 0 C1.32 0 2.64 0 4 0 C4 0.99 4 1.98 4 3 C1 5.1875 1 5.1875 -2 7 C-2.66 6.34 -3.32 5.68 -4 5 C-2.25 2.5 -2.25 2.5 0 0 Z " fill="#8BC2E6" transform="translate(189,381)"/>
<path d="M0 0 C4.75 1.875 4.75 1.875 7 3 C6.34 4.32 5.68 5.64 5 7 C4.01 6.67 3.02 6.34 2 6 C0.8125 2.9375 0.8125 2.9375 0 0 Z " fill="#E8F3F9" transform="translate(344,349)"/>
<path d="M0 0 C2.86724686 0.57344937 3.8614515 0.8614515 6 3 C6.125 5.625 6.125 5.625 6 8 C5.01 8.33 4.02 8.66 3 9 C2.690625 7.88625 2.38125 6.7725 2.0625 5.625 C1.17673517 2.2054845 1.17673517 2.2054845 0 0 Z " fill="#C0CED7" transform="translate(174,156)"/>
<path d="M0 0 C0.33 0 0.66 0 1 0 C2.28571429 7.42857143 2.28571429 7.42857143 1 11 C0.01 11 -0.98 11 -2 11 C-1 3.57142857 -1 3.57142857 0 0 Z " fill="#8AC2E6" transform="translate(121,361)"/>
<path d="M0 0 C0.99 0.33 1.98 0.66 3 1 C3.33 3.31 3.66 5.62 4 8 C3.01 7.01 2.02 6.02 1 5 C0.01 5.33 -0.98 5.66 -2 6 C-1.34 4.02 -0.68 2.04 0 0 Z " fill="#B1C2CF" transform="translate(304,58)"/>
<path d="M0 0 C3.63 0 7.26 0 11 0 C11 0.66 11 1.32 11 2 C7.37 2.33 3.74 2.66 0 3 C0 2.01 0 1.02 0 0 Z " fill="#76B8E2" transform="translate(230,386)"/>
<path d="M0 0 C0.66 1.32 1.32 2.64 2 4 C0.6875 6 0.6875 6 -1 8 C-1.99 8 -2.98 8 -4 8 C-3.40072174 4.64404172 -2.15377564 2.62198774 0 0 Z " fill="#85BFE5" transform="translate(114,357)"/>
<path d="M0 0 C3.465 1.485 3.465 1.485 7 3 C6.67 3.99 6.34 4.98 6 6 C2.64404172 5.40072174 0.62198774 4.15377564 -2 2 C-1.34 1.34 -0.68 0.68 0 0 Z " fill="#7CBBE3" transform="translate(355,352)"/>
<path d="M0 0 C0.33 0.99 0.66 1.98 1 3 C-0.3125 5.1875 -0.3125 5.1875 -2 7 C-2.66 7 -3.32 7 -4 7 C-4 7.66 -4 8.32 -4 9 C-4.66 9 -5.32 9 -6 9 C-5.38722388 6.03824877 -4.74627478 4.61941217 -3 2 C-2.01 2 -1.02 2 0 2 C0 1.34 0 0.68 0 0 Z " fill="#71B5E1" transform="translate(121,350)"/>
<path d="M0 0 C0.33 0.99 0.66 1.98 1 3 C1.99 3 2.98 3 4 3 C4.66 4.65 5.32 6.3 6 8 C2.20411134 7.45773019 0.52788007 5.79872437 -2 3 C-1.34 3 -0.68 3 0 3 C0 2.01 0 1.02 0 0 Z " fill="#8BC2E6" transform="translate(106,342)"/>
<path d="M0 0 C-1.98 0.99 -1.98 0.99 -4 2 C-1.03 2.495 -1.03 2.495 2 3 C-1.08809695 4.76462683 -2.23312136 5 -6 5 C-6 4.01 -6 3.02 -6 2 C-6.66 1.67 -7.32 1.34 -8 1 C-3.375 -1.125 -3.375 -1.125 0 0 Z " fill="#6C8DA4" transform="translate(140,292)"/>
<path d="M0 0 C0 2.64 0 5.28 0 8 C-0.33 8 -0.66 8 -1 8 C-1.33 6.35 -1.66 4.7 -2 3 C-3.98 4.32 -5.96 5.64 -8 7 C-6.13932792 2.84926997 -4.83061881 0 0 0 Z " fill="#5C819B" transform="translate(184,131)"/>
<path d="M0 0 C1 3 1 3 -0.25 5.6875 C-0.8275 6.450625 -1.405 7.21375 -2 8 C-2.99 8 -3.98 8 -5 8 C-5 6.68 -5 5.36 -5 4 C-2.5 1.75 -2.5 1.75 0 0 Z " fill="#154B70" transform="translate(68,120)"/>
<path d="M0 0 C0.66 0.33 1.32 0.66 2 1 C1.04663979 2.31611677 0.08714226 3.62778961 -0.875 4.9375 C-1.40867187 5.66839844 -1.94234375 6.39929688 -2.4921875 7.15234375 C-4 9 -4 9 -6 10 C-5.49477778 5.62140745 -2.82172778 3.18348776 0 0 Z " fill="#688AA2" transform="translate(123,297)"/>
<path d="M0 0 C3.33727786 1.17255709 5.77437487 2.18868404 8 5 C8 5.66 8 6.32 8 7 C4.78448712 6.65548076 3.97940123 5.97711248 1.75 3.5 C0 1 0 1 0 0 Z " fill="#74B7E2" transform="translate(399,285)"/>
<path d="M0 0 C0.33 0.66 0.66 1.32 1 2 C4.02934491 2.65772428 4.02934491 2.65772428 7 3 C7 3.66 7 4.32 7 5 C4.69 5 2.38 5 0 5 C-0.5625 3.0625 -0.5625 3.0625 -1 1 C-0.67 0.67 -0.34 0.34 0 0 Z " fill="#F6F8F9" transform="translate(250,283)"/>
<path d="M0 0 C5.28 0 10.56 0 16 0 C12.54785147 2.30143236 11.76520676 2.13833854 7.8125 1.625 C6.91144531 1.51414062 6.01039063 1.40328125 5.08203125 1.2890625 C4.39496094 1.19367188 3.70789063 1.09828125 3 1 C3 1.66 3 2.32 3 3 C2.01 3 1.02 3 0 3 C0 2.01 0 1.02 0 0 Z " fill="#69B1E0" transform="translate(389,276)"/>
<path d="M0 0 C2.00720923 0.28674418 4.0085944 0.61866701 6 1 C6 1.33 6 1.66 6 2 C3.69 2.33 1.38 2.66 -1 3 C-1 4.32 -1 5.64 -1 7 C-0.34 7.33 0.32 7.66 1 8 C-0.32 8 -1.64 8 -3 8 C-1.125 1.125 -1.125 1.125 0 0 Z " fill="#5F839C" transform="translate(153,157)"/>
<path d="M0 0 C0.99 0 1.98 0 3 0 C3 0.99 3 1.98 3 3 C2.01 3.495 2.01 3.495 1 4 C0.59270772 6.32156597 0.25561323 8.6568787 0 11 C-0.33 11 -0.66 11 -1 11 C-2.25 3.375 -2.25 3.375 0 0 Z " fill="#94C7E8" transform="translate(384,289)"/>
<path d="M0 0 C0.66 0.33 1.32 0.66 2 1 C1.0409375 1.7734375 1.0409375 1.7734375 0.0625 2.5625 C-2.55791681 5.65935623 -2.69389817 8.02067623 -3 12 C-3.33 12 -3.66 12 -4 12 C-4 8.7 -4 5.4 -4 2 C-2.68 1.34 -1.36 0.68 0 0 Z " fill="#C2CFD9" transform="translate(64,193)"/>
<path d="M0 0 C0.99 0.33 1.98 0.66 3 1 C2.67 2.32 2.34 3.64 2 5 C1.01 5 0.02 5 -1 5 C-1.99 5.33 -2.98 5.66 -4 6 C-2.84826645 3.53199953 -1.95216435 1.95216435 0 0 Z " fill="#3B6887" transform="translate(89,88)"/>
<path d="M0 0 C-0.33 2.31 -0.66 4.62 -1 7 C-2.32 7 -3.64 7 -5 7 C-4.39816251 4.97954558 -3.72693904 2.97888961 -3 1 C-1 0 -1 0 0 0 Z " fill="#13496E" transform="translate(293,54)"/>
<path d="M0 0 C0.78375 0.04125 1.5675 0.0825 2.375 0.125 C2.375 0.785 2.375 1.445 2.375 2.125 C1.75625 2.3725 1.1375 2.62 0.5 2.875 C-1.97568687 4.33128639 -2.57625002 5.50312506 -3.625 8.125 C-4.25 5.25 -4.25 5.25 -4.625 2.125 C-2.625 0.125 -2.625 0.125 0 0 Z " fill="#88C1E6" transform="translate(305.625,368.875)"/>
<path d="M0 0 C1.32 0.66 2.64 1.32 4 2 C-0.625 6 -0.625 6 -4 6 C-2.84826645 3.53199953 -1.95216435 1.95216435 0 0 Z " fill="#8BC2E6" transform="translate(352,335)"/>
<path d="M0 0 C1.32 0.33 2.64 0.66 4 1 C4 1.99 4 2.98 4 4 C3.01 4 2.02 4 1 4 C-0.67099977 4.31088368 -2.33871537 4.64080332 -4 5 C-2.68 3.35 -1.36 1.7 0 0 Z " fill="#557C96" transform="translate(234,144)"/>
<path d="M0 0 C0.33 0 0.66 0 1 0 C1 2.97 1 5.94 1 9 C0.01 9 -0.98 9 -2 9 C-2.33 7.35 -2.66 5.7 -3 4 C-2.01 4.33 -1.02 4.66 0 5 C0 3.35 0 1.7 0 0 Z " fill="#65AFDF" transform="translate(275,393)"/>
<path d="M0 0 C0 0.99 0 1.98 0 3 C-0.639375 3.103125 -1.27875 3.20625 -1.9375 3.3125 C-2.618125 3.539375 -3.29875 3.76625 -4 4 C-4.33 4.99 -4.66 5.98 -5 7 C-5 6.01 -5 5.02 -5 4 C-5.66 3.67 -6.32 3.34 -7 3 C-3.375 0 -3.375 0 0 0 Z " fill="#8CC3E7" transform="translate(326,358)"/>
<path d="M0 0 C-0.33 0.99 -0.66 1.98 -1 3 C-3.875 3.625 -3.875 3.625 -7 4 C-7.66 3.34 -8.32 2.68 -9 2 C-3.375 0 -3.375 0 0 0 Z " fill="#7EBCE4" transform="translate(296,384)"/>
<path d="M0 0 C0.99 0 1.98 0 3 0 C3 0.99 3 1.98 3 3 C2.34 3 1.68 3 1 3 C1 6.3 1 9.6 1 13 C0.67 13 0.34 13 0 13 C0 8.71 0 4.42 0 0 Z " fill="#66AFDF" transform="translate(264,383)"/>
<path d="M0 0 C0.5775 0.226875 1.155 0.45375 1.75 0.6875 C-3.25 3.6875 -3.25 3.6875 -8.25 6.6875 C-6.65594781 2.8352072 -4.57967475 -0.63606594 0 0 Z " fill="#A4B8C6" transform="translate(297.25,293.3125)"/>
<path d="M0 0 C0 0.99 0 1.98 0 3 C-2.3125 3.6875 -2.3125 3.6875 -5 4 C-6.8125 2.5625 -6.8125 2.5625 -8 1 C-5.10765685 0.17361624 -3.11257569 0 0 0 Z " fill="#8BC3E7" transform="translate(78,285)"/>
<path d="M0 0 C1.32 0.33 2.64 0.66 4 1 C4.33 2.32 4.66 3.64 5 5 C2.525 4.01 2.525 4.01 0 3 C0 2.01 0 1.02 0 0 Z " fill="#3E6A88" transform="translate(155,184)"/>
<path d="M0 0 C2.31 0.33 4.62 0.66 7 1 C7 1.66 7 2.32 7 3 C5.68 3 4.36 3 3 3 C2.67 3.99 2.34 4.98 2 6 C0 3 0 3 0 0 Z " fill="#406B89" transform="translate(245,79)"/>
<path d="M0 0 C1.65 0.33 3.3 0.66 5 1 C4.67 2.32 4.34 3.64 4 5 C3.67 4.01 3.34 3.02 3 2 C1.35 2.66 -0.3 3.32 -2 4 C-1.34 2.68 -0.68 1.36 0 0 Z " fill="#5B809A" transform="translate(307,42)"/>
<path d="M0 0 C0 0.66 0 1.32 0 2 C-4.455 1.01 -4.455 1.01 -9 0 C-9 -0.33 -9 -0.66 -9 -1 C-5.22102349 -2.0497157 -3.35080929 -2.10976881 0 0 Z " fill="#92C6E8" transform="translate(147,363)"/>
<path d="M0 0 C0.66 0 1.32 0 2 0 C2.66 1.98 3.32 3.96 4 6 C2.68 5.34 1.36 4.68 0 4 C0 2.68 0 1.36 0 0 Z " fill="#88C1E6" transform="translate(114,338)"/>
<path d="M0 0 C0 0.99 0 1.98 0 3 C-1.32 3.33 -2.64 3.66 -4 4 C-4 3.34 -4 2.68 -4 2 C-4.99 1.67 -5.98 1.34 -7 1 C-4 0 -4 0 0 0 Z " fill="#8BC2E7" transform="translate(107,330)"/>
<path d="M0 0 C2.86724686 0.57344937 3.8614515 0.8614515 6 3 C5.67 3.66 5.34 4.32 5 5 C2.525 4.01 2.525 4.01 0 3 C0 2.01 0 1.02 0 0 Z " fill="#88C1E6" transform="translate(373,308)"/>
<path d="M0 0 C-0.66 1.32 -1.32 2.64 -2 4 C-2.99 4 -3.98 4 -5 4 C-5 3.01 -5 2.02 -5 1 C-3 0 -3 0 0 0 Z " fill="#88C1E6" transform="translate(88,305)"/>
<path d="M0 0 C1.32 0.66 2.64 1.32 4 2 C-0.75 5 -0.75 5 -3 5 C-1.125 1.125 -1.125 1.125 0 0 Z " fill="#225477" transform="translate(125,297)"/>
<path d="M0 0 C2.0625 0.4375 2.0625 0.4375 4 1 C2.37660195 2.70884005 0.70680947 4.37446717 -1 6 C-1.66 6 -2.32 6 -3 6 C-1.125 1.125 -1.125 1.125 0 0 Z " fill="#C8D4DD" transform="translate(70,121)"/>
<path d="M0 0 C0.66 0 1.32 0 2 0 C3.37432457 3.81756824 2.67975039 7.07255329 2 11 C1.67 11 1.34 11 1 11 C0.67 7.37 0.34 3.74 0 0 Z " fill="#C0CED7" transform="translate(154,52)"/>
<path d="M0 0 C0.66 0 1.32 0 2 0 C1.71125 0.53625 1.4225 1.0725 1.125 1.625 C-0.16711808 4.35280484 -1.08558592 7.12612718 -2 10 C-2.33 10 -2.66 10 -3 10 C-3.2295711 6.63295715 -3.33943529 4.58629732 -1.625 1.625 C-1.08875 1.08875 -0.5525 0.5525 0 0 Z " fill="#AEC0CC" transform="translate(184,36)"/>
</svg>
